<svg width="84" height="85" viewBox="0 0 299 300" fill="none" xmlns="http://www.w3.org/2000/svg">
    <path d="M148.549 5.615c12.161 0 24.117.964 35.525 2.864 8.644 1.438 16.562 5.37 22.303 11.065 4.111 4.085 9.013 11.013 9.013 20.831v68.564c0 17.083-13.632 30.979-30.392 30.979h-71.922c-13.256 0-25.905 5.364-35.617 15.097-9.515 9.534-14.972 22.381-14.972 35.241v27.291H43.339c-20.732 0-29.29-17.512-32.814-32.213-6.52-27.033-6.52-43.516 0-70.556 2.435-10.161 7.542-18.495 14.774-24.097 6.836-5.299 15.394-8.103 24.75-8.103h104.636V62.216H82.678V40.382c0-10.452 1.517-16.49 5.232-20.85 4.415-5.174 12.715-8.69 26.136-11.06 10.234-1.814 21.808-2.797 33.46-2.85h1.036m0-5.609h-1.062c-12.312.06-24.064 1.109-34.41 2.936-30.471 5.385-36 16.648-36 37.433v27.442h72.007v9.146H50.049c-20.93 0-39.253 12.576-44.98 36.508-6.612 27.429-6.903 44.539 0 73.182 5.12 21.32 17.34 36.509 38.27 36.509h24.756V190.27c0-23.768 20.56-44.73 44.981-44.73h71.922c20.02 0 36.001-16.483 36.001-36.588V40.375c0-19.511-16.463-34.173-36.001-37.432C172.983.943 160.532 0 148.549 0l-.007.013Z" fill="#0009E7"/>
    <path d="M254.954 82.46c20.732 0 29.29 17.511 32.813 32.213 6.519 27.033 6.519 43.516 0 70.556-2.434 10.161-7.542 18.495-14.773 24.097-6.836 5.298-15.394 8.102-24.751 8.102H143.607v20.363h72.008v21.834c0 10.452-1.518 16.489-5.233 20.85-4.414 5.174-12.715 8.691-26.136 11.059-10.234 1.815-21.807 2.798-33.46 2.851h-1.036c-12.161 0-24.117-.964-35.526-2.864-8.643-1.438-16.561-5.371-22.302-11.065-4.11-4.085-9.013-11.013-9.013-20.831v-68.564c0-17.083 13.632-30.979 30.392-30.979h71.922c13.256 0 25.905-5.364 35.617-15.097 9.515-9.534 14.972-22.381 14.972-35.241V82.453h19.148m0-5.609h-24.757v32.9c0 23.767-20.56 44.73-44.98 44.73h-71.922c-20.02 0-36 16.482-36 36.587v68.564c0 19.511 16.462 34.173 36 37.432 12.015 1.999 24.466 2.943 36.449 2.943h1.062c12.313-.059 24.064-1.109 34.411-2.936 30.471-5.385 36-16.648 36-37.433v-27.442h-72.008v-9.145h99.028c20.93 0 39.254-12.577 44.981-36.509 6.612-27.429 6.902-44.539 0-73.182-5.12-21.32-17.34-36.509-38.27-36.509h.006Z" fill="#FF8B9D"/>
    <path d="M287.846 114.989c4.204 17.532 5.655 30.63 4.349 45.106l-.126-.013h-56.257v-45.073h51.955l.079-.02Z" fill="#FFB340"/>
    <path d="m292.069 160.082.126.013c-.528 5.8-1.498 11.825-2.91 18.443l-.053-.013c0-10.182-11.956-18.443-26.71-18.443h29.547Z" fill="#0009E7"/>
    <path d="m289.232 178.525.053.013a234.27 234.27 0 0 1-1.518 6.677c-2.435 10.168-7.542 18.502-14.773 24.111-6.836 5.298-15.394 8.102-24.751 8.102h-12.431v-38.903h53.42Z" fill="#FFB340"/>
    <path d="M289.232 178.525h-53.42c0-10.182 11.956-18.443 26.71-18.443 14.754 0 26.71 8.261 26.71 18.443Z" fill="#fff"/>
    <path d="m287.767 114.659.079.33-.079.02-51.955-32.55h19.142c20.732 0 29.29 17.512 32.813 32.2Z" fill="#0009E7"/>
    <path d="M287.767 115.009h-51.955v-32.55l51.955 32.55Z" fill="#FF8B9D"/>
    <path d="M235.812 160.082h26.71c-14.754 0-26.71 8.261-26.71 18.443v-18.443Z" fill="#0009E7"/>
    <path d="M183.467 198.742v-38.66h52.345v57.346h-52.345v-18.686Zm38.607-22.078a4.26 4.26 0 0 0-4.262-4.256 4.253 4.253 0 0 0-4.256 4.256 4.263 4.263 0 0 0 4.256 4.262 4.264 4.264 0 0 0 4.262-4.262Zm0 12.946a4.26 4.26 0 0 0-4.262-4.256 4.253 4.253 0 0 0-4.256 4.256 4.258 4.258 0 0 0 8.518 0Zm0 12.946a4.26 4.26 0 0 0-4.262-4.256 4.253 4.253 0 0 0-4.256 4.256 4.258 4.258 0 0 0 8.518 0Zm-17.129-25.892a4.258 4.258 0 0 0-4.256-4.256 4.258 4.258 0 0 0 0 8.518 4.259 4.259 0 0 0 4.256-4.262Zm0 12.946a4.258 4.258 0 0 0-4.256-4.256 4.258 4.258 0 0 0-4.256 4.256 4.258 4.258 0 0 0 4.256 4.256 4.258 4.258 0 0 0 4.256-4.256Zm0 12.946a4.258 4.258 0 0 0-4.256-4.256 4.258 4.258 0 0 0-4.256 4.256 4.258 4.258 0 0 0 4.256 4.256 4.258 4.258 0 0 0 4.256-4.256Z" fill="#FF8B9D"/>
    <path d="M235.812 115.009v45.073h-50.596c13.256 0 25.905-5.358 35.624-15.097 9.515-9.541 14.972-22.381 14.972-35.241v5.265Z" fill="red"/>
    <path d="M217.812 172.408a4.26 4.26 0 1 1 .006 8.518 4.26 4.26 0 0 1-.006-8.518ZM217.812 185.354a4.26 4.26 0 0 1 4.262 4.256 4.26 4.26 0 0 1-4.262 4.256 4.253 4.253 0 0 1-4.256-4.256 4.258 4.258 0 0 1 4.256-4.256ZM217.812 198.3a4.26 4.26 0 0 1 4.262 4.256 4.26 4.26 0 0 1-4.262 4.256 4.253 4.253 0 0 1-4.256-4.256 4.258 4.258 0 0 1 4.256-4.256Z" fill="#fff"/>
    <path d="M215.608 237.798v21.827c0 10.452-1.518 16.489-5.233 20.851-4.414 5.173-12.715 8.683-26.136 11.058-10.234 1.808-21.807 2.798-33.46 2.851h-1.036c-2.052 0-4.104-.027-6.143-.086v-56.501h72.008Zm-12.346 26.36c0-7.562-6.05-13.678-13.513-13.678s-13.513 6.116-13.513 13.678c0 7.562 6.077 13.764 13.513 13.764s13.513-6.169 13.513-13.764Z" fill="#FF8B9D"/>
    <path d="M215.39 62.203v46.736c0 .085 0 .171-.006.257-.264-16.476-13.692-29.739-30.221-29.739s-30.227 13.533-30.227 30.234h-.244V62.202h60.698Z" fill="red"/>
    <path d="M215.39 40.375v21.828h-60.698l35.4-35.4.099-.225a11.792 11.792 0 0 1 7.087 10.505h17.921a28.38 28.38 0 0 1 .191 3.292Z" fill="#0009E7"/>
    <path d="M215.199 37.083h-17.921a11.792 11.792 0 0 0-7.087-10.505 11.528 11.528 0 0 0-4.579-.943c-6.348 0-11.501 5.107-11.673 11.448h-19.247c0-14.847 13.797-27.265 30.92-27.265 2.111 0 3.365.053 5.338.41 12.029 4.13 22.711 13.645 24.249 26.855Z" fill="red"/>
    <path d="M185.163 79.457c16.529 0 29.957 13.263 30.221 29.739-.132 16.911-13.619 30.629-30.221 30.722h-.165c-16.621-.093-30.062-13.586-30.062-30.227s13.533-30.234 30.227-30.234Zm23.253 23.16c0-8.756-7.087-15.902-15.889-15.902s-15.757 7.008-15.889 15.652a11.598 11.598 0 0 0-2.567 7.304c0 6.427 5.206 11.679 11.673 11.679a11.61 11.61 0 0 0 7.641-2.85c8.399-.449 15.031-7.41 15.031-15.883Z" fill="#0009E7"/>
    <path d="M192.527 86.715c8.802 0 15.889 7.146 15.889 15.902s-6.632 15.434-15.031 15.883a11.67 11.67 0 0 0 4.031-8.829c0-6.433-5.206-11.686-11.672-11.686a11.613 11.613 0 0 0-9.106 4.382c.132-8.644 7.166-15.652 15.889-15.652ZM200.689 172.408a4.258 4.258 0 0 1 0 8.518 4.259 4.259 0 0 1-4.256-4.262 4.253 4.253 0 0 1 4.256-4.256ZM200.689 193.866a4.256 4.256 0 1 0 0-8.512 4.256 4.256 0 0 0 0 8.512ZM200.689 206.812a4.256 4.256 0 1 0 0-8.512 4.256 4.256 0 0 0 0 8.512Z" fill="#fff"/>
    <path d="M185.744 97.985c6.466 0 11.672 5.253 11.672 11.686a11.67 11.67 0 0 1-4.031 8.829 18.7 18.7 0 0 1-.858.019c-8.809 0-15.896-7.146-15.896-15.902 0-.085 0-.165.007-.25a11.613 11.613 0 0 1 9.106-4.382Z" fill="#FFB340"/>
    <path d="M192.527 118.519c.29 0 .574-.006.858-.019a11.608 11.608 0 0 1-7.641 2.85c-6.466 0-11.673-5.252-11.673-11.679 0-2.765.957-5.305 2.567-7.304-.006.085-.006.165-.006.25 0 8.756 7.086 15.902 15.895 15.902Z" fill="#fff"/>
    <path d="m190.191 26.578-.099.224-35.4 35.4v-25.12h19.247c.172-6.34 5.325-11.447 11.673-11.447 1.623 0 3.174.336 4.579.943Z" fill="#FFB340"/>
    <path d="M190.95 10.227c-1.973-.356-3.227-.409-5.338-.409-17.123 0-30.92 12.418-30.92 27.265V5.7c10.036.264 19.894 1.2 29.382 2.778a42.71 42.71 0 0 1 6.876 1.748ZM184.998 139.918h-30.306v-30.227h.244c0 16.641 13.441 30.134 30.062 30.227Z" fill="#FFB340"/>
    <path d="M183.467 198.742v18.686h-13.058v-.072l13.058-18.614Z" fill="#0009E7"/>
    <path d="M183.467 198.313v.429l-13.058 18.614v.072h-.217v-19.115h13.275Z" fill="#fff"/>
    <path d="M183.467 185.611v12.702h-43.285a27.776 27.776 0 0 0 1.656-9.482c0-1.088-.066-2.164-.184-3.22h41.813Z" fill="#0009E7"/>
    <path d="M183.467 172.916v12.695h-41.813a28.005 28.005 0 0 0-4.791-12.695h46.604Z" fill="#fff"/>
    <path d="M183.467 160.214v12.702h-46.604c-5.199-7.529-13.975-12.53-23.971-12.695v-.132c.132-.007.27-.007.402-.007h70.173v.132ZM170.192 198.716v18.712h-13.276v-.118l13.045-18.594h.231Z" fill="#0009E7"/>
    <path d="M170.192 198.313v.403h-.231l-13.045 18.594v-18.997h13.276Z" fill="#fff"/>
    <path d="M156.916 217.31v.118h-13.309v-.072l13.078-18.64h.231v18.594Z" fill="#0009E7"/>
    <path d="M156.916 198.313v.403h-.231l-13.078 18.64v-19.043h13.309Z" fill="#fff"/>
    <path d="M154.692 109.691v30.227h-13.678l-17.057-30.227.013-.02h30.709l.013.02Z" fill="red"/>
    <path d="M154.692 82.572v27.099h-.013l-15.289-27.1h15.302ZM154.692 37.083v25.12H82.684V40.374c0-10.451 1.518-16.489 5.233-20.85 4.414-5.174 12.715-8.684 26.136-11.053 10.24-1.814 21.807-2.797 33.46-2.857h1.036c2.052 0 4.104.027 6.143.086v31.382Zm-32.635-1.24c0-7.589-6.077-13.765-13.514-13.765-7.436 0-13.513 6.176-13.513 13.764 0 7.588 6.05 13.678 13.513 13.678s13.514-6.116 13.514-13.678Z" fill="#0009E7"/>
    <path d="m139.39 82.572 15.289 27.099H123.97l15.289-27.1h.131Z" fill="#fff"/>
    <path d="M143.607 217.356v.072H130.258v-.072l13.078-18.64h.271v18.64Z" fill="#0009E7"/>
    <path d="M143.607 198.313v.403h-.271l-13.078 18.64v.072h-16.825c12.385-.422 22.83-8.28 26.749-19.115h3.425Z" fill="#0009E7"/>
    <path d="M143.6 264.593v29.706l-32.22-40.811a11.136 11.136 0 0 1 2.053-.191c6.169 0 11.217 5.035 11.388 11.296H143.6ZM143.6 237.797v26.796c0-14.648-13.46-26.901-30.167-26.901-4.514 0-8.783.891-12.623 2.487l-.059-.145-17.849-22.606h28.406a26.655 26.655 0 0 0 2.125 0H143.6v20.369Z" fill="red"/>
    <path d="m111.381 253.488 32.219 40.811c-10.042-.264-19.894-1.201-29.382-2.778-14.035-2.342-28.234-12.167-30.874-26.928h18.7c.145-5.549 4.117-10.141 9.337-11.105Z" fill="#0009E7"/>
    <path d="M111.381 253.488c-5.22.964-9.192 5.556-9.337 11.105h-18.7a5.297 5.297 0 0 1-.079-.468c.205-10.498 7.318-19.703 17.545-23.946 3.84-1.596 8.109-2.487 12.623-2.487 16.707 0 30.167 12.253 30.167 26.901h-18.779c-.171-6.262-5.219-11.296-11.388-11.296-.7 0-1.386.066-2.052.191Z" fill="#fff"/>
    <path d="M141.654 185.611a28.75 28.75 0 0 1 .185 3.22c0 3.319-.581 6.513-1.657 9.482-3.919 10.834-14.364 18.693-26.749 19.115h-.541v-57.207c9.996.165 18.772 5.166 23.971 12.695a27.994 27.994 0 0 1 4.791 12.695Z" fill="#FFB340"/>
    <path d="m123.957 109.691 17.057 30.227H76.159l17.056-30.227 15.308-27.12h.132l15.302 27.12Z" fill="#fff"/>
    <path d="m123.97 109.671-.013.02-15.302-27.12h30.603l-15.288 27.1ZM76.159 139.918h36.917c-13.256 0-25.905 5.364-35.617 15.097-9.515 9.541-14.979 22.381-14.979 35.241v-50.338H76.16Z" fill="#0009E7"/>
    <path d="M112.892 216.076v1.352h-1.584c-15.374-.527-27.753-12.49-28.386-27.396.482-14.991 11.475-27.33 25.694-29.587h.073a29.436 29.436 0 0 1 3.681-.224h.522v55.855Z" fill="red"/>
    <path d="M111.308 217.428H82.902v-26.367c0-.343.007-.686.02-1.029.633 14.906 13.012 26.869 28.386 27.396Z" fill="#FF8B9D"/>
    <path d="m93.202 109.671-15.288-27.1h30.609l-15.308 27.12-.013-.02ZM100.751 240.034l.059.145c-10.227 4.243-17.34 13.448-17.545 23.946a27.871 27.871 0 0 1-.363-4.5v-42.197l17.849 22.606Z" fill="#0009E7"/>
    <path d="M93.215 109.691 76.16 139.918H62.48v-30.227l.014-.02h30.708l.013.02Z" fill="red"/>
    <path d="m77.914 82.572 15.288 27.099H62.493l15.289-27.1h.132Z" fill="#fff"/>
    <path d="M77.782 82.572 62.494 109.67h-.014v-27.1h15.302Z" fill="#0009E7"/>
    <path d="M62.48 190.256v27.291H43.34c-20.257 0-28.888-16.727-32.563-31.197l2.045-2.296h49.66v6.202Z" fill="#FFB340"/>
    <path d="M62.48 139.918v44.136H12.821l-2.045 2.296a56.257 56.257 0 0 1-.251-1.009c-4.263-17.69-5.74-30.861-4.427-45.423H62.48Z" fill="red"/>
    <path d="M62.48 109.691v30.227L19.222 96.652h-.007a36.652 36.652 0 0 1 6.084-5.971c6.836-5.305 15.4-8.11 24.75-8.11H62.48v27.12Z" fill="#FFB340"/>
    <path d="m19.221 96.653 43.26 43.265H43.535c-16.12 0-29.19-12.544-29.19-28.01a27.003 27.003 0 0 1 4.03-14.206c.271-.357.549-.713.839-1.056h.006v.007Z" fill="#fff"/>
    <path d="M43.536 139.918H6.098c.699-7.694 2.17-15.783 4.427-25.133 1.564-6.526 4.23-12.3 7.852-17.083a27.003 27.003 0 0 0-4.031 14.206c0 15.466 13.07 28.01 29.19 28.01Z" fill="#0009E7"/>
    <path d="M36.503 192.718a8.657 8.657 0 1 0 0-17.314 8.657 8.657 0 0 0 0 17.314Z" fill="#fff"/>
    <path d="M53.823 192.718a8.657 8.657 0 1 0 0-17.314 8.657 8.657 0 0 0 0 17.314ZM19.182 192.718a8.657 8.657 0 1 0 0-17.314 8.657 8.657 0 0 0 0 17.314Z" fill="#fff"/>
    <path d="M45.166 177.535a8.657 8.657 0 1 0 0-17.314 8.657 8.657 0 0 0 0 17.314Z" fill="#fff"/>
    <path d="M27.846 177.535a8.657 8.657 0 1 0 0-17.314 8.657 8.657 0 0 0 0 17.314Z" fill="#fff"/>
</svg>
