<?xml version="1.0" encoding="UTF-8" standalone="no"?>
<!-- Created with Inkscape (http://www.inkscape.org/) -->

<svg
   width="285.71072mm"
   height="290.5376mm"
   viewBox="0 0 1012.3608 1029.4639"
   id="svg4980"
   version="1.1"
   inkscape:version="1.3.2 (091e20e, 2023-11-25)"
   inkscape:export-filename="/home/stuart/pyastro_logo.png"
   inkscape:export-xdpi="90"
   inkscape:export-ydpi="90"
   sodipodi:docname="helpy.svg"
   xml:space="preserve"
   xmlns:inkscape="http://www.inkscape.org/namespaces/inkscape"
   xmlns:sodipodi="http://sodipodi.sourceforge.net/DTD/sodipodi-0.dtd"
   xmlns="http://www.w3.org/2000/svg"
   xmlns:svg="http://www.w3.org/2000/svg"
   xmlns:rdf="http://www.w3.org/1999/02/22-rdf-syntax-ns#"
   xmlns:cc="http://creativecommons.org/ns#"
   xmlns:dc="http://purl.org/dc/elements/1.1/"><defs
     id="defs4982"><linearGradient
       id="swatch18"
       inkscape:swatch="solid"><stop
         style="stop-color:#000000;stop-opacity:1;"
         offset="0"
         id="stop18" /></linearGradient><linearGradient
       id="swatch6"><stop
         style="stop-color:#000000;stop-opacity:1;"
         offset="0"
         id="stop6" /></linearGradient><clipPath
       clipPathUnits="userSpaceOnUse"
       id="clipPath91"><path
         id="path91"
         d="M 65.2527,51.659687 C 60.018168,51.686308 55.019299,52.18223 50.620815,53.046163 37.663422,55.587255 35.310866,60.90599 35.310866,70.714642 v 12.954307 h 30.619897 v 4.318017 H 35.310866 23.819483 c -8.898996,0 -16.6912103,5.937496 -19.1285154,17.232774 -2.8114005,12.94683 -2.936107,21.02596 0,34.54465 2.1765749,10.0627 7.3745174,17.23264 16.2735134,17.23264 h 10.52782 v -15.52924 c 0,-11.21896 8.744459,-21.11496 19.128514,-21.11496 h 30.584209 c 8.513561,0 15.309952,-7.78136 15.309952,-17.27232 V 70.714642 c 0,-9.211441 -7.000447,-16.131147 -15.309952,-17.668479 C 75.94498,52.074223 70.487232,51.632685 65.2527,51.659687 Z M 48.693689,62.07848 c 3.162828,0 5.745691,2.914047 5.745691,6.496929 0,3.570332 -2.582863,6.457378 -5.745691,6.457378 -3.17417,0 -5.745693,-2.887046 -5.745693,-6.457378 0,-3.582882 2.571523,-6.496929 5.745693,-6.496929 z"
         style="display:inline;opacity:1;fill:none;fill-opacity:1;stroke:#002f6c;stroke-width:1.33694;stroke-miterlimit:4;stroke-dasharray:none;stroke-opacity:1"
         inkscape:connector-curvature="0"
         inkscape:label="upper-snake" /></clipPath><clipPath
       clipPathUnits="userSpaceOnUse"
       id="clipPath92"><path
         clip-path="none"
         inkscape:connector-curvature="0"
         style="display:inline;fill:none;fill-opacity:1;stroke:#002f6c;stroke-width:1.3369;stroke-miterlimit:4;stroke-dasharray:none;stroke-opacity:1"
         d="m 100.58731,89.113806 v 15.093544 c 0,11.70169 -8.937179,21.55079 -19.128511,21.55079 H 50.87459 c -8.377523,0 -15.309949,7.95921 -15.309949,17.27232 v 32.36573 c 0,9.21158 7.215836,14.62957 15.309949,17.27233 9.692538,3.16366 18.987179,3.73551 30.584209,0 7.708679,-2.47758 15.309951,-7.46367 15.309951,-17.27233 V 162.44202 H 66.184539 v -4.31815 H 96.76875 112.0787 c 8.89899,0 12.21513,-6.89042 15.30994,-17.23264 3.19683,-10.64723 3.06081,-20.88627 0,-34.54465 -2.19925,-9.834134 -6.39963,-17.232774 -15.30994,-17.232774 z M 83.385927,171.07818 c 3.174168,0 5.745692,2.88704 5.745692,6.45725 0,3.58301 -2.571535,6.49692 -5.745692,6.49692 -3.16283,0 -5.745693,-2.91391 -5.745693,-6.49692 0,-3.57021 2.582863,-6.45725 5.745693,-6.45725 z"
         id="path92"
         inkscape:label="lower-snake" /></clipPath></defs><sodipodi:namedview
     id="base"
     pagecolor="#000000"
     bordercolor="#666666"
     borderopacity="1.0"
     inkscape:pageopacity="0"
     inkscape:pageshadow="2"
     inkscape:zoom="0.7"
     inkscape:cx="531.42857"
     inkscape:cy="714.28571"
     inkscape:document-units="px"
     inkscape:current-layer="layer3"
     showgrid="false"
     fit-margin-top="0"
     fit-margin-left="0"
     fit-margin-right="0"
     fit-margin-bottom="0"
     inkscape:window-width="1472"
     inkscape:window-height="891"
     inkscape:window-x="0"
     inkscape:window-y="37"
     inkscape:window-maximized="0"
     inkscape:showpageshadow="2"
     inkscape:pagecheckerboard="0"
     inkscape:deskcolor="#d1d1d1" /><metadata
     id="metadata4985"><rdf:RDF><cc:Work
         rdf:about=""><dc:format>image/svg+xml</dc:format><dc:type
           rdf:resource="http://purl.org/dc/dcmitype/StillImage" /><dc:title /></cc:Work></rdf:RDF></metadata><g
     inkscape:groupmode="layer"
     id="layer3"
     inkscape:label="Layer 2"
     transform="translate(448.2389,456.2742)"
     style="display:inline"><g
       transform="matrix(7.880905,0,0,7.0995076,-463.27796,-818.02426)"
       stroke="#00337f"
       stroke-linecap="round"
       stroke-linejoin="round"
       stroke-miterlimit="3.864"
       id="g71"
       style="display:inline"
       inkscape:label="g37"
       clip-path="url(#clipPath92)"><path
         d="m 75.122082,196.16679 29.700078,-0.003 c 0,0 5.96328,0.003 3.36928,0.003 0,0 8.9966,-0.003 15.94514,-6.95177 7.04544,-7.04222 7.02607,-13.48036 7.02607,-16.04528 V 51.168121 H 1.130309 V 173.16974 c 0,2.56492 -0.01923,9.00306 7.02284,16.04528 6.948539,6.94853 15.945136,6.95177 15.945136,6.95177 h 3.353128 l 29.800221,-0.003 c 6.150638,0 8.909377,5.49164 8.909377,5.49164 0,0 2.758749,-5.49164 8.909391,-5.49164 z"
         fill="#0072c6"
         stroke-width="2.25804"
         id="path54" /><g
         stroke-width="1.97376"
         id="g56"><path
           d="m 101.18411,150.04218 c 11.42261,-9.85264 18.65543,-24.43133 18.65543,-40.69951 0,-1.1694 -0.0385,-2.3291 -0.10979,-3.47911 l -6.45753,3.23037 c 0.003,0.0806 0.0165,0.16474 0.0165,0.24871 0,1.50858 -0.0714,2.99779 -0.20997,4.46761 -6.16355,3.42743 -12.77613,6.1894 -19.672988,8.21162 l -0.003,6.91946 c -8.63802,2.53261 -17.77999,3.88937 -27.238534,3.88937 -9.455306,0 -18.603735,-1.37614 -27.241763,-3.90552 l -0.0065,-6.90655 c -6.913011,-2.02544 -13.502972,-4.80357 -19.679451,-8.23745 -0.138911,-1.46982 -0.232587,-2.93319 -0.232587,-4.43854 0,-0.0806 0.01282,-0.14862 0.01282,-0.22618 l -6.502751,-3.2756 c -0.07417,1.15648 -0.113088,2.32588 -0.113088,3.50173 0,16.27463 7.248961,30.86947 18.681267,40.72212 1.809006,-0.84958 3.711696,-1.57965 6.163558,-1.57965 5.869592,-0.003 8.58957,4.17688 14.459162,4.17365 5.856671,-0.003 8.570184,-4.16396 14.423632,-4.17365 5.876047,-0.0101 8.605725,4.15749 14.481775,4.15426 5.8599,-0.003 8.58311,-4.16072 14.44302,-4.15426 2.44862,0.003 4.32223,0.70747 6.131248,1.55704 z"
           fill="#ffc61e"
           id="path55" /><path
           d="m 111.68542,121.4708 c -13.564348,7.25219 -29.057238,11.36123 -45.51277,11.36123 -16.462002,0 -31.964573,-4.11549 -45.532157,-11.37092 m 87.898537,8.57019 c -12.792288,6.24754 -27.170688,9.75573 -42.36638,9.75573 -15.208614,0 -29.596708,-3.51464 -42.395454,-9.76865 m 78.326924,9.82357 c -11.109258,4.44823 -23.232868,6.89686 -35.93147,6.89686 -12.688917,0 -24.806055,-2.4454 -35.908866,-6.88716 m 10.3049,9.0935 c -12.973186,-8.39898 -21.5563,-22.99705 -21.5563,-39.60118 v -0.23909 m 94.288226,-0.0101 v 0.24871 c 0,16.61705 -8.59604,31.22482 -21.585378,39.62057"
           fill="none"
           id="path56" /></g><path
         d="m 1.129018,150.56131 c 2.151431,-1.04018 4.315782,-2.07713 7.242506,-2.07713 5.863127,0.003 8.579882,4.17365 14.439776,4.17365 5.863136,0.003 8.579882,-4.17042 14.443018,-4.17365 5.869592,-0.003 8.592802,4.1801 14.462394,4.17365 5.856671,-0.003 8.566961,-4.16396 14.423632,-4.17365 5.876048,-0.0101 8.605718,4.16073 14.481768,4.15426 5.85991,-0.003 8.57988,-4.16073 14.43979,-4.15426 5.856668,0.006 8.570178,4.17365 14.423628,4.17365 5.87928,0.003 8.42158,-4.19304 14.48177,-4.19304 3.10763,0 5.11046,1.0951 7.19406,2.16759 v 22.53834 c 0,2.56168 0.0192,9.00305 -7.02284,16.04527 -6.94854,6.94854 -15.94514,6.95178 -15.94514,6.95178 l -33.121048,-0.003 c -6.15064,-5.6e-4 -8.912612,5.49164 -8.912612,5.49164 0,0 -2.758739,-5.49164 -8.909377,-5.49164 l -33.153349,0.003 c 0,0 -8.996597,-0.003 -15.941904,-6.95178 C 1.109633,182.17377 1.129018,175.7324 1.129018,173.17072 Z"
         fill="#ffffff"
         stroke-width="2.25804"
         id="path57" /><g
         stroke-width="1.41168"
         id="g64"><path
           d="m 47.792507,83.008973 c 0,-1.7864 1.447205,-3.23361 3.233611,-3.23361 1.783165,0 3.233602,1.44721 3.233602,3.23361 0,1.7864 -1.450437,3.23361 -3.233602,3.23361 -1.786406,0 -3.233611,-1.44721 -3.233611,-3.23361 z"
           fill="#ffffff"
           id="path58" /><path
           d="m 84.51154,83.016733 c 0,-1.7864 -1.4472,-3.23361 -3.23361,-3.23361 -1.78316,0 -3.23037,1.44721 -3.23037,3.23361 0,1.78639 1.44721,3.23361 3.23037,3.23361 1.78641,0 3.23361,-1.44722 3.23361,-3.23361 z"
           fill="#ffffff"
           id="path59" /><path
           d="M 38.893139,92.605453 H 93.39282"
           fill="none"
           id="path60" /><path
           d="m 98.9649,81.084963 c 0.975578,-0.55564 1.63458,-1.6055 1.63458,-2.81043 0,-1.78639 1.45043,-3.20129 3.23683,-3.20129 0,-1.78641 -1.44721,-3.23685 -3.23361,-3.23685 -1.41168,0 -2.60691,0.90453 -3.04947,2.16759 -0.37471,-0.15503 -0.79465,-0.23909 -1.22754,-0.23909 -1.78318,0 -3.29823,1.51827 -3.23038,3.36281 0.40382,0.14542 0.98849,0.44256 1.2986,0.72679 0.30044,0.27783 0.55885,0.60729 0.7365,0.98204 -0.23579,0.19056 -0.4942,0.34568 -0.77532,0.46518 -0.38762,0.16473 -0.84638,0.26491 -1.29538,0.26491 -0.44256,0 -0.8625,-0.0907 -1.24693,-0.252 -0.39732,-0.16474 -0.7527,-0.40703 -1.0531,-0.71067 -0.29715,-0.30365 -0.53624,-0.66544 -0.70097,-1.06603 -0.29394,0.29073 -0.53623,0.64282 -0.70097,1.03049 -0.16803,0.39091 -0.2617,0.82376 -0.2617,1.27599 0,0.42644 0.0842,0.83017 0.23259,1.20493 -0.42645,0 -0.85609,0.0907 -1.23078,0.23909 -0.40061,0.16153 -0.74949,0.40382 -1.0531,0.70097 -0.29394,0.29073 -0.53303,0.62991 -0.70097,1.01757 0.16794,0.38761 0.40382,0.72038 0.70097,1.01433 0.30044,0.29724 0.66223,0.53623 1.06279,0.69456 0.3715,0.15182 0.77853,0.23579 1.20493,0.23579 -0.14862,0.3715 -0.23258,0.78494 -0.23258,1.21139 0,0.45227 0.0907,0.88191 0.2584,1.276 0.16804,0.38762 0.40703,0.7365 0.70427,1.03049 0.16153,-0.40382 0.40052,-0.76561 0.70096,-1.06603 0.29715,-0.30364 0.65573,-0.54594 1.04987,-0.71387 0.38441,-0.15833 0.82376,-0.24871 1.26631,-0.24871 0.44576,0 0.8722,0.0907 1.25985,0.25521 0.28753,0.12279 0.56535,0.29394 0.80435,0.49099 -1.3826,2.09006 -3.7537,3.4662 -6.44783,3.4662 -3.09147,0 -5.75653,-1.81225 -6.99053,-4.43207 h -0.83017 c -1.23401,2.61982 -3.9023,4.43207 -6.990536,4.43207 -2.694137,0 -5.065234,-1.37614 -6.447836,-3.4662 -0.126,-0.19385 -0.248704,-0.39411 -0.361792,-0.60088 0.03846,-0.0385 0.07417,-0.065 0.113088,-0.10017 0.02564,-0.0256 0.04212,-0.0549 0.06776,-0.0778 0.290734,-0.27132 0.649321,-0.5007 1.024024,-0.65252 0.368293,-0.14542 0.784936,-0.22618 1.204929,-0.22618 0.442557,0 0.881908,0.0906 1.266309,0.252 0.397321,0.16473 0.752703,0.40703 1.049874,0.71067 0.300441,0.30044 0.539438,0.66223 0.700967,1.06603 0.297143,-0.29074 0.536232,-0.64282 0.704171,-1.03049 0.167939,-0.39091 0.258409,-0.82376 0.258409,-1.27601 0,-0.42644 -0.08424,-0.83987 -0.232587,-1.21138 0.426441,0 0.83347,-0.0842 1.20493,-0.23259 0.40053,-0.16153 0.76232,-0.40062 1.0628,-0.69776 0.29714,-0.29394 0.53623,-0.6267 0.70096,-1.01434 -0.16473,-0.38762 -0.40702,-0.72679 -0.70096,-1.01757 -0.30365,-0.29715 -0.65253,-0.53944 -1.05311,-0.70097 -0.3715,-0.14862 -0.804351,-0.23909 -1.230773,-0.23909 0.148618,-0.3747 0.232588,-0.77852 0.232588,-1.20493 0,-0.45226 -0.09368,-0.88511 -0.25841,-1.27599 -0.168031,-0.38762 -0.410233,-0.7398 -0.704263,-1.03049 -0.161529,0.40052 -0.403822,0.76561 -0.700966,1.06601 -0.297236,0.30365 -0.655731,0.54594 -1.053098,0.71068 -0.177645,0.0778 -0.368293,0.13241 -0.562055,0.17444 -0.09368,0.0229 -0.151822,0.0385 -0.245498,0.0513 l -0.04487,-0.0513 c -0.164734,-0.38762 -0.261707,-0.84638 -0.261707,-1.29215 0,-0.44256 0.08699,-0.8657 0.248704,-1.25016 0.164734,-0.39732 0.410232,-0.7527 0.710672,-1.04986 0.303646,-0.30044 0.665438,-0.53944 1.066028,-0.70097 -0.290734,-0.29723 -0.64282,-0.53623 -1.030489,-0.70426 -0.390912,-0.16794 -0.820557,-0.26162 -1.275997,-0.26162 -0.42644,0 -0.830171,0.0842 -1.201706,0.2358 0,-0.42644 -0.09368,-0.85929 -0.242294,-1.23077 -0.161529,-0.40053 -0.400526,-0.75271 -0.700966,-1.05311 -0.290734,-0.29714 -0.639614,-0.53623 -1.027256,-0.70097 -0.387615,0.16474 -0.733291,0.40383 -1.027257,0.70097 -0.297235,0.30044 -0.536232,0.65252 -0.697761,1.05311 -0.151823,0.37149 -0.242294,0.80434 -0.242294,1.23077 -0.371498,-0.15183 -0.778526,-0.2358 -1.204929,-0.2358 -0.452263,0 -0.881908,0.0937 -1.272764,0.26162 -0.387615,0.16803 -0.739792,0.40703 -1.033722,0.70426 0.403823,0.16153 0.765615,0.40053 1.069251,0.70097 0.30044,0.29714 0.542733,0.65252 0.710672,1.04986 0.161529,0.38441 0.248704,0.80756 0.248704,1.25016 0,0.44576 -0.100178,0.90452 -0.261707,1.29215 l -0.02564,0.0513 c -0.09688,-0.0128 -0.190557,-0.0293 -0.284233,-0.0485 -0.193853,-0.0421 -0.364997,-0.10017 -0.545938,-0.17764 -0.394116,-0.16473 -0.752703,-0.40703 -1.049875,-0.71067 -0.30044,-0.30044 -0.539437,-0.66544 -0.700966,-1.06602 -0.297235,0.29073 -0.536232,0.64282 -0.704263,1.03049 -0.167938,0.39091 -0.261706,0.82376 -0.261706,1.27599 0,0.42644 0.08424,0.83018 0.235792,1.20493 -0.42644,0 -0.85929,0.0907 -1.230779,0.23909 -0.400526,0.16153 -0.752703,0.40382 -1.053098,0.70097 -0.297235,0.29073 -0.536232,0.62991 -0.704263,1.01757 0.168031,0.38761 0.407028,0.72038 0.700967,1.01434 0.303645,0.29715 0.665437,0.53623 1.062794,0.69776 0.374704,0.14862 0.781731,0.23259 1.208162,0.23259 -0.148617,0.3715 -0.235792,0.78494 -0.235792,1.21139 0,0.45226 0.09368,0.88511 0.261706,1.276 0.164734,0.38762 0.407028,0.73979 0.704263,1.03049 0.161529,-0.40382 0.400526,-0.76561 0.700966,-1.06603 0.297236,-0.30364 0.652526,-0.54594 1.049875,-0.71067 0.384409,-0.16153 0.823761,-0.252 1.263076,-0.252 0.419939,0 0.839877,0.0806 1.208162,0.22618 0.374703,0.15182 0.73329,0.3812 1.024033,0.65252 0.02289,0.0229 0.04212,0.0513 0.06776,0.0778 0.03571,0.0357 0.08699,0.0742 0.122795,0.11309 -0.109793,0.20026 -0.229383,0.39732 -0.355383,0.58797 -1.382602,2.09005 -3.753699,3.46619 -6.447827,3.46619 -3.088243,0 -5.75653,-1.81224 -6.990533,-4.43207 h -0.846379 c -1.237235,2.61983 -3.902299,4.43207 -6.990533,4.43207 -2.694137,0 -5.065235,-1.37614 -6.447837,-3.46619 0.239089,-0.19706 0.513615,-0.3683 0.801144,-0.491 0.387615,-0.16473 0.814055,-0.25521 1.263076,-0.25521 0.442557,0 0.878703,0.0907 1.263076,0.24871 0.397321,0.16794 0.752703,0.41023 1.053107,0.71388 0.297144,0.30044 0.539437,0.66223 0.700966,1.06602 0.293939,-0.29394 0.536232,-0.64282 0.704171,-1.03049 0.164734,-0.39411 0.25841,-0.82376 0.25841,-1.27599 0,-0.42644 -0.08424,-0.83988 -0.235792,-1.2114 0.42644,0 0.833468,-0.0842 1.208162,-0.23579 0.400526,-0.15832 0.759113,-0.39732 1.062785,-0.69456 0.293939,-0.29393 0.533028,-0.6267 0.700967,-1.01433 -0.167939,-0.38762 -0.407028,-0.72679 -0.704263,-1.01757 -0.30044,-0.29724 -0.652526,-0.53944 -1.053107,-0.70097 -0.371498,-0.14861 -0.801143,-0.23909 -1.227538,-0.23909 0.148618,-0.3747 0.232587,-0.77852 0.232587,-1.20492 0,-0.45227 -0.09367,-0.88512 -0.261706,-1.276 -0.167939,-0.38762 -0.407027,-0.73979 -0.704263,-1.03049 -0.161529,0.40053 -0.400526,0.76241 -0.700966,1.06603 -0.297144,0.30364 -0.652526,0.54594 -1.049874,0.71067 -0.38441,0.16153 -0.807554,0.252 -1.250156,0.252 -0.445761,0 -0.904526,-0.10018 -1.292149,-0.26491 -0.281028,-0.1195 -0.542734,-0.27462 -0.775321,-0.46518 0.177645,-0.3747 0.423144,-0.69135 0.723584,-0.96911 0.310146,-0.28424 0.68485,-0.52653 1.088636,-0.67194 0.07142,-0.0293 0.145412,-0.0485 0.219675,-0.0678 0.07143,-1.84455 -1.450437,-3.36282 -3.23361,-3.36282 -0.432851,0 -0.846379,0.0842 -1.224306,0.23909 -0.439351,-1.26308 -1.634574,-2.16759 -3.046248,-2.16759 -1.7864,0 -3.2336,1.45044 -3.2336,3.23685 1.78316,0 3.2336,1.4149 3.2336,3.20129 0,1.20493 0.659025,2.25481 1.637796,2.81043 l 2.590764,5.15891 c 0,0.0101 0,0.0192 -0.0032,0.032 -0.206764,1.98345 0.25841,3.88292 1.214627,5.46903 -0.507205,0.18415 -0.878703,0.68806 -0.878703,1.25985 0,0.56205 0.352085,1.04341 0.849584,1.234 -0.940037,0.52652 -1.560275,1.52474 -1.560275,2.67798 0,1.15647 0.633113,2.16112 1.573195,2.68768 -0.503908,0.18735 -0.8657,0.678337 -0.8657,1.246917 0,0.56855 0.358587,1.07248 0.862495,1.25662 l 58.075707,0.003 c 0.50391,-0.18735 0.8657,-0.67194 0.8657,-1.24047 0,-0.56855 -0.36499,-1.059557 -0.86899,-1.246917 0.94004,-0.52653 1.57319,-1.53443 1.57319,-2.68767 0,-1.15325 -0.6235,-2.15143 -1.56027,-2.68122 0.4975,-0.18735 0.84958,-0.66873 0.84958,-1.23077 0,-0.57176 -0.3715,-1.07571 -0.8787,-1.25985 0.9562,-1.58612 1.42137,-3.48558 1.21462,-5.46902 -0.003,-0.0128 -0.003,-0.0229 -0.003,-0.0357 z"
           fill="#ffc61e"
           id="path61" /><path
           d="m 99.60774,83.032233 c 0,-1.7864 -1.44721,-3.23361 -3.23361,-3.23361 -1.78317,0 -3.2336,1.44721 -3.2336,3.23361 0,1.7864 1.45043,3.23361 3.2336,3.23361 1.7864,0 3.23361,-1.44721 3.23361,-3.23361 z"
           fill="#ffffff"
           id="path62" /><path
           d="m 32.683063,83.032233 c 0,-1.7864 1.447205,-3.23361 3.233611,-3.23361 1.783165,0 3.230369,1.44721 3.230369,3.23361 0,1.7864 -1.447204,3.23361 -3.230369,3.23361 -1.786406,0 -3.233611,-1.44721 -3.233611,-3.23361 z"
           fill="#ffffff"
           id="path63" /><path
           d="m 77.964682,96.963233 c 0,-1.21462 1.46335,-2.19989 3.26914,-2.19989 1.80578,0 3.26914,0.98527 3.26914,2.19989 0,1.21461 -1.46336,2.19989 -3.26914,2.19989 -1.80579,0 -3.26914,-0.98528 -3.26914,-2.19989 z"
           fill="#0072c6"
           id="path64" /></g><g
         fill="#ffffff"
         id="g67"><path
           d="m 60.292121,96.983583 5.853711,2.61984 5.853176,-2.61984 -5.853176,-2.66506 z"
           stroke-width="1.412"
           style="paint-order:markers fill stroke"
           id="path65" /><path
           d="m 92.329967,98.961863 -4.42884,-1.97699 4.45468,-2.0319 c 0.65253,0.41994 1.08864,1.15324 1.08864,1.98991 0,0.85279 -0.43606,1.60549 -1.11448,2.01898 z"
           stroke-width="1.41168"
           id="path66" /><path
           d="m 39.984312,98.955533 4.406234,-1.97376 -4.454693,-2.02868 c -0.652526,0.41994 -1.088636,1.15325 -1.088636,1.98669 0,0.85608 0.458673,1.60226 1.137095,2.01575 z"
           stroke-width="1.41168"
           id="path67" /></g><g
         stroke-width="1.41168"
         id="g70"><path
           d="m 47.788634,96.963233 c 0,-1.21462 1.463357,-2.19989 3.26914,-2.19989 1.805782,0 3.269139,0.98527 3.269139,2.19989 0,1.21461 -1.463357,2.19989 -3.269139,2.19989 -1.805783,0 -3.26914,-0.98528 -3.26914,-2.19989 z"
           fill="#0072c6"
           id="path68" /><path
           d="m 62.909698,81.458073 c 0,-1.78639 1.447204,-3.23361 3.233611,-3.23361 1.783164,0 3.233601,1.44722 3.233601,3.23361 0,1.7864 -1.450437,3.23361 -3.233601,3.23361 -1.786407,0 -3.233611,-1.44721 -3.233611,-3.23361 z"
           fill="#ffffff"
           id="path69" /><path
           d="M 38.895991,92.605453 H 93.395674"
           fill="none"
           id="path70" /></g></g><g
       transform="matrix(7.880905,0,0,7.0995076,-463.27796,-818.02426)"
       stroke="#00337f"
       stroke-linecap="round"
       stroke-linejoin="round"
       stroke-miterlimit="3.864"
       id="g91"
       style="display:inline"
       inkscape:label="g37"
       clip-path="url(#clipPath91)"><path
         d="m 75.122082,196.16679 29.700078,-0.003 c 0,0 5.96328,0.003 3.36928,0.003 0,0 8.9966,-0.003 15.94514,-6.95177 7.04544,-7.04222 7.02607,-13.48036 7.02607,-16.04528 V 51.168121 H 1.130309 V 173.16974 c 0,2.56492 -0.01923,9.00306 7.02284,16.04528 6.948539,6.94853 15.945136,6.95177 15.945136,6.95177 h 3.353128 l 29.800221,-0.003 c 6.150638,0 8.909377,5.49164 8.909377,5.49164 0,0 2.758749,-5.49164 8.909391,-5.49164 z"
         fill="#0072c6"
         stroke-width="2.25804"
         id="path74" /><g
         stroke-width="1.97376"
         id="g76"><path
           d="m 101.18411,150.04218 c 11.42261,-9.85264 18.65543,-24.43133 18.65543,-40.69951 0,-1.1694 -0.0385,-2.3291 -0.10979,-3.47911 l -6.45753,3.23037 c 0.003,0.0806 0.0165,0.16474 0.0165,0.24871 0,1.50858 -0.0714,2.99779 -0.20997,4.46761 -6.16355,3.42743 -12.77613,6.1894 -19.672988,8.21162 l -0.003,6.91946 c -8.63802,2.53261 -17.77999,3.88937 -27.238534,3.88937 -9.455306,0 -18.603735,-1.37614 -27.241763,-3.90552 l -0.0065,-6.90655 c -6.913011,-2.02544 -13.502972,-4.80357 -19.679451,-8.23745 -0.138911,-1.46982 -0.232587,-2.93319 -0.232587,-4.43854 0,-0.0806 0.01282,-0.14862 0.01282,-0.22618 l -6.502751,-3.2756 c -0.07417,1.15648 -0.113088,2.32588 -0.113088,3.50173 0,16.27463 7.248961,30.86947 18.681267,40.72212 1.809006,-0.84958 3.711696,-1.57965 6.163558,-1.57965 5.869592,-0.003 8.58957,4.17688 14.459162,4.17365 5.856671,-0.003 8.570184,-4.16396 14.423632,-4.17365 5.876047,-0.0101 8.605725,4.15749 14.481775,4.15426 5.8599,-0.003 8.58311,-4.16072 14.44302,-4.15426 2.44862,0.003 4.32223,0.70747 6.131248,1.55704 z"
           fill="#ffc61e"
           id="path75" /><path
           d="m 111.68542,121.4708 c -13.564348,7.25219 -29.057238,11.36123 -45.51277,11.36123 -16.462002,0 -31.964573,-4.11549 -45.532157,-11.37092 m 87.898537,8.57019 c -12.792288,6.24754 -27.170688,9.75573 -42.36638,9.75573 -15.208614,0 -29.596708,-3.51464 -42.395454,-9.76865 m 78.326924,9.82357 c -11.109258,4.44823 -23.232868,6.89686 -35.93147,6.89686 -12.688917,0 -24.806055,-2.4454 -35.908866,-6.88716 m 10.3049,9.0935 c -12.973186,-8.39898 -21.5563,-22.99705 -21.5563,-39.60118 v -0.23909 m 94.288226,-0.0101 v 0.24871 c 0,16.61705 -8.59604,31.22482 -21.585378,39.62057"
           fill="none"
           id="path76" /></g><path
         d="m 1.129018,150.56131 c 2.151431,-1.04018 4.315782,-2.07713 7.242506,-2.07713 5.863127,0.003 8.579882,4.17365 14.439776,4.17365 5.863136,0.003 8.579882,-4.17042 14.443018,-4.17365 5.869592,-0.003 8.592802,4.1801 14.462394,4.17365 5.856671,-0.003 8.566961,-4.16396 14.423632,-4.17365 5.876048,-0.0101 8.605718,4.16073 14.481768,4.15426 5.85991,-0.003 8.57988,-4.16073 14.43979,-4.15426 5.856668,0.006 8.570178,4.17365 14.423628,4.17365 5.87928,0.003 8.42158,-4.19304 14.48177,-4.19304 3.10763,0 5.11046,1.0951 7.19406,2.16759 v 22.53834 c 0,2.56168 0.0192,9.00305 -7.02284,16.04527 -6.94854,6.94854 -15.94514,6.95178 -15.94514,6.95178 l -33.121048,-0.003 c -6.15064,-5.6e-4 -8.912612,5.49164 -8.912612,5.49164 0,0 -2.758739,-5.49164 -8.909377,-5.49164 l -33.153349,0.003 c 0,0 -8.996597,-0.003 -15.941904,-6.95178 C 1.109633,182.17377 1.129018,175.7324 1.129018,173.17072 Z"
         fill="#ffffff"
         stroke-width="2.25804"
         id="path77" /><g
         stroke-width="1.41168"
         id="g84"><path
           d="m 47.792507,83.008973 c 0,-1.7864 1.447205,-3.23361 3.233611,-3.23361 1.783165,0 3.233602,1.44721 3.233602,3.23361 0,1.7864 -1.450437,3.23361 -3.233602,3.23361 -1.786406,0 -3.233611,-1.44721 -3.233611,-3.23361 z"
           fill="#ffffff"
           id="path78" /><path
           d="m 84.51154,83.016733 c 0,-1.7864 -1.4472,-3.23361 -3.23361,-3.23361 -1.78316,0 -3.23037,1.44721 -3.23037,3.23361 0,1.78639 1.44721,3.23361 3.23037,3.23361 1.78641,0 3.23361,-1.44722 3.23361,-3.23361 z"
           fill="#ffffff"
           id="path79" /><path
           d="M 38.893139,92.605453 H 93.39282"
           fill="none"
           id="path80" /><path
           d="m 98.9649,81.084963 c 0.975578,-0.55564 1.63458,-1.6055 1.63458,-2.81043 0,-1.78639 1.45043,-3.20129 3.23683,-3.20129 0,-1.78641 -1.44721,-3.23685 -3.23361,-3.23685 -1.41168,0 -2.60691,0.90453 -3.04947,2.16759 -0.37471,-0.15503 -0.79465,-0.23909 -1.22754,-0.23909 -1.78318,0 -3.29823,1.51827 -3.23038,3.36281 0.40382,0.14542 0.98849,0.44256 1.2986,0.72679 0.30044,0.27783 0.55885,0.60729 0.7365,0.98204 -0.23579,0.19056 -0.4942,0.34568 -0.77532,0.46518 -0.38762,0.16473 -0.84638,0.26491 -1.29538,0.26491 -0.44256,0 -0.8625,-0.0907 -1.24693,-0.252 -0.39732,-0.16474 -0.7527,-0.40703 -1.0531,-0.71067 -0.29715,-0.30365 -0.53624,-0.66544 -0.70097,-1.06603 -0.29394,0.29073 -0.53623,0.64282 -0.70097,1.03049 -0.16803,0.39091 -0.2617,0.82376 -0.2617,1.27599 0,0.42644 0.0842,0.83017 0.23259,1.20493 -0.42645,0 -0.85609,0.0907 -1.23078,0.23909 -0.40061,0.16153 -0.74949,0.40382 -1.0531,0.70097 -0.29394,0.29073 -0.53303,0.62991 -0.70097,1.01757 0.16794,0.38761 0.40382,0.72038 0.70097,1.01433 0.30044,0.29724 0.66223,0.53623 1.06279,0.69456 0.3715,0.15182 0.77853,0.23579 1.20493,0.23579 -0.14862,0.3715 -0.23258,0.78494 -0.23258,1.21139 0,0.45227 0.0907,0.88191 0.2584,1.276 0.16804,0.38762 0.40703,0.7365 0.70427,1.03049 0.16153,-0.40382 0.40052,-0.76561 0.70096,-1.06603 0.29715,-0.30364 0.65573,-0.54594 1.04987,-0.71387 0.38441,-0.15833 0.82376,-0.24871 1.26631,-0.24871 0.44576,0 0.8722,0.0907 1.25985,0.25521 0.28753,0.12279 0.56535,0.29394 0.80435,0.49099 -1.3826,2.09006 -3.7537,3.4662 -6.44783,3.4662 -3.09147,0 -5.75653,-1.81225 -6.99053,-4.43207 h -0.83017 c -1.23401,2.61982 -3.9023,4.43207 -6.990536,4.43207 -2.694137,0 -5.065234,-1.37614 -6.447836,-3.4662 -0.126,-0.19385 -0.248704,-0.39411 -0.361792,-0.60088 0.03846,-0.0385 0.07417,-0.065 0.113088,-0.10017 0.02564,-0.0256 0.04212,-0.0549 0.06776,-0.0778 0.290734,-0.27132 0.649321,-0.5007 1.024024,-0.65252 0.368293,-0.14542 0.784936,-0.22618 1.204929,-0.22618 0.442557,0 0.881908,0.0906 1.266309,0.252 0.397321,0.16473 0.752703,0.40703 1.049874,0.71067 0.300441,0.30044 0.539438,0.66223 0.700967,1.06603 0.297143,-0.29074 0.536232,-0.64282 0.704171,-1.03049 0.167939,-0.39091 0.258409,-0.82376 0.258409,-1.27601 0,-0.42644 -0.08424,-0.83987 -0.232587,-1.21138 0.426441,0 0.83347,-0.0842 1.20493,-0.23259 0.40053,-0.16153 0.76232,-0.40062 1.0628,-0.69776 0.29714,-0.29394 0.53623,-0.6267 0.70096,-1.01434 -0.16473,-0.38762 -0.40702,-0.72679 -0.70096,-1.01757 -0.30365,-0.29715 -0.65253,-0.53944 -1.05311,-0.70097 -0.3715,-0.14862 -0.804351,-0.23909 -1.230773,-0.23909 0.148618,-0.3747 0.232588,-0.77852 0.232588,-1.20493 0,-0.45226 -0.09368,-0.88511 -0.25841,-1.27599 -0.168031,-0.38762 -0.410233,-0.7398 -0.704263,-1.03049 -0.161529,0.40052 -0.403822,0.76561 -0.700966,1.06601 -0.297236,0.30365 -0.655731,0.54594 -1.053098,0.71068 -0.177645,0.0778 -0.368293,0.13241 -0.562055,0.17444 -0.09368,0.0229 -0.151822,0.0385 -0.245498,0.0513 l -0.04487,-0.0513 c -0.164734,-0.38762 -0.261707,-0.84638 -0.261707,-1.29215 0,-0.44256 0.08699,-0.8657 0.248704,-1.25016 0.164734,-0.39732 0.410232,-0.7527 0.710672,-1.04986 0.303646,-0.30044 0.665438,-0.53944 1.066028,-0.70097 -0.290734,-0.29723 -0.64282,-0.53623 -1.030489,-0.70426 -0.390912,-0.16794 -0.820557,-0.26162 -1.275997,-0.26162 -0.42644,0 -0.830171,0.0842 -1.201706,0.2358 0,-0.42644 -0.09368,-0.85929 -0.242294,-1.23077 -0.161529,-0.40053 -0.400526,-0.75271 -0.700966,-1.05311 -0.290734,-0.29714 -0.639614,-0.53623 -1.027256,-0.70097 -0.387615,0.16474 -0.733291,0.40383 -1.027257,0.70097 -0.297235,0.30044 -0.536232,0.65252 -0.697761,1.05311 -0.151823,0.37149 -0.242294,0.80434 -0.242294,1.23077 -0.371498,-0.15183 -0.778526,-0.2358 -1.204929,-0.2358 -0.452263,0 -0.881908,0.0937 -1.272764,0.26162 -0.387615,0.16803 -0.739792,0.40703 -1.033722,0.70426 0.403823,0.16153 0.765615,0.40053 1.069251,0.70097 0.30044,0.29714 0.542733,0.65252 0.710672,1.04986 0.161529,0.38441 0.248704,0.80756 0.248704,1.25016 0,0.44576 -0.100178,0.90452 -0.261707,1.29215 l -0.02564,0.0513 c -0.09688,-0.0128 -0.190557,-0.0293 -0.284233,-0.0485 -0.193853,-0.0421 -0.364997,-0.10017 -0.545938,-0.17764 -0.394116,-0.16473 -0.752703,-0.40703 -1.049875,-0.71067 -0.30044,-0.30044 -0.539437,-0.66544 -0.700966,-1.06602 -0.297235,0.29073 -0.536232,0.64282 -0.704263,1.03049 -0.167938,0.39091 -0.261706,0.82376 -0.261706,1.27599 0,0.42644 0.08424,0.83018 0.235792,1.20493 -0.42644,0 -0.85929,0.0907 -1.230779,0.23909 -0.400526,0.16153 -0.752703,0.40382 -1.053098,0.70097 -0.297235,0.29073 -0.536232,0.62991 -0.704263,1.01757 0.168031,0.38761 0.407028,0.72038 0.700967,1.01434 0.303645,0.29715 0.665437,0.53623 1.062794,0.69776 0.374704,0.14862 0.781731,0.23259 1.208162,0.23259 -0.148617,0.3715 -0.235792,0.78494 -0.235792,1.21139 0,0.45226 0.09368,0.88511 0.261706,1.276 0.164734,0.38762 0.407028,0.73979 0.704263,1.03049 0.161529,-0.40382 0.400526,-0.76561 0.700966,-1.06603 0.297236,-0.30364 0.652526,-0.54594 1.049875,-0.71067 0.384409,-0.16153 0.823761,-0.252 1.263076,-0.252 0.419939,0 0.839877,0.0806 1.208162,0.22618 0.374703,0.15182 0.73329,0.3812 1.024033,0.65252 0.02289,0.0229 0.04212,0.0513 0.06776,0.0778 0.03571,0.0357 0.08699,0.0742 0.122795,0.11309 -0.109793,0.20026 -0.229383,0.39732 -0.355383,0.58797 -1.382602,2.09005 -3.753699,3.46619 -6.447827,3.46619 -3.088243,0 -5.75653,-1.81224 -6.990533,-4.43207 h -0.846379 c -1.237235,2.61983 -3.902299,4.43207 -6.990533,4.43207 -2.694137,0 -5.065235,-1.37614 -6.447837,-3.46619 0.239089,-0.19706 0.513615,-0.3683 0.801144,-0.491 0.387615,-0.16473 0.814055,-0.25521 1.263076,-0.25521 0.442557,0 0.878703,0.0907 1.263076,0.24871 0.397321,0.16794 0.752703,0.41023 1.053107,0.71388 0.297144,0.30044 0.539437,0.66223 0.700966,1.06602 0.293939,-0.29394 0.536232,-0.64282 0.704171,-1.03049 0.164734,-0.39411 0.25841,-0.82376 0.25841,-1.27599 0,-0.42644 -0.08424,-0.83988 -0.235792,-1.2114 0.42644,0 0.833468,-0.0842 1.208162,-0.23579 0.400526,-0.15832 0.759113,-0.39732 1.062785,-0.69456 0.293939,-0.29393 0.533028,-0.6267 0.700967,-1.01433 -0.167939,-0.38762 -0.407028,-0.72679 -0.704263,-1.01757 -0.30044,-0.29724 -0.652526,-0.53944 -1.053107,-0.70097 -0.371498,-0.14861 -0.801143,-0.23909 -1.227538,-0.23909 0.148618,-0.3747 0.232587,-0.77852 0.232587,-1.20492 0,-0.45227 -0.09367,-0.88512 -0.261706,-1.276 -0.167939,-0.38762 -0.407027,-0.73979 -0.704263,-1.03049 -0.161529,0.40053 -0.400526,0.76241 -0.700966,1.06603 -0.297144,0.30364 -0.652526,0.54594 -1.049874,0.71067 -0.38441,0.16153 -0.807554,0.252 -1.250156,0.252 -0.445761,0 -0.904526,-0.10018 -1.292149,-0.26491 -0.281028,-0.1195 -0.542734,-0.27462 -0.775321,-0.46518 0.177645,-0.3747 0.423144,-0.69135 0.723584,-0.96911 0.310146,-0.28424 0.68485,-0.52653 1.088636,-0.67194 0.07142,-0.0293 0.145412,-0.0485 0.219675,-0.0678 0.07143,-1.84455 -1.450437,-3.36282 -3.23361,-3.36282 -0.432851,0 -0.846379,0.0842 -1.224306,0.23909 -0.439351,-1.26308 -1.634574,-2.16759 -3.046248,-2.16759 -1.7864,0 -3.2336,1.45044 -3.2336,3.23685 1.78316,0 3.2336,1.4149 3.2336,3.20129 0,1.20493 0.659025,2.25481 1.637796,2.81043 l 2.590764,5.15891 c 0,0.0101 0,0.0192 -0.0032,0.032 -0.206764,1.98345 0.25841,3.88292 1.214627,5.46903 -0.507205,0.18415 -0.878703,0.68806 -0.878703,1.25985 0,0.56205 0.352085,1.04341 0.849584,1.234 -0.940037,0.52652 -1.560275,1.52474 -1.560275,2.67798 0,1.15647 0.633113,2.16112 1.573195,2.68768 -0.503908,0.18735 -0.8657,0.678337 -0.8657,1.246917 0,0.56855 0.358587,1.07248 0.862495,1.25662 l 58.075707,0.003 c 0.50391,-0.18735 0.8657,-0.67194 0.8657,-1.24047 0,-0.56855 -0.36499,-1.059557 -0.86899,-1.246917 0.94004,-0.52653 1.57319,-1.53443 1.57319,-2.68767 0,-1.15325 -0.6235,-2.15143 -1.56027,-2.68122 0.4975,-0.18735 0.84958,-0.66873 0.84958,-1.23077 0,-0.57176 -0.3715,-1.07571 -0.8787,-1.25985 0.9562,-1.58612 1.42137,-3.48558 1.21462,-5.46902 -0.003,-0.0128 -0.003,-0.0229 -0.003,-0.0357 z"
           fill="#ffc61e"
           id="path81" /><path
           d="m 99.60774,83.032233 c 0,-1.7864 -1.44721,-3.23361 -3.23361,-3.23361 -1.78317,0 -3.2336,1.44721 -3.2336,3.23361 0,1.7864 1.45043,3.23361 3.2336,3.23361 1.7864,0 3.23361,-1.44721 3.23361,-3.23361 z"
           fill="#ffffff"
           id="path82" /><path
           d="m 32.683063,83.032233 c 0,-1.7864 1.447205,-3.23361 3.233611,-3.23361 1.783165,0 3.230369,1.44721 3.230369,3.23361 0,1.7864 -1.447204,3.23361 -3.230369,3.23361 -1.786406,0 -3.233611,-1.44721 -3.233611,-3.23361 z"
           fill="#ffffff"
           id="path83" /><path
           d="m 77.964682,96.963233 c 0,-1.21462 1.46335,-2.19989 3.26914,-2.19989 1.80578,0 3.26914,0.98527 3.26914,2.19989 0,1.21461 -1.46336,2.19989 -3.26914,2.19989 -1.80579,0 -3.26914,-0.98528 -3.26914,-2.19989 z"
           fill="#0072c6"
           id="path84" /></g><g
         fill="#ffffff"
         id="g87"><path
           d="m 60.292121,96.983583 5.853711,2.61984 5.853176,-2.61984 -5.853176,-2.66506 z"
           stroke-width="1.412"
           style="paint-order:markers fill stroke"
           id="path85" /><path
           d="m 92.329967,98.961863 -4.42884,-1.97699 4.45468,-2.0319 c 0.65253,0.41994 1.08864,1.15324 1.08864,1.98991 0,0.85279 -0.43606,1.60549 -1.11448,2.01898 z"
           stroke-width="1.41168"
           id="path86" /><path
           d="m 39.984312,98.955533 4.406234,-1.97376 -4.454693,-2.02868 c -0.652526,0.41994 -1.088636,1.15325 -1.088636,1.98669 0,0.85608 0.458673,1.60226 1.137095,2.01575 z"
           stroke-width="1.41168"
           id="path87" /></g><g
         stroke-width="1.41168"
         id="g90"><path
           d="m 47.788634,96.963233 c 0,-1.21462 1.463357,-2.19989 3.26914,-2.19989 1.805782,0 3.269139,0.98527 3.269139,2.19989 0,1.21461 -1.463357,2.19989 -3.269139,2.19989 -1.805783,0 -3.26914,-0.98528 -3.26914,-2.19989 z"
           fill="#0072c6"
           id="path88" /><path
           d="m 62.909698,81.458073 c 0,-1.78639 1.447204,-3.23361 3.233611,-3.23361 1.783164,0 3.233601,1.44722 3.233601,3.23361 0,1.7864 -1.450437,3.23361 -3.233601,3.23361 -1.786407,0 -3.233611,-1.44721 -3.233611,-3.23361 z"
           fill="#ffffff"
           id="path89" /><path
           d="M 38.895991,92.605453 H 93.395674"
           fill="none"
           id="path90" /></g></g><path
       id="path13"
       d="m 50.972374,-451.26592 c -41.25285,0.189 -80.64846,3.7098 -115.3125,9.8433 -102.115984,18.0405 -120.656254,55.8009 -120.656254,125.4375 v 91.9692 H 56.316124 v 30.6558 h -241.312504 -90.5625 c -70.13214,0 -131.54184,42.1533 -150.75001,122.344201 -22.15638,91.9161 -23.13918,149.274 0,245.249999 17.15338,71.4402 58.11787,122.3433 128.25001,122.3433 h 82.96875 v -110.25 c 0,-79.6491 68.91426,-149.905799 150.750004,-149.905799 H 176.69112 c 67.09457,0 120.65627,-55.2438 120.65627,-122.625 V -315.98512 c 0,-65.3967 -55.16985,-114.5232 -120.65627,-125.4375 -41.45391,-6.9003 -84.465896,-10.035 -125.718746,-9.8433 z m -130.5,73.9683 c 24.92595,0 45.28125,20.6883 45.28125,46.125 0,25.3476 -20.3553,45.8442 -45.28125,45.8442 -25.015324,0 -45.281254,-20.4966 -45.281254,-45.8442 0,-25.4367 20.26593,-46.125 45.281254,-46.125 z"
       style="display:inline;fill:none;fill-opacity:1;stroke:#002f6c;stroke-width:10.0003122;stroke-miterlimit:4;stroke-dasharray:none;stroke-opacity:1;opacity:1"
       inkscape:connector-curvature="0"
       inkscape:label="upper-snake" /><path
       clip-path="none"
       inkscape:connector-curvature="0"
       style="display:inline;fill:none;fill-opacity:1;stroke:#002f6c;stroke-width:10;stroke-miterlimit:4;stroke-dasharray:none;stroke-opacity:1"
       d="m 329.44111,-185.36012 v 107.156701 c 0,83.0762999 -70.4331,153 -150.75001,153 H -62.34015 c -66.02247,0 -120.65625,56.506499 -120.65625,122.624999 v 229.78077 c 0,65.3976 56.86731,103.8627 120.65625,122.625 76.38597,22.4604 149.63616,26.5203 241.03125,0 60.75136,-17.5896 120.65626,-52.9884 120.65626,-122.625 V 335.23408 H 58.3161 v -30.6567 h 241.03126 120.65625 c 70.13214,0 96.26625,-48.9186 120.65616,-122.3433 25.19397,-75.5901 24.12198,-148.282199 0,-245.249999 C 523.32775,-132.83342 490.22494,-185.36012 420.00361,-185.36012 Z m -135.5625,581.90667 c 25.01532,0 45.28125,20.4966 45.28125,45.8433 0,25.4376 -20.26602,46.125 -45.28125,46.125 -24.92596,0 -45.28126,-20.6874 -45.28126,-46.125 0,-25.3467 20.3553,-45.8433 45.28126,-45.8433 z"
       id="path71"
       inkscape:label="lower-snake" /></g></svg>
