<svg xmlns="http://www.w3.org/2000/svg" xmlns:svg="http://www.w3.org/2000/svg" id="svg54" width="72.054" height="93.187" version="1.1" viewBox="0 0 19.064 24.655"><defs id="defs12"><linearGradient id="linearGradient2249-4" x1="72.578" x2="19.493" y1="74.007" y2="13.807" gradientUnits="userSpaceOnUse"><stop id="stop2" offset="0" stop-color="#eb6e64"/><stop id="stop4" offset="1" stop-color="#eb6e64" stop-opacity="0"/></linearGradient><linearGradient id="linearGradient2251-3" x1="34.291" x2="61.104" y1="31.648" y2="92.898" gradientUnits="userSpaceOnUse"><stop id="stop7" offset="0" stop-color="#e2964f"/><stop id="stop9" offset="1" stop-color="#e2964f" stop-opacity="0"/></linearGradient></defs><metadata id="metadata14"/><g id="g3816" transform="matrix(2.2396355,0,0,2.2396355,63.729669,24.485733)"><g id="g48" transform="matrix(0.11660355,0,0,0.11909552,15.664845,-52.809528)"><g id="g32" transform="matrix(0.65671,0,0,0.65671,-382.05,366.05)"><path style="fill:#e2964f" id="path22" d="M 60.51,6.398 C 55.9263,6.419298 51.5491,6.81022 47.698,7.4918 36.352,9.4963 34.292,13.6919 34.292,21.4298 v 10.219 H 61.104 V 35.055 H 24.229 c -7.7925,0 -14.616,4.6837 -16.75,13.594 -2.4618,10.213 -2.571,16.586 0,27.25 1.9059,7.9379 6.4575,13.594 14.25,13.594 h 9.2188 v -12.25 c 0,-8.8499 7.6571,-16.656 16.75,-16.656 h 26.781 c 7.455,0 13.406,-6.1382 13.406,-13.625 V 21.431 c 0,-7.2663 -6.13,-12.725 -13.406,-13.938 -4.606,-0.76673 -9.3851,-1.115 -13.969,-1.0938 z m -14.5,8.2188 c 2.7695,0 5.0312,2.2986 5.0312,5.125 -2e-6,2.8163 -2.2617,5.0938 -5.0312,5.0938 -2.7795,-1e-6 -5.0312,-2.2774 -5.0312,-5.0938 -10e-7,-2.8264 2.2518,-5.125 5.0312,-5.125 z"/><path style="fill:#eb6e64" id="path24" d="M 91.229,35.054 V 46.96 c 0,9.2308 -7.8259,17 -16.75,17 H 47.698 c -7.3358,0 -13.406,6.2785 -13.406,13.625 v 25.531 c 0,7.2663 6.3186,11.54 13.406,13.625 8.4873,2.4956 16.626,2.9466 26.781,0 6.7502,-1.9544 13.406,-5.8876 13.406,-13.625 V 92.897 H 61.104 v -3.4062 h 40.188 c 7.7925,0 10.696,-5.4354 13.406,-13.594 2.7993,-8.3989 2.6802,-16.476 0,-27.25 -1.9258,-7.7574 -5.6039,-13.594 -13.406,-13.594 z M 76.167,99.71 c 2.7795,3e-6 5.0312,2.2774 5.0312,5.0937 -2e-6,2.8264 -2.2518,5.125 -5.0312,5.125 -2.7696,0 -5.0312,-2.2986 -5.0312,-5.125 2e-6,-2.8163 2.2617,-5.0937 5.0312,-5.0937 z"/><path style="fill:#e2964f" id="path26" d="M 60.51,6.398 C 55.9263,6.419298 51.5491,6.81022 47.698,7.4918 36.352,9.4963 34.292,13.6919 34.292,21.4298 v 10.219 H 61.104 V 35.055 H 24.229 c -7.7925,0 -14.616,4.6837 -16.75,13.594 -2.4618,10.213 -2.571,16.586 0,27.25 1.9059,7.9379 6.4575,13.594 14.25,13.594 h 9.2188 v -12.25 c 0,-8.8499 7.6571,-16.656 16.75,-16.656 h 26.781 c 7.455,0 13.406,-6.1382 13.406,-13.625 V 21.431 c 0,-7.2663 -6.13,-12.725 -13.406,-13.938 -4.606,-0.76673 -9.3851,-1.115 -13.969,-1.0938 z m -14.5,8.2188 c 2.7695,0 5.0312,2.2986 5.0312,5.125 -2e-6,2.8163 -2.2617,5.0938 -5.0312,5.0938 -2.7795,-1e-6 -5.0312,-2.2774 -5.0312,-5.0938 -10e-7,-2.8264 2.2518,-5.125 5.0312,-5.125 z"/><path style="fill:url(#linearGradient2249-4)" id="path28" d="M 60.51,6.398 C 55.9263,6.419298 51.5491,6.81022 47.698,7.4918 36.352,9.4963 34.292,13.6919 34.292,21.4298 v 10.219 H 61.104 V 35.055 H 24.229 c -7.7925,0 -14.616,4.6837 -16.75,13.594 -2.4618,10.213 -2.571,16.586 0,27.25 1.9059,7.9379 6.4575,13.594 14.25,13.594 h 9.2188 v -12.25 c 0,-8.8499 7.6571,-16.656 16.75,-16.656 h 26.781 c 7.455,0 13.406,-6.1382 13.406,-13.625 V 21.431 c 0,-7.2663 -6.13,-12.725 -13.406,-13.938 -4.606,-0.76673 -9.3851,-1.115 -13.969,-1.0938 z m -14.5,8.2188 c 2.7695,0 5.0312,2.2986 5.0312,5.125 -2e-6,2.8163 -2.2617,5.0938 -5.0312,5.0938 -2.7795,-1e-6 -5.0312,-2.2774 -5.0312,-5.0938 -10e-7,-2.8264 2.2518,-5.125 5.0312,-5.125 z"/><path style="fill:url(#linearGradient2251-3)" id="path30" d="M 91.229,35.054 V 46.96 c 0,9.2308 -7.8259,17 -16.75,17 H 47.698 c -7.3358,0 -13.406,6.2785 -13.406,13.625 v 25.531 c 0,7.2663 6.3186,11.54 13.406,13.625 8.4873,2.4956 16.626,2.9466 26.781,0 6.7502,-1.9544 13.406,-5.8876 13.406,-13.625 V 92.897 H 61.104 v -3.4062 h 40.188 c 7.7925,0 10.696,-5.4354 13.406,-13.594 2.7993,-8.3989 2.6802,-16.476 0,-27.25 -1.9258,-7.7574 -5.6039,-13.594 -13.406,-13.594 z M 76.167,99.71 c 2.7795,3e-6 5.0312,2.2774 5.0312,5.0937 -2e-6,2.8264 -2.2518,5.125 -5.0312,5.125 -2.7696,0 -5.0312,-2.2986 -5.0312,-5.125 2e-6,-2.8163 2.2617,-5.0937 5.0312,-5.0937 z"/></g><g id="g46" transform="translate(1.4376,-1.4376)"><g id="g38" transform="matrix(-1.8546,0,0,1.8546,-881.58,254.26)"><g id="g36" transform="matrix(0.36809,0,0,0.36809,-173.78,-69.414)"><path style="fill:#94d272" id="path34" d="m -331.27,341.23 c -1.079,0.0747 -1.4361,0.57053 -1.3577,1.8848 0.10253,1.7183 1.2796,3.491 3.8147,5.745 1.8368,1.6332 11.812,9.4307 11.995,9.376 0.25777,-0.0773 -0.91183,-3.5853 -1.7079,-5.1224 -2.173,-4.1958 -6.1138,-8.496 -9.8635,-10.763 -1.7216,-1.041 -2.0695,-1.1764 -2.8806,-1.1201 z"/></g></g><g id="g44" transform="matrix(2.7167,0,0,2.7167,445.9,200.42)"><g id="g42" transform="matrix(0.36809,0,0,0.36809,-173.78,-69.414)"><path style="fill:#94d272" id="path40" d="m -331.27,341.23 c -1.079,0.0747 -1.4361,0.57053 -1.3577,1.8848 0.10253,1.7183 1.2796,3.491 3.8147,5.745 1.8368,1.6332 11.812,9.4307 11.995,9.376 0.25777,-0.0773 -0.91183,-3.5853 -1.7079,-5.1224 -2.173,-4.1958 -6.1138,-8.496 -9.8635,-10.763 -1.7216,-1.041 -2.0695,-1.1764 -2.8806,-1.1201 z"/></g></g></g></g></g></svg>