<?xml version="1.0" encoding="UTF-8" standalone="no"?>
<svg
   xmlns:dc="http://purl.org/dc/elements/1.1/"
   xmlns:cc="http://creativecommons.org/ns#"
   xmlns:rdf="http://www.w3.org/1999/02/22-rdf-syntax-ns#"
   xmlns:svg="http://www.w3.org/2000/svg"
   xmlns="http://www.w3.org/2000/svg"
   xmlns:xlink="http://www.w3.org/1999/xlink"
   width="600"
   height="600"
   viewBox="0 0 600 600"
   id="svg3536"
   version="1.1">
  <defs
     id="defs3538">
    <linearGradient
       id="linearGradient2795">
      <stop
         style="stop-color:#b8b8b8;stop-opacity:0.49803922;"
         offset="0"
         id="stop2797" />
      <stop
         style="stop-color:#7f7f7f;stop-opacity:0;"
         offset="1"
         id="stop2799" />
    </linearGradient>
    <linearGradient
       id="linearGradient4671">
      <stop
         style="stop-color:#ffd43b;stop-opacity:1;"
         offset="0"
         id="stop4673" />
      <stop
         style="stop-color:#ffe873;stop-opacity:1"
         offset="1"
         id="stop4675" />
    </linearGradient>
    <linearGradient
       id="linearGradient4689">
      <stop
         style="stop-color:#5a9fd4;stop-opacity:1;"
         offset="0"
         id="stop4691" />
      <stop
         style="stop-color:#306998;stop-opacity:1;"
         offset="1"
         id="stop4693" />
    </linearGradient>
    <linearGradient
       xlink:href="#linearGradient4671"
       id="linearGradient1475"
       gradientUnits="userSpaceOnUse"
       gradientTransform="matrix(0.31035475,0,0,0.31335103,61.296427,804.30126)"
       x1="150.96111"
       y1="192.35176"
       x2="112.03144"
       y2="137.27299" />
    <linearGradient
       xlink:href="#linearGradient4689"
       id="linearGradient1478"
       gradientUnits="userSpaceOnUse"
       gradientTransform="matrix(0.31035475,0,0,0.31335103,61.296427,804.30126)"
       x1="26.648937"
       y1="20.603781"
       x2="135.66525"
       y2="114.39767" />
  </defs>
  <metadata
     id="metadata3541">
    <rdf:RDF>
      <cc:Work
         rdf:about="">
        <dc:format>image/svg+xml</dc:format>
        <dc:type
           rdf:resource="http://purl.org/dc/dcmitype/StillImage" />
        <dc:title></dc:title>
      </cc:Work>
    </rdf:RDF>
  </metadata>
  <g
     id="layer1"
     transform="matrix(10,0,0,10,-0.96428072,-9924.4187)">
    <g
       transform="matrix(2.9737675,0,0,2.9737675,-98.670453,-1650.8365)"
       style="clip-rule:evenodd;fill-rule:evenodd;stroke-linecap:square;stroke-miterlimit:1.41420996"
       id="g104">
      <g
         id="g4173"
         transform="matrix(0.15,0,0,0.15,28.246477,772.65636)">
        <g
           id="Layer41">
          <path
             id="path107"
             style="fill:none;stroke:#3e7aab;stroke-width:2.50950551px"
             d="m 100.387,808.47 c 33.926,0 61.47,19.654 61.47,33.53 0,13.038 -27.544,33.53 -61.47,33.53 -33.927,0 -61.471,-20.764 -61.471,-33.53 0,-12.113 27.544,-33.53 61.471,-33.53 z" />
          <path
             id="path109"
             style="fill:none;stroke:#3e7aab;stroke-width:2.50950551px"
             d="m 91.709,809.613 c 32.77,-8.781 64.462,3.074 68.054,16.477 3.374,12.594 -17.928,39.516 -50.698,48.297 -32.771,8.781 -64.751,-4.146 -68.055,-16.477 -3.135,-11.7 17.928,-39.516 50.699,-48.297 z" />
          <path
             id="path111"
             style="fill:none;stroke:#3e7aab;stroke-width:2.50950551px"
             d="m 83.622,812.963 c 29.381,-16.964 63.062,-13.716 70,-1.698 6.519,11.291 -7.089,42.809 -36.471,59.772 -29.381,16.964 -63.617,12.754 -70,1.698 -6.056,-10.489 7.09,-42.809 36.471,-59.772 z" />
          <path
             id="path113"
             style="fill:none;stroke:#3e7aab;stroke-width:2.50950551px"
             d="m 76.678,818.291 c 23.989,-23.99 57.363,-29.569 67.175,-19.757 9.22,9.219 4.232,43.185 -19.757,67.175 -23.99,23.99 -58.149,28.784 -67.176,19.757 -8.565,-8.565 -4.232,-43.185 19.758,-67.175 z" />
          <path
             id="path115"
             style="fill:none;stroke:#3e7aab;stroke-width:2.50950551px"
             d="m 71.349,825.235 c 16.964,-29.381 47.756,-43.408 59.773,-36.47 11.292,6.519 15.265,40.618 -1.698,70 -16.963,29.381 -48.717,42.853 -59.773,36.47 -10.49,-6.056 -15.265,-40.618 1.698,-70 z" />
          <path
             id="path117"
             style="fill:none;stroke:#3e7aab;stroke-width:2.50950551px"
             d="m 68,833.322 c 8.78,-32.771 34.893,-54.29 48.296,-50.698 12.595,3.374 25.258,35.283 16.478,68.054 -8.781,32.771 -35.966,54.002 -48.297,50.698 C 72.777,898.241 59.219,866.093 68,833.322 Z" />
          <path
             id="path119"
             style="fill:none;stroke:#3e7aab;stroke-width:2.50950551px"
             d="m 66.857,842 c 0,-33.927 19.653,-61.471 33.53,-61.471 13.038,0 33.529,27.544 33.529,61.471 0,33.927 -20.763,61.471 -33.529,61.471 -12.113,0 -33.53,-27.544 -33.53,-61.471 z" />
          <path
             id="path121"
             style="fill:none;stroke:#3e7aab;stroke-width:2.50950551px"
             d="m 68,850.678 c -8.781,-32.771 3.073,-64.463 16.477,-68.054 12.594,-3.375 39.516,17.927 48.297,50.698 8.78,32.771 -4.147,64.75 -16.478,68.054 C 104.597,904.511 76.78,883.449 68,850.678 Z" />
          <path
             id="path123"
             style="fill:none;stroke:#3e7aab;stroke-width:2.50950551px"
             d="m 71.349,858.765 c -16.963,-29.382 -13.715,-63.062 -1.698,-70 11.292,-6.519 42.81,7.089 59.773,36.47 16.963,29.382 12.754,63.617 1.698,70 -10.49,6.057 -42.809,-7.089 -59.773,-36.47 z" />
          <path
             id="path125"
             style="fill:none;stroke:#3e7aab;stroke-width:2.50950551px"
             d="m 76.678,865.709 c -23.99,-23.99 -29.57,-57.363 -19.758,-67.175 9.22,-9.22 43.186,-4.233 67.176,19.757 23.989,23.99 28.784,58.148 19.757,67.175 -8.565,8.565 -43.186,4.233 -67.175,-19.757 z" />
          <path
             id="path127"
             style="fill:none;stroke:#3e7aab;stroke-width:2.50950551px"
             d="M 83.622,871.037 C 54.241,854.074 40.213,823.282 47.151,811.265 c 6.52,-11.292 40.619,-15.266 70,1.698 29.382,16.963 42.854,48.717 36.471,59.772 -6.056,10.49 -40.619,15.266 -70,-1.698 z" />
          <path
             id="path129"
             style="fill:none;stroke:#3e7aab;stroke-width:2.50950551px"
             d="M 91.709,874.387 C 58.938,865.606 37.419,839.494 41.01,826.09 c 3.375,-12.594 35.284,-25.258 68.055,-16.477 32.77,8.781 54.002,35.966 50.698,48.297 -3.135,11.7 -35.284,25.258 -68.054,16.477 z" />
          <path
             id="path131"
             style="fill:none;stroke:#3e7aab;stroke-width:2.50950551px"
             d="m 100.387,875.53 c -33.927,0 -61.471,-19.654 -61.471,-33.53 0,-13.038 27.544,-33.53 61.471,-33.53 33.926,0 61.47,20.764 61.47,33.53 0,12.113 -27.544,33.53 -61.47,33.53 z" />
        </g>
        <path
           id="path133"
           style="fill:none;stroke:#ffe467;stroke-width:2.50950551px"
           d="m 108.334,901.181 c -2.806,1.832 -5.52,2.819 -7.947,2.819 -2.286,0 -4.901,-0.973 -7.641,-2.778 -3.185,1.042 -6.062,1.294 -8.406,0.665 -2.208,-0.591 -4.482,-2.208 -6.662,-4.661 -3.345,0.183 -6.189,-0.319 -8.291,-1.532 -1.98,-1.143 -3.758,-3.293 -5.228,-6.227 -3.28,-0.689 -5.897,-1.91 -7.613,-3.626 -1.617,-1.617 -2.778,-4.154 -3.438,-7.368 -2.989,-1.514 -5.201,-3.371 -6.415,-5.473 -1.143,-1.98 -1.608,-4.731 -1.414,-8.006 -2.496,-2.237 -4.152,-4.603 -4.78,-6.947 -0.574,-2.143 -0.343,-4.822 0.617,-7.825 -1.774,-2.832 -2.729,-5.627 -2.729,-8.222 0,-2.356 0.891,-4.952 2.551,-7.628 -0.92,-3.106 -1.094,-5.972 -0.439,-8.419 0.61,-2.275 2.143,-4.553 4.439,-6.708 -0.085,-3.238 0.489,-6.052 1.755,-8.245 1.178,-2.04 3.248,-3.843 6.024,-5.33 0.756,-3.151 2.038,-5.72 3.829,-7.511 1.666,-1.665 4.132,-2.871 7.198,-3.589 1.546,-2.848 3.449,-4.997 5.643,-6.264 2.04,-1.177 4.734,-1.704 7.882,-1.604 2.229,-2.35 4.624,-3.934 7.071,-4.589 2.275,-0.61 5.014,-0.421 8.028,0.49 2.762,-1.693 5.486,-2.603 8.019,-2.603 2.355,0 4.952,0.891 7.628,2.551 3.106,-0.92 5.972,-1.094 8.418,-0.438 2.276,0.609 4.553,2.142 6.708,4.438 3.239,-0.085 6.052,0.489 8.246,1.755 2.04,1.178 3.843,3.248 5.33,6.024 3.15,0.756 5.719,2.039 7.51,3.829 1.666,1.666 2.872,4.132 3.59,7.198 2.847,1.546 4.997,3.45 6.263,5.643 1.178,2.04 1.704,4.734 1.605,7.882 2.35,2.23 3.934,4.625 4.589,7.071 0.61,2.276 0.421,5.014 -0.49,8.029 1.693,2.762 2.603,5.485 2.603,8.018 0,2.427 -0.946,5.11 -2.705,7.871 0.981,3.093 1.205,5.888 0.592,8.176 -0.592,2.208 -2.208,4.482 -4.661,6.661 0.183,3.346 -0.319,6.19 -1.533,8.292 -1.143,1.98 -3.293,3.758 -6.226,5.228 -0.69,3.279 -1.91,5.896 -3.627,7.613 -1.616,1.616 -4.153,2.777 -7.367,3.438 -1.515,2.989 -3.371,5.201 -5.473,6.415 -1.98,1.143 -4.731,1.608 -8.007,1.414 -2.236,2.495 -4.602,4.151 -6.947,4.779 -2.208,0.592 -4.985,0.329 -8.099,-0.706 z" />
        <path
           id="path135"
           style="fill:none;stroke:#3e7aab;stroke-width:2.50950551px"
           d="m 108.59,903.09 c -2.896,1.891 -5.698,2.91 -8.203,2.91 -2.36,0 -5.059,-1.004 -7.888,-2.868 -3.287,1.076 -6.257,1.336 -8.677,0.687 -2.279,-0.611 -4.626,-2.279 -6.876,-4.812 -3.454,0.19 -6.39,-0.329 -8.559,-1.581 -2.044,-1.18 -3.879,-3.399 -5.397,-6.428 -3.385,-0.711 -6.087,-1.972 -7.858,-3.743 -1.669,-1.669 -2.867,-4.287 -3.549,-7.605 -3.086,-1.564 -5.369,-3.48 -6.622,-5.65 -1.18,-2.044 -1.66,-4.883 -1.46,-8.265 -2.576,-2.308 -4.285,-4.75 -4.934,-7.171 -0.592,-2.212 -0.354,-4.977 0.637,-8.077 -1.832,-2.923 -2.817,-5.808 -2.817,-8.487 0,-2.432 0.92,-5.112 2.633,-7.874 -0.95,-3.207 -1.129,-6.165 -0.453,-8.69 0.63,-2.349 2.212,-4.7 4.582,-6.925 -0.088,-3.343 0.505,-6.247 1.812,-8.511 1.216,-2.106 3.353,-3.967 6.218,-5.502 0.78,-3.252 2.104,-5.904 3.953,-7.753 1.719,-1.719 4.265,-2.964 7.43,-3.705 1.595,-2.94 3.561,-5.158 5.825,-6.466 2.105,-1.215 4.887,-1.759 8.136,-1.656 2.301,-2.426 4.774,-4.061 7.299,-4.737 2.349,-0.63 5.176,-0.435 8.288,0.506 2.851,-1.748 5.662,-2.687 8.277,-2.687 2.431,0 5.112,0.92 7.874,2.634 3.206,-0.95 6.165,-1.13 8.69,-0.453 2.349,0.629 4.7,2.212 6.924,4.582 3.343,-0.088 6.248,0.504 8.512,1.811 2.105,1.216 3.967,3.353 5.502,6.218 3.252,0.781 5.904,2.105 7.752,3.953 1.72,1.72 2.965,4.266 3.706,7.43 2.939,1.596 5.158,3.561 6.465,5.825 1.216,2.106 1.759,4.887 1.656,8.136 2.427,2.302 4.061,4.774 4.738,7.3 0.629,2.348 0.434,5.176 -0.506,8.287 1.748,2.851 2.687,5.663 2.687,8.277 0,2.505 -0.977,5.274 -2.792,8.125 1.012,3.193 1.244,6.078 0.611,8.439 -0.611,2.28 -2.279,4.627 -4.812,6.877 0.189,3.454 -0.329,6.389 -1.582,8.559 -1.18,2.044 -3.399,3.879 -6.427,5.397 -0.712,3.385 -1.972,6.086 -3.744,7.858 -1.668,1.668 -4.287,2.867 -7.605,3.549 -1.563,3.086 -3.48,5.369 -5.649,6.622 -2.044,1.18 -4.884,1.659 -8.265,1.459 -2.309,2.576 -4.751,4.286 -7.171,4.934 -2.279,0.611 -5.146,0.34 -8.361,-0.729 z" />
        <path
           id="path137"
           style="fill:none;stroke:#ffffff;stroke-width:2.50950551px"
           d="m 108.846,904.999 c -2.987,1.95 -5.876,3.001 -8.459,3.001 -2.434,0 -5.217,-1.036 -8.134,-2.958 -3.39,1.11 -6.453,1.378 -8.948,0.709 -2.351,-0.63 -4.772,-2.35 -7.092,-4.962 -3.561,0.195 -6.589,-0.339 -8.826,-1.631 -2.108,-1.217 -4.001,-3.506 -5.566,-6.629 -3.491,-0.733 -6.276,-2.033 -8.103,-3.86 -1.721,-1.721 -2.957,-4.421 -3.661,-7.843 -3.182,-1.612 -5.536,-3.588 -6.828,-5.826 -1.217,-2.108 -1.712,-5.036 -1.506,-8.523 -2.656,-2.381 -4.419,-4.899 -5.087,-7.395 -0.612,-2.281 -0.366,-5.133 0.656,-8.329 -1.889,-3.015 -2.905,-5.991 -2.905,-8.753 0,-2.508 0.948,-5.272 2.716,-8.12 -0.98,-3.307 -1.165,-6.358 -0.467,-8.962 0.648,-2.422 2.28,-4.847 4.725,-7.141 -0.091,-3.447 0.52,-6.442 1.868,-8.777 1.254,-2.172 3.458,-4.091 6.412,-5.674 0.805,-3.354 2.17,-6.089 4.077,-7.995 1.773,-1.773 4.398,-3.057 7.662,-3.821 1.645,-3.031 3.672,-5.32 6.007,-6.668 2.171,-1.253 5.04,-1.814 8.39,-1.708 2.374,-2.502 4.923,-4.187 7.528,-4.885 2.422,-0.649 5.337,-0.448 8.546,0.522 2.94,-1.803 5.84,-2.771 8.536,-2.771 2.507,0 5.271,0.949 8.12,2.716 3.306,-0.98 6.357,-1.165 8.962,-0.467 2.422,0.649 4.846,2.281 7.14,4.725 3.448,-0.091 6.443,0.52 8.778,1.868 2.171,1.254 4.091,3.458 5.674,6.413 3.353,0.804 6.088,2.17 7.995,4.076 1.773,1.773 3.056,4.399 3.821,7.662 3.031,1.646 5.319,3.672 6.667,6.007 1.254,2.172 1.814,5.04 1.708,8.39 2.502,2.374 4.188,4.924 4.886,7.528 0.649,2.422 0.448,5.338 -0.522,8.547 1.802,2.94 2.771,5.839 2.771,8.535 0,2.583 -1.007,5.439 -2.879,8.379 1.043,3.292 1.282,6.268 0.63,8.703 -0.63,2.351 -2.351,4.771 -4.962,7.091 0.195,3.562 -0.34,6.589 -1.632,8.827 -1.216,2.108 -3.505,4 -6.628,5.565 -0.734,3.491 -2.033,6.277 -3.86,8.104 -1.721,1.721 -4.421,2.957 -7.843,3.66 -1.612,3.182 -3.589,5.537 -5.826,6.829 -2.108,1.216 -5.036,1.711 -8.523,1.505 -2.381,2.657 -4.9,4.419 -7.395,5.088 -2.351,0.63 -5.307,0.35 -8.623,-0.752 z" />
        <circle
           id="circle139"
           style="fill:#ffffff"
           r="45"
           cy="841.87201"
           cx="99.998001" />
        <path
           id="path141"
           style="fill:#3e7aab"
           d="m 99.998,885.372 -0.281,-10e-4 -0.281,-0.002 -0.28,-0.005 -0.28,-0.006 -0.279,-0.008 -0.279,-0.01 -0.279,-0.011 -0.278,-0.013 -0.278,-0.015 -0.277,-0.017 -0.277,-0.019 -0.276,-0.02 -0.276,-0.022 -0.275,-0.023 -0.275,-0.026 -0.274,-0.027 -0.274,-0.028 -0.273,-0.031 -0.273,-0.032 -0.272,-0.034 -0.272,-0.035 -0.271,-0.037 -0.271,-0.039 -0.27,-0.04 -0.269,-0.043 -0.269,-0.043 -0.269,-0.046 -0.268,-0.047 -0.267,-0.048 -0.267,-0.051 -0.266,-0.052 -0.266,-0.053 -0.265,-0.055 -0.265,-0.057 -0.264,-0.059 -0.263,-0.06 -0.262,-0.061 -0.263,-0.063 -0.261,-0.065 -0.261,-0.066 -0.26,-0.068 -0.26,-0.07 -0.259,-0.071 -0.258,-0.072 -0.258,-0.074 -0.256,-0.076 -0.257,-0.077 -0.255,-0.079 -0.255,-0.08 -0.255,-0.082 -0.253,-0.083 -0.253,-0.085 -0.253,-0.086 -0.251,-0.088 -0.251,-0.089 -0.25,-0.091 -0.25,-0.092 -0.248,-0.094 -0.248,-0.095 -0.248,-0.097 -0.246,-0.098 -0.246,-0.1 -0.245,-0.101 -0.244,-0.103 -0.244,-0.104 -0.243,-0.105 -0.242,-0.107 -0.241,-0.108 -0.24,-0.11 -0.24,-0.111 -0.239,-0.112 -0.238,-0.114 -0.237,-0.115 -0.237,-0.117 -0.235,-0.118 -0.235,-0.12 -0.234,-0.121 -0.234,-0.122 -0.232,-0.123 -0.231,-0.125 -0.231,-0.127 -0.23,-0.127 -0.229,-0.129 -0.228,-0.131 -0.227,-0.131 -0.227,-0.133 -0.225,-0.135 -0.225,-0.135 -0.224,-0.137 -0.223,-0.138 -0.222,-0.14 -0.221,-0.141 -0.22,-0.142 -0.219,-0.143 -0.219,-0.145 -0.217,-0.146 -0.217,-0.147 -0.215,-0.149 -0.215,-0.15 -0.214,-0.151 -0.212,-0.152 -0.212,-0.154 -0.211,-0.154 -0.21,-0.156 -0.209,-0.158 -0.208,-0.158 -0.206,-0.16 -0.206,-0.161 -0.205,-0.162 -0.204,-0.163 -0.203,-0.165 -0.202,-0.165 -0.201,-0.167 -0.2,-0.168 -0.199,-0.169 -0.198,-0.171 -0.197,-0.171 -0.195,-0.173 -0.195,-0.174 -0.194,-0.175 -0.193,-0.176 -0.191,-0.177 -0.191,-0.179 -0.189,-0.179 -0.188,-0.181 -0.188,-0.182 -0.186,-0.183 -0.185,-0.184 -0.184,-0.185 -0.183,-0.186 -0.182,-0.187 -0.18,-0.189 -0.18,-0.189 -0.178,-0.191 -0.178,-0.191 -0.176,-0.193 -0.175,-0.193 -0.174,-0.195 -0.172,-0.196 -0.172,-0.197 -0.17,-0.198 -0.169,-0.199 -0.169,-0.2 -0.166,-0.2 -0.166,-0.202 -0.165,-0.203 -0.163,-0.204 -0.162,-0.205 -0.161,-0.206 -0.16,-0.207 -0.158,-0.208 -0.157,-0.209 -0.156,-0.21 -0.155,-0.211 -0.154,-0.211 -0.152,-0.213 -0.151,-0.214 -0.15,-0.215 -0.148,-0.215 -0.148,-0.217 -0.146,-0.217 -0.144,-0.218 -0.144,-0.22 -0.142,-0.22 -0.141,-0.221 -0.139,-0.222 -0.139,-0.223 -0.137,-0.224 -0.135,-0.224 -0.134,-0.226 -0.133,-0.226 -0.132,-0.228 -0.13,-0.228 -0.129,-0.229 -0.128,-0.23 -0.126,-0.23 -0.125,-0.232 -0.124,-0.232 -0.122,-0.233 -0.121,-0.234 -0.119,-0.235 -0.119,-0.236 -0.116,-0.237 -0.116,-0.237 -0.113,-0.238 -0.113,-0.239 -0.111,-0.239 -0.11,-0.241 -0.108,-0.241 -0.107,-0.242 -0.105,-0.243 -0.104,-0.243 -0.103,-0.245 -0.101,-0.245 -0.099,-0.246 -0.099,-0.246 -0.096,-0.247 -0.095,-0.248 -0.094,-0.249 -0.093,-0.25 -0.09,-0.25 -0.09,-0.251 -0.087,-0.251 -0.087,-0.252 -0.085,-0.253 -0.083,-0.254 -0.082,-0.254 -0.08,-0.255 -0.079,-0.256 -0.077,-0.256 -0.075,-0.257 -0.075,-0.258 -0.072,-0.258 -0.071,-0.259 -0.07,-0.26 -0.067,-0.26 -0.067,-0.261 -0.064,-0.261 -0.064,-0.262 -0.061,-0.263 -0.06,-0.263 -0.059,-0.264 -0.056,-0.265 -0.055,-0.265 -0.054,-0.265 -0.052,-0.267 -0.05,-0.266 -0.049,-0.268 -0.047,-0.268 -0.045,-0.268 -0.044,-0.269 -0.042,-0.27 -0.041,-0.27 -0.039,-0.271 -0.037,-0.271 -0.035,-0.272 -0.034,-0.272 -0.032,-0.273 -0.03,-0.273 -0.029,-0.274 -0.027,-0.274 -0.025,-0.275 -0.024,-0.275 -0.022,-0.276 -0.02,-0.276 -0.019,-0.277 -0.016,-0.277 -0.015,-0.278 -0.013,-0.278 -0.012,-0.278 -0.01,-0.279 -0.008,-0.28 -0.006,-0.28 -0.004,-0.28 -0.003,-0.281 -0.001,-0.281 0.001,-0.281 0.003,-0.281 0.004,-0.28 0.006,-0.28 0.008,-0.279 0.01,-0.279 0.012,-0.279 0.013,-0.278 0.015,-0.278 0.016,-0.277 0.019,-0.276 0.02,-0.277 0.022,-0.275 0.024,-0.276 0.025,-0.275 0.027,-0.274 0.029,-0.274 0.03,-0.273 0.032,-0.273 0.034,-0.272 0.035,-0.272 0.037,-0.271 0.039,-0.271 0.041,-0.27 0.042,-0.269 0.044,-0.269 0.045,-0.269 0.047,-0.268 0.049,-0.267 0.05,-0.267 0.052,-0.266 0.054,-0.266 0.055,-0.265 0.056,-0.265 0.059,-0.263 0.06,-0.264 0.061,-0.262 0.064,-0.263 0.064,-0.261 0.067,-0.261 0.067,-0.26 0.07,-0.26 0.071,-0.259 0.072,-0.258 0.075,-0.257 0.075,-0.257 0.077,-0.257 0.079,-0.255 0.08,-0.255 0.082,-0.255 0.083,-0.253 0.085,-0.253 0.087,-0.253 0.087,-0.251 0.09,-0.251 0.09,-0.25 0.093,-0.25 0.094,-0.248 0.095,-0.248 0.096,-0.248 0.099,-0.246 0.099,-0.246 0.101,-0.245 0.103,-0.244 0.104,-0.244 0.105,-0.243 0.107,-0.242 0.108,-0.241 0.11,-0.24 0.111,-0.24 0.113,-0.239 0.113,-0.238 0.116,-0.237 0.116,-0.237 0.119,-0.235 0.119,-0.235 0.121,-0.234 0.122,-0.233 0.124,-0.233 0.125,-0.231 0.126,-0.231 0.128,-0.23 0.129,-0.229 0.13,-0.228 0.132,-0.227 0.133,-0.227 0.134,-0.225 0.135,-0.225 0.137,-0.224 0.139,-0.223 0.139,-0.222 0.141,-0.221 0.142,-0.22 0.144,-0.219 0.144,-0.219 0.146,-0.217 0.148,-0.217 0.148,-0.215 0.15,-0.215 0.151,-0.213 0.152,-0.213 0.154,-0.212 0.155,-0.211 0.156,-0.21 0.157,-0.209 0.158,-0.207 0.16,-0.207 0.161,-0.206 0.162,-0.205 0.163,-0.204 0.165,-0.203 0.166,-0.202 0.166,-0.201 0.169,-0.2 0.169,-0.199 0.17,-0.198 0.172,-0.197 0.172,-0.195 0.174,-0.195 0.175,-0.194 0.176,-0.193 0.178,-0.191 0.178,-0.191 0.18,-0.189 0.18,-0.188 0.182,-0.188 0.183,-0.186 0.184,-0.185 0.185,-0.184 0.186,-0.183 0.188,-0.182 0.188,-0.18 0.189,-0.18 0.191,-0.178 0.191,-0.178 0.193,-0.176 0.194,-0.175 0.195,-0.174 0.195,-0.172 0.197,-0.172 0.198,-0.17 0.199,-0.169 0.2,-0.168 0.201,-0.167 0.202,-0.166 0.203,-0.165 0.204,-0.163 0.205,-0.162 0.206,-0.161 0.206,-0.159 0.208,-0.159 0.209,-0.157 0.21,-0.156 0.211,-0.155 0.212,-0.154 0.212,-0.152 0.214,-0.151 0.215,-0.15 0.215,-0.148 0.217,-0.147 0.217,-0.146 0.219,-0.145 0.219,-0.144 0.22,-0.142 0.221,-0.141 0.222,-0.139 0.223,-0.138 0.224,-0.137 0.225,-0.136 0.225,-0.134 0.227,-0.133 0.227,-0.132 0.228,-0.13 0.229,-0.129 0.23,-0.128 0.231,-0.126 0.231,-0.125 0.232,-0.124 0.234,-0.122 0.234,-0.121 0.235,-0.119 0.235,-0.119 0.237,-0.116 0.237,-0.116 0.238,-0.113 0.239,-0.113 0.24,-0.111 0.24,-0.11 0.241,-0.108 0.242,-0.107 0.243,-0.105 0.244,-0.104 0.244,-0.103 0.245,-0.101 0.246,-0.099 0.246,-0.098 0.248,-0.097 0.248,-0.095 0.248,-0.094 0.25,-0.092 0.25,-0.091 0.251,-0.09 0.251,-0.087 0.253,-0.087 0.253,-0.084 0.253,-0.084 0.255,-0.082 0.255,-0.08 0.255,-0.079 0.257,-0.077 0.256,-0.075 0.258,-0.074 0.258,-0.073 0.259,-0.071 0.26,-0.069 0.26,-0.068 0.261,-0.067 0.261,-0.064 0.263,-0.064 0.262,-0.061 0.263,-0.06 0.264,-0.058 0.265,-0.057 0.265,-0.055 0.266,-0.054 0.266,-0.052 0.267,-0.05 0.267,-0.049 0.268,-0.047 0.269,-0.045 0.269,-0.044 0.269,-0.042 0.27,-0.041 0.271,-0.038 0.271,-0.038 0.272,-0.035 0.272,-0.034 0.273,-0.032 0.273,-0.03 0.274,-0.029 0.274,-0.027 0.275,-0.025 0.275,-0.024 0.276,-0.022 0.276,-0.02 0.277,-0.019 0.277,-0.016 0.278,-0.015 0.278,-0.013 0.279,-0.012 0.279,-0.01 0.279,-0.008 0.28,-0.006 0.28,-0.004 0.281,-0.003 0.281,-0.001 0.281,0.001 0.281,0.003 0.28,0.004 0.28,0.006 0.28,0.008 0.279,0.01 0.278,0.012 0.278,0.013 0.278,0.015 0.277,0.016 0.277,0.019 0.276,0.02 0.276,0.022 0.275,0.024 0.275,0.025 0.274,0.027 0.274,0.029 0.273,0.03 0.273,0.032 0.272,0.034 0.272,0.035 0.271,0.038 0.271,0.038 0.27,0.041 0.27,0.042 0.269,0.044 0.268,0.045 0.268,0.047 0.268,0.049 0.266,0.05 0.267,0.052 0.265,0.054 0.265,0.055 0.265,0.057 0.264,0.058 0.263,0.06 0.263,0.061 0.262,0.064 0.261,0.064 0.261,0.067 0.26,0.068 0.26,0.069 0.259,0.071 0.258,0.073 0.258,0.074 0.257,0.075 0.256,0.077 0.256,0.079 0.255,0.08 0.254,0.082 0.254,0.084 0.253,0.084 0.252,0.087 0.251,0.087 0.251,0.09 0.25,0.091 0.25,0.092 0.249,0.094 0.248,0.095 0.247,0.097 0.246,0.098 0.246,0.099 0.245,0.101 0.244,0.103 0.244,0.104 0.243,0.105 0.242,0.107 0.241,0.108 0.24,0.11 0.24,0.111 0.239,0.113 0.238,0.113 0.237,0.116 0.237,0.116 0.236,0.119 0.234,0.119 0.235,0.121 0.233,0.122 0.232,0.124 0.232,0.125 0.23,0.126 0.23,0.128 0.229,0.129 0.228,0.13 0.228,0.132 0.226,0.133 0.226,0.134 0.224,0.136 0.224,0.137 0.223,0.138 0.222,0.139 0.221,0.141 0.22,0.142 0.22,0.144 0.218,0.145 0.217,0.146 0.217,0.147 0.215,0.148 0.215,0.15 0.214,0.151 0.212,0.152 0.212,0.154 0.211,0.155 0.21,0.156 0.209,0.157 0.208,0.159 0.207,0.159 0.206,0.161 0.205,0.162 0.204,0.163 0.203,0.165 0.201,0.166 0.201,0.167 0.2,0.168 0.199,0.169 0.198,0.17 0.197,0.172 0.196,0.172 0.194,0.174 0.194,0.175 0.193,0.176 0.191,0.178 0.191,0.178 0.189,0.18 0.189,0.18 0.187,0.182 0.186,0.183 0.185,0.184 0.184,0.185 0.183,0.186 0.182,0.188 0.181,0.188 0.179,0.189 0.179,0.191 0.177,0.191 0.176,0.193 0.175,0.194 0.174,0.195 0.173,0.195 0.171,0.197 0.17,0.198 0.17,0.199 0.168,0.2 0.167,0.201 0.165,0.202 0.165,0.203 0.163,0.204 0.162,0.205 0.161,0.206 0.16,0.207 0.158,0.207 0.157,0.209 0.156,0.21 0.155,0.211 0.154,0.212 0.152,0.213 0.151,0.213 0.15,0.215 0.148,0.215 0.148,0.217 0.146,0.217 0.144,0.219 0.144,0.219 0.142,0.22 0.141,0.221 0.14,0.222 0.138,0.223 0.137,0.224 0.135,0.225 0.135,0.225 0.133,0.227 0.131,0.227 0.131,0.228 0.129,0.229 0.127,0.23 0.127,0.231 0.125,0.231 0.123,0.233 0.122,0.233 0.121,0.234 0.12,0.235 0.118,0.235 0.116,0.237 0.116,0.237 0.114,0.238 0.112,0.239 0.111,0.24 0.11,0.24 0.108,0.241 0.107,0.242 0.105,0.243 0.104,0.244 0.103,0.244 0.101,0.245 0.1,0.246 0.098,0.246 0.096,0.248 0.096,0.248 0.093,0.248 0.093,0.25 0.091,0.25 0.089,0.251 0.088,0.251 0.086,0.253 0.085,0.253 0.083,0.253 0.082,0.255 0.08,0.255 0.079,0.255 0.077,0.257 0.076,0.257 0.074,0.257 0.072,0.258 0.071,0.259 0.07,0.26 0.068,0.26 0.066,0.261 0.065,0.261 0.063,0.263 0.061,0.262 0.06,0.264 0.059,0.263 0.057,0.265 0.055,0.265 0.053,0.266 0.052,0.266 0.05,0.267 0.049,0.267 0.047,0.268 0.046,0.269 0.043,0.269 0.043,0.269 0.04,0.27 0.039,0.271 0.037,0.271 0.035,0.272 0.034,0.272 0.032,0.273 0.031,0.273 0.028,0.274 0.027,0.274 0.026,0.275 0.023,0.276 0.022,0.275 0.02,0.277 0.019,0.276 0.016,0.277 0.015,0.278 0.014,0.278 0.011,0.279 0.01,0.279 0.008,0.279 0.006,0.28 0.005,0.28 0.002,0.281 10e-4,0.281 -10e-4,0.281 -0.002,0.281 -0.005,0.28 -0.006,0.28 -0.008,0.28 -0.01,0.279 -0.011,0.278 -0.014,0.278 -0.015,0.278 -0.016,0.277 -0.019,0.277 -0.02,0.276 -0.022,0.276 -0.023,0.275 -0.026,0.275 -0.027,0.274 -0.028,0.274 -0.031,0.273 -0.032,0.273 -0.034,0.272 -0.035,0.272 -0.037,0.271 -0.039,0.271 -0.04,0.27 -0.043,0.27 -0.043,0.269 -0.046,0.268 -0.047,0.268 -0.049,0.268 -0.05,0.266 -0.052,0.267 -0.053,0.265 -0.055,0.265 -0.057,0.265 -0.059,0.264 -0.06,0.263 -0.061,0.263 -0.063,0.262 -0.065,0.261 -0.066,0.261 -0.068,0.26 -0.07,0.26 -0.071,0.259 -0.072,0.258 -0.074,0.258 -0.076,0.257 -0.077,0.256 -0.079,0.256 -0.08,0.255 -0.082,0.254 -0.083,0.254 -0.085,0.253 -0.086,0.252 -0.088,0.251 -0.089,0.251 -0.091,0.25 -0.093,0.25 -0.093,0.249 -0.096,0.248 -0.096,0.247 -0.098,0.246 -0.1,0.246 -0.101,0.245 -0.103,0.245 -0.104,0.243 -0.105,0.243 -0.107,0.242 -0.108,0.241 -0.11,0.241 -0.111,0.239 -0.112,0.239 -0.114,0.238 -0.116,0.237 -0.116,0.237 -0.118,0.236 -0.12,0.235 -0.121,0.234 -0.122,0.233 -0.123,0.232 -0.125,0.232 -0.127,0.23 -0.127,0.23 -0.129,0.229 -0.131,0.228 -0.131,0.228 -0.133,0.226 -0.135,0.226 -0.135,0.224 -0.137,0.224 -0.138,0.223 -0.14,0.222 -0.141,0.221 -0.142,0.22 -0.144,0.22 -0.144,0.218 -0.146,0.217 -0.148,0.217 -0.148,0.215 -0.15,0.215 -0.151,0.214 -0.152,0.213 -0.154,0.211 -0.155,0.211 -0.156,0.21 -0.157,0.209 -0.158,0.208 -0.16,0.207 -0.161,0.206 -0.162,0.205 -0.163,0.204 -0.165,0.203 -0.165,0.202 -0.167,0.2 -0.168,0.2 -0.17,0.199 -0.17,0.198 -0.171,0.197 -0.173,0.196 -0.174,0.195 -0.175,0.193 -0.176,0.193 -0.177,0.191 -0.179,0.191 -0.179,0.189 -0.181,0.189 -0.182,0.187 -0.183,0.186 -0.184,0.185 -0.185,0.184 -0.186,0.183 -0.187,0.182 -0.189,0.181 -0.189,0.179 -0.191,0.179 -0.191,0.177 -0.193,0.176 -0.194,0.175 -0.194,0.174 -0.196,0.173 -0.197,0.171 -0.198,0.171 -0.199,0.169 -0.2,0.168 -0.201,0.167 -0.201,0.165 -0.203,0.165 -0.204,0.163 -0.205,0.162 -0.206,0.161 -0.207,0.16 -0.208,0.158 -0.209,0.158 -0.21,0.156 -0.211,0.154 -0.212,0.154 -0.212,0.152 -0.214,0.151 -0.215,0.15 -0.215,0.149 -0.217,0.147 -0.217,0.146 -0.218,0.145 -0.22,0.143 -0.22,0.142 -0.221,0.141 -0.222,0.14 -0.223,0.138 -0.224,0.137 -0.224,0.135 -0.226,0.135 -0.226,0.133 -0.228,0.131 -0.228,0.131 -0.229,0.129 -0.23,0.127 -0.23,0.127 -0.232,0.125 -0.232,0.123 -0.233,0.122 -0.235,0.121 -0.234,0.12 -0.236,0.118 -0.237,0.117 -0.237,0.115 -0.238,0.114 -0.239,0.112 -0.24,0.111 -0.24,0.11 -0.241,0.108 -0.242,0.107 -0.243,0.105 -0.244,0.104 -0.244,0.103 -0.245,0.101 -0.246,0.1 -0.246,0.098 -0.247,0.097 -0.248,0.095 -0.249,0.094 -0.25,0.092 -0.25,0.091 -0.251,0.089 -0.251,0.088 -0.252,0.086 -0.253,0.085 -0.254,0.083 -0.254,0.082 -0.255,0.08 -0.256,0.079 -0.256,0.077 -0.257,0.076 -0.258,0.074 -0.258,0.072 -0.259,0.071 -0.26,0.07 -0.26,0.068 -0.261,0.066 -0.261,0.065 -0.262,0.063 -0.263,0.061 -0.263,0.06 -0.264,0.059 -0.265,0.057 -0.265,0.055 -0.265,0.053 -0.267,0.052 -0.266,0.051 -0.268,0.048 -0.268,0.047 -0.268,0.046 -0.269,0.043 -0.27,0.043 -0.27,0.04 -0.271,0.039 -0.271,0.037 -0.272,0.035 -0.272,0.034 -0.273,0.032 -0.273,0.031 -0.274,0.028 -0.274,0.027 -0.275,0.026 -0.275,0.023 -0.276,0.022 -0.276,0.02 -0.277,0.019 -0.277,0.017 -0.278,0.015 -0.278,0.013 -0.278,0.011 -0.279,0.01 -0.28,0.008 -0.28,0.006 -0.28,0.005 -0.281,0.002 -0.281,10e-4 z m 0,-1.8 0.27,-10e-4 0.269,-0.002 0.269,-0.005 0.269,-0.005 0.267,-0.008 0.268,-0.009 0.267,-0.012 0.267,-0.012 0.266,-0.015 0.266,-0.016 0.265,-0.017 0.265,-0.02 0.264,-0.021 0.264,-0.022 0.264,-0.024 0.263,-0.026 0.262,-0.028 0.262,-0.029 0.262,-0.031 0.261,-0.032 0.26,-0.034 0.26,-0.036 0.26,-0.037 0.259,-0.039 0.258,-0.04 0.258,-0.042 0.258,-0.044 0.256,-0.045 0.256,-0.046 0.256,-0.049 0.255,-0.049 0.255,-0.052 0.254,-0.053 0.254,-0.054 0.252,-0.056 0.253,-0.057 0.251,-0.059 0.252,-0.061 0.25,-0.062 0.25,-0.063 0.249,-0.065 0.249,-0.067 0.248,-0.068 0.248,-0.07 0.247,-0.071 0.246,-0.072 0.246,-0.074 0.245,-0.076 0.244,-0.076 0.244,-0.079 0.243,-0.08 0.242,-0.081 0.242,-0.083 0.241,-0.084 0.241,-0.085 0.239,-0.087 0.239,-0.089 0.239,-0.09 0.237,-0.091 0.237,-0.093 0.236,-0.094 0.236,-0.095 0.235,-0.097 0.234,-0.098 0.233,-0.1 0.233,-0.101 0.232,-0.102 0.231,-0.104 0.231,-0.105 0.229,-0.107 0.229,-0.107 0.228,-0.109 0.228,-0.111 0.227,-0.112 0.225,-0.113 0.226,-0.115 0.224,-0.115 0.223,-0.117 0.223,-0.119 0.222,-0.12 0.221,-0.121 0.221,-0.122 0.219,-0.124 0.219,-0.125 0.218,-0.126 0.217,-0.128 0.216,-0.128 0.215,-0.13 0.215,-0.132 0.214,-0.132 0.212,-0.134 0.212,-0.135 0.211,-0.136 0.211,-0.138 0.209,-0.139 0.208,-0.14 0.208,-0.141 0.207,-0.142 0.205,-0.144 0.205,-0.145 0.204,-0.146 0.203,-0.147 0.202,-0.148 0.202,-0.15 0.2,-0.151 0.199,-0.152 0.199,-0.153 0.197,-0.154 0.197,-0.155 0.195,-0.157 0.195,-0.158 0.194,-0.158 0.192,-0.16 0.192,-0.162 0.191,-0.162 0.189,-0.163 0.189,-0.165 0.188,-0.165 0.187,-0.167 0.185,-0.168 0.185,-0.169 0.184,-0.17 0.182,-0.171 0.182,-0.172 0.181,-0.173 0.179,-0.175 0.179,-0.175 0.177,-0.177 0.177,-0.177 0.175,-0.179 0.175,-0.179 0.173,-0.181 0.172,-0.181 0.171,-0.183 0.17,-0.184 0.169,-0.185 0.168,-0.185 0.167,-0.187 0.165,-0.188 0.165,-0.189 0.163,-0.189 0.162,-0.191 0.161,-0.192 0.16,-0.192 0.159,-0.194 0.158,-0.195 0.157,-0.195 0.155,-0.197 0.154,-0.197 0.153,-0.199 0.152,-0.199 0.151,-0.2 0.15,-0.201 0.148,-0.203 0.147,-0.203 0.146,-0.204 0.145,-0.205 0.144,-0.205 0.142,-0.207 0.141,-0.208 0.14,-0.208 0.139,-0.209 0.138,-0.21 0.136,-0.212 0.135,-0.212 0.134,-0.212 0.132,-0.214 0.132,-0.215 0.13,-0.215 0.128,-0.216 0.128,-0.217 0.126,-0.218 0.125,-0.219 0.124,-0.219 0.122,-0.221 0.121,-0.221 0.12,-0.222 0.118,-0.222 0.118,-0.224 0.115,-0.225 0.115,-0.225 0.113,-0.225 0.112,-0.227 0.11,-0.228 0.11,-0.228 0.107,-0.229 0.107,-0.229 0.105,-0.231 0.104,-0.231 0.102,-0.232 0.101,-0.233 0.1,-0.233 0.098,-0.234 0.097,-0.235 0.095,-0.236 0.094,-0.236 0.093,-0.237 0.091,-0.237 0.09,-0.239 0.089,-0.239 0.087,-0.24 0.085,-0.24 0.084,-0.241 0.083,-0.242 0.081,-0.242 0.08,-0.243 0.079,-0.244 0.076,-0.244 0.076,-0.245 0.074,-0.246 0.072,-0.246 0.071,-0.247 0.07,-0.248 0.068,-0.248 0.066,-0.248 0.065,-0.25 0.064,-0.25 0.062,-0.25 0.061,-0.251 0.059,-0.252 0.057,-0.252 0.056,-0.253 0.054,-0.254 0.053,-0.254 0.052,-0.254 0.049,-0.256 0.049,-0.255 0.046,-0.257 0.045,-0.256 0.044,-0.258 0.042,-0.258 0.04,-0.258 0.039,-0.259 0.037,-0.26 0.036,-0.26 0.034,-0.26 0.032,-0.261 0.031,-0.261 0.029,-0.262 0.028,-0.263 0.025,-0.263 0.025,-0.263 0.022,-0.264 0.021,-0.265 0.02,-0.265 0.017,-0.265 0.016,-0.266 0.015,-0.266 0.012,-0.267 0.011,-0.267 0.01,-0.267 0.007,-0.268 0.006,-0.269 0.005,-0.269 0.002,-0.269 0.001,-0.27 -0.001,-0.27 -0.002,-0.269 -0.005,-0.269 -0.006,-0.268 -0.007,-0.268 -0.01,-0.268 -0.011,-0.267 -0.012,-0.267 -0.015,-0.266 -0.016,-0.266 -0.017,-0.265 -0.02,-0.265 -0.021,-0.264 -0.022,-0.264 -0.025,-0.264 -0.025,-0.263 -0.028,-0.262 -0.029,-0.262 -0.031,-0.262 -0.032,-0.261 -0.034,-0.26 -0.036,-0.26 -0.037,-0.26 -0.039,-0.259 -0.04,-0.258 -0.042,-0.258 -0.044,-0.257 -0.045,-0.257 -0.046,-0.256 -0.049,-0.256 -0.049,-0.255 -0.052,-0.255 -0.053,-0.254 -0.054,-0.253 -0.056,-0.253 -0.057,-0.252 -0.059,-0.252 -0.061,-0.251 -0.062,-0.251 -0.064,-0.25 -0.065,-0.249 -0.066,-0.249 -0.068,-0.248 -0.07,-0.248 -0.071,-0.247 -0.072,-0.246 -0.074,-0.245 -0.076,-0.245 -0.077,-0.245 -0.078,-0.243 -0.08,-0.243 -0.081,-0.243 -0.083,-0.242 -0.084,-0.241 -0.085,-0.24 -0.087,-0.24 -0.089,-0.239 -0.09,-0.238 -0.091,-0.238 -0.093,-0.237 -0.094,-0.236 -0.095,-0.236 -0.097,-0.235 -0.098,-0.234 -0.1,-0.233 -0.101,-0.233 -0.102,-0.232 -0.104,-0.231 -0.105,-0.23 -0.107,-0.23 -0.107,-0.229 -0.11,-0.228 -0.11,-0.228 -0.112,-0.226 -0.113,-0.226 -0.115,-0.225 -0.115,-0.224 -0.118,-0.224 -0.118,-0.223 -0.12,-0.222 -0.121,-0.221 -0.122,-0.22 -0.124,-0.22 -0.125,-0.219 -0.126,-0.217 -0.128,-0.217 -0.128,-0.217 -0.13,-0.215 -0.132,-0.215 -0.132,-0.213 -0.134,-0.213 -0.135,-0.212 -0.136,-0.211 -0.138,-0.21 -0.139,-0.21 -0.14,-0.208 -0.141,-0.208 -0.142,-0.206 -0.144,-0.206 -0.145,-0.205 -0.146,-0.204 -0.147,-0.203 -0.148,-0.202 -0.15,-0.201 -0.151,-0.201 -0.152,-0.199 -0.153,-0.198 -0.154,-0.198 -0.155,-0.197 -0.157,-0.195 -0.158,-0.195 -0.159,-0.193 -0.16,-0.193 -0.161,-0.192 -0.162,-0.19 -0.163,-0.19 -0.165,-0.189 -0.165,-0.188 -0.167,-0.186 -0.168,-0.186 -0.169,-0.185 -0.17,-0.184 -0.171,-0.182 -0.172,-0.182 -0.173,-0.181 -0.175,-0.179 -0.175,-0.179 -0.177,-0.177 -0.177,-0.177 -0.179,-0.175 -0.179,-0.174 -0.181,-0.173 -0.181,-0.173 -0.183,-0.171 -0.184,-0.17 -0.185,-0.169 -0.185,-0.167 -0.187,-0.167 -0.188,-0.166 -0.189,-0.164 -0.189,-0.164 -0.191,-0.162 -0.192,-0.161 -0.192,-0.16 -0.194,-0.159 -0.195,-0.158 -0.195,-0.156 -0.197,-0.156 -0.197,-0.154 -0.199,-0.153 -0.199,-0.152 -0.2,-0.151 -0.201,-0.149 -0.203,-0.149 -0.203,-0.147 -0.204,-0.146 -0.205,-0.145 -0.205,-0.143 -0.207,-0.143 -0.207,-0.141 -0.209,-0.14 -0.209,-0.139 -0.211,-0.137 -0.211,-0.137 -0.212,-0.135 -0.213,-0.134 -0.213,-0.132 -0.215,-0.131 -0.215,-0.13 -0.216,-0.129 -0.217,-0.128 -0.218,-0.126 -0.219,-0.125 -0.219,-0.123 -0.221,-0.123 -0.221,-0.121 -0.222,-0.12 -0.223,-0.118 -0.223,-0.117 -0.225,-0.116 -0.225,-0.115 -0.225,-0.113 -0.227,-0.112 -0.228,-0.11 -0.228,-0.109 -0.229,-0.108 -0.229,-0.107 -0.231,-0.105 -0.231,-0.103 -0.232,-0.103 -0.233,-0.101 -0.233,-0.099 -0.234,-0.099 -0.235,-0.097 -0.235,-0.095 -0.237,-0.094 -0.237,-0.093 -0.238,-0.091 -0.238,-0.09 -0.239,-0.088 -0.24,-0.087 -0.24,-0.086 -0.241,-0.084 -0.242,-0.083 -0.242,-0.081 -0.243,-0.08 -0.244,-0.078 -0.244,-0.077 -0.245,-0.076 -0.246,-0.073 -0.246,-0.073 -0.247,-0.071 -0.248,-0.07 -0.248,-0.068 -0.248,-0.066 -0.25,-0.065 -0.25,-0.064 -0.25,-0.062 -0.252,-0.06 -0.251,-0.059 -0.253,-0.058 -0.252,-0.056 -0.254,-0.054 -0.254,-0.053 -0.255,-0.051 -0.255,-0.05 -0.255,-0.048 -0.257,-0.047 -0.256,-0.045 -0.258,-0.044 -0.258,-0.042 -0.258,-0.04 -0.259,-0.039 -0.26,-0.037 -0.26,-0.035 -0.26,-0.034 -0.261,-0.033 -0.261,-0.031 -0.263,-0.029 -0.262,-0.027 -0.263,-0.026 -0.264,-0.024 -0.263,-0.023 -0.265,-0.021 -0.265,-0.019 -0.265,-0.018 -0.266,-0.016 -0.266,-0.014 -0.267,-0.013 -0.267,-0.011 -0.268,-0.01 -0.268,-0.007 -0.268,-0.006 -0.269,-0.004 -0.269,-0.003 -0.27,-10e-4 -0.269,10e-4 -0.27,0.003 -0.269,0.004 -0.268,0.006 -0.268,0.007 -0.268,0.01 -0.267,0.011 -0.267,0.013 -0.266,0.014 -0.266,0.016 -0.265,0.018 -0.265,0.019 -0.264,0.021 -0.264,0.023 -0.264,0.024 -0.263,0.026 -0.262,0.027 -0.262,0.029 -0.262,0.031 -0.261,0.033 -0.26,0.034 -0.26,0.035 -0.26,0.037 -0.259,0.039 -0.258,0.04 -0.258,0.042 -0.257,0.044 -0.257,0.045 -0.256,0.047 -0.256,0.048 -0.255,0.05 -0.255,0.051 -0.254,0.053 -0.253,0.054 -0.253,0.056 -0.252,0.058 -0.252,0.059 -0.252,0.06 -0.25,0.062 -0.25,0.064 -0.249,0.065 -0.249,0.066 -0.248,0.068 -0.248,0.07 -0.246,0.071 -0.247,0.073 -0.245,0.073 -0.245,0.076 -0.245,0.077 -0.243,0.078 -0.244,0.08 -0.242,0.081 -0.242,0.083 -0.241,0.084 -0.24,0.086 -0.24,0.087 -0.239,0.088 -0.238,0.09 -0.238,0.091 -0.237,0.093 -0.236,0.094 -0.236,0.095 -0.234,0.097 -0.235,0.099 -0.233,0.099 -0.233,0.101 -0.232,0.103 -0.231,0.103 -0.23,0.105 -0.23,0.107 -0.229,0.108 -0.228,0.109 -0.228,0.11 -0.226,0.112 -0.226,0.113 -0.225,0.115 -0.225,0.116 -0.223,0.117 -0.223,0.118 -0.222,0.12 -0.221,0.121 -0.22,0.123 -0.22,0.123 -0.219,0.125 -0.217,0.126 -0.217,0.128 -0.217,0.129 -0.215,0.13 -0.215,0.131 -0.213,0.132 -0.213,0.134 -0.212,0.135 -0.211,0.137 -0.21,0.137 -0.21,0.139 -0.208,0.14 -0.208,0.141 -0.206,0.143 -0.206,0.143 -0.205,0.145 -0.204,0.146 -0.203,0.147 -0.202,0.149 -0.201,0.149 -0.201,0.151 -0.199,0.152 -0.199,0.153 -0.197,0.154 -0.197,0.156 -0.195,0.156 -0.195,0.158 -0.193,0.159 -0.193,0.16 -0.192,0.161 -0.19,0.162 -0.19,0.164 -0.189,0.164 -0.188,0.166 -0.187,0.167 -0.185,0.167 -0.185,0.169 -0.184,0.17 -0.182,0.171 -0.182,0.173 -0.181,0.173 -0.179,0.174 -0.179,0.175 -0.177,0.177 -0.177,0.177 -0.175,0.179 -0.174,0.179 -0.174,0.181 -0.172,0.182 -0.171,0.183 -0.17,0.183 -0.169,0.185 -0.168,0.186 -0.166,0.186 -0.166,0.188 -0.164,0.189 -0.164,0.19 -0.162,0.19 -0.161,0.192 -0.16,0.193 -0.159,0.193 -0.158,0.195 -0.156,0.195 -0.156,0.197 -0.154,0.198 -0.153,0.198 -0.152,0.199 -0.151,0.201 -0.15,0.201 -0.148,0.202 -0.147,0.203 -0.146,0.204 -0.145,0.205 -0.144,0.206 -0.142,0.206 -0.141,0.208 -0.14,0.208 -0.139,0.21 -0.137,0.21 -0.137,0.211 -0.135,0.212 -0.134,0.213 -0.132,0.213 -0.131,0.215 -0.13,0.215 -0.129,0.217 -0.128,0.217 -0.126,0.217 -0.125,0.219 -0.124,0.22 -0.122,0.22 -0.121,0.221 -0.12,0.222 -0.118,0.223 -0.117,0.223 -0.116,0.225 -0.115,0.225 -0.113,0.226 -0.112,0.226 -0.11,0.228 -0.109,0.228 -0.108,0.229 -0.107,0.23 -0.105,0.23 -0.104,0.231 -0.102,0.232 -0.101,0.233 -0.1,0.233 -0.098,0.234 -0.097,0.235 -0.095,0.236 -0.094,0.236 -0.093,0.237 -0.091,0.238 -0.09,0.238 -0.088,0.239 -0.087,0.24 -0.086,0.24 -0.084,0.241 -0.083,0.242 -0.081,0.243 -0.08,0.243 -0.078,0.243 -0.077,0.245 -0.076,0.245 -0.074,0.245 -0.072,0.246 -0.071,0.247 -0.07,0.248 -0.068,0.248 -0.066,0.249 -0.065,0.249 -0.064,0.25 -0.062,0.251 -0.06,0.251 -0.059,0.251 -0.058,0.253 -0.056,0.253 -0.054,0.253 -0.053,0.254 -0.051,0.255 -0.05,0.255 -0.048,0.256 -0.047,0.256 -0.045,0.257 -0.044,0.257 -0.042,0.258 -0.04,0.258 -0.039,0.259 -0.037,0.26 -0.036,0.26 -0.034,0.26 -0.032,0.261 -0.031,0.262 -0.029,0.262 -0.027,0.262 -0.026,0.263 -0.025,0.264 -0.022,0.264 -0.021,0.264 -0.019,0.265 -0.018,0.265 -0.016,0.266 -0.015,0.266 -0.012,0.267 -0.011,0.267 -0.01,0.268 -0.007,0.268 -0.006,0.268 -0.004,0.269 -0.003,0.269 -10e-4,0.27 10e-4,0.27 0.003,0.269 0.004,0.269 0.006,0.269 0.007,0.268 0.01,0.267 0.011,0.267 0.012,0.267 0.015,0.266 0.016,0.266 0.018,0.265 0.019,0.265 0.021,0.265 0.022,0.264 0.025,0.263 0.026,0.263 0.027,0.263 0.029,0.262 0.031,0.261 0.032,0.261 0.034,0.261 0.036,0.259 0.037,0.26 0.039,0.259 0.04,0.258 0.042,0.258 0.044,0.258 0.045,0.256 0.047,0.257 0.048,0.255 0.05,0.255 0.051,0.255 0.053,0.254 0.054,0.254 0.056,0.253 0.058,0.252 0.059,0.252 0.06,0.251 0.062,0.25 0.064,0.25 0.065,0.25 0.066,0.248 0.068,0.248 0.07,0.248 0.071,0.247 0.072,0.246 0.074,0.246 0.076,0.245 0.077,0.244 0.078,0.244 0.08,0.243 0.081,0.242 0.083,0.242 0.084,0.241 0.086,0.24 0.087,0.24 0.088,0.239 0.09,0.239 0.091,0.237 0.093,0.237 0.094,0.236 0.095,0.236 0.097,0.235 0.098,0.234 0.1,0.233 0.101,0.233 0.102,0.232 0.104,0.231 0.105,0.231 0.107,0.229 0.108,0.229 0.109,0.228 0.11,0.228 0.112,0.227 0.113,0.225 0.115,0.225 0.116,0.225 0.117,0.224 0.118,0.222 0.12,0.222 0.121,0.221 0.122,0.221 0.124,0.219 0.125,0.219 0.126,0.218 0.128,0.217 0.129,0.216 0.13,0.215 0.131,0.215 0.132,0.214 0.134,0.212 0.135,0.212 0.137,0.212 0.137,0.21 0.139,0.209 0.14,0.209 0.141,0.207 0.142,0.207 0.144,0.205 0.145,0.205 0.146,0.204 0.147,0.203 0.149,0.203 0.149,0.201 0.151,0.2 0.152,0.199 0.153,0.199 0.154,0.197 0.156,0.197 0.156,0.195 0.158,0.195 0.159,0.194 0.16,0.192 0.161,0.192 0.162,0.191 0.164,0.189 0.164,0.189 0.166,0.188 0.166,0.187 0.168,0.185 0.169,0.185 0.17,0.184 0.171,0.183 0.172,0.181 0.174,0.181 0.174,0.179 0.175,0.179 0.177,0.177 0.177,0.177 0.179,0.175 0.179,0.175 0.181,0.173 0.182,0.172 0.182,0.171 0.184,0.17 0.185,0.169 0.186,0.168 0.186,0.167 0.188,0.165 0.189,0.165 0.189,0.163 0.191,0.162 0.192,0.162 0.193,0.16 0.193,0.158 0.195,0.158 0.195,0.157 0.197,0.155 0.197,0.154 0.199,0.153 0.199,0.152 0.201,0.151 0.201,0.15 0.202,0.148 0.203,0.147 0.204,0.146 0.205,0.145 0.206,0.144 0.206,0.142 0.208,0.141 0.208,0.14 0.21,0.139 0.21,0.138 0.211,0.136 0.212,0.135 0.213,0.134 0.213,0.132 0.215,0.132 0.215,0.13 0.216,0.128 0.218,0.128 0.217,0.126 0.219,0.125 0.22,0.124 0.22,0.122 0.221,0.121 0.222,0.12 0.223,0.119 0.223,0.117 0.225,0.115 0.225,0.115 0.226,0.113 0.226,0.112 0.228,0.111 0.228,0.109 0.229,0.107 0.23,0.107 0.23,0.105 0.231,0.104 0.232,0.102 0.233,0.101 0.233,0.1 0.234,0.098 0.235,0.097 0.236,0.095 0.236,0.094 0.237,0.093 0.238,0.091 0.238,0.09 0.239,0.089 0.24,0.087 0.24,0.085 0.241,0.084 0.242,0.083 0.242,0.081 0.243,0.08 0.244,0.079 0.245,0.076 0.245,0.076 0.245,0.074 0.246,0.072 0.247,0.071 0.248,0.07 0.248,0.068 0.249,0.067 0.249,0.065 0.25,0.063 0.251,0.062 0.251,0.061 0.251,0.059 0.253,0.057 0.253,0.056 0.253,0.054 0.254,0.053 0.255,0.052 0.255,0.049 0.256,0.049 0.256,0.046 0.257,0.045 0.257,0.044 0.258,0.042 0.258,0.04 0.259,0.039 0.26,0.037 0.26,0.036 0.26,0.034 0.261,0.032 0.262,0.031 0.262,0.029 0.262,0.028 0.263,0.026 0.264,0.024 0.264,0.022 0.264,0.021 0.265,0.02 0.265,0.017 0.266,0.016 0.266,0.015 0.267,0.012 0.267,0.012 0.268,0.009 0.268,0.008 0.268,0.005 0.269,0.005 0.269,0.002 0.27,10e-4 z" />
        <circle
           id="circle143"
           style="fill:#ffffff"
           r="40"
           cy="842.50256"
           cx="99.829865" />
        <circle
           id="circle145"
           style="fill:none;stroke:#3e7aab;stroke-width:2.25855494px"
           r="39"
           cy="841.86285"
           cx="100.09835" />
        <path
           id="path1948"
           d="m 99.865827,810.75799 c -2.528806,0.0115 -4.943761,0.22741 -7.068673,0.60342 -6.259726,1.10589 -7.396249,3.42061 -7.396249,7.68933 l 0,5.63771 14.792495,0 0,1.87923 -14.792495,0 -5.551497,0 c -4.299111,0 -8.063537,2.58401 -9.241001,7.49969 -1.35819,5.63452 -1.418433,9.15054 0,15.03387 1.051503,4.37932 3.562636,7.49969 7.861747,7.49969 l 5.085998,0 0,-6.75834 c 0,-4.88251 4.224459,-9.18928 9.241002,-9.18928 l 14.775266,0 c 4.1129,0 7.39624,-3.38643 7.39624,-7.51693 l 0,-14.08564 c 0,-4.00885 -3.38191,-7.02028 -7.39624,-7.68933 -2.54114,-0.423 -5.17779,-0.61518 -7.706593,-0.60342 z m -7.99967,4.5343 c 1.527964,0 2.775748,1.26816 2.775748,2.82746 0,1.55378 -1.247784,2.81022 -2.775748,2.81022 -1.533441,0 -2.775748,-1.25644 -2.775748,-2.81022 -10e-7,-1.5593 1.242307,-2.82746 2.775748,-2.82746 z"
           style="fill:url(#linearGradient1478);fill-opacity:1" />
        <path
           id="path1950"
           d="m 116.81341,826.56768 0,6.5687 c 0,5.09262 -4.31756,9.37892 -9.24099,9.37892 l -14.775266,0 c -4.047191,0 -7.396249,3.46385 -7.396249,7.51693 l 0,14.08563 c 0,4.00885 3.485974,6.36682 7.396249,7.51693 4.682474,1.37684 9.172716,1.62567 14.775266,0 3.72407,-1.07824 7.39624,-3.24819 7.39624,-7.51693 l 0,-5.63769 -14.77526,0 0,-1.87924 14.77526,0 7.39625,0 c 4.29912,0 5.90114,-2.99872 7.39625,-7.49969 1.54439,-4.63367 1.47867,-9.08971 0,-15.03387 -1.06245,-4.27979 -3.09167,-7.49969 -7.39625,-7.49969 l -5.5515,0 z m -8.31,35.67095 c 1.53343,0 2.77575,1.25646 2.77575,2.81024 0,1.55929 -1.24232,2.82747 -2.77575,2.82747 -1.52797,0 -2.77575,-1.26818 -2.77575,-2.82747 0,-1.55378 1.24778,-2.81024 2.77575,-2.81024 z"
           style="fill:url(#linearGradient1475);fill-opacity:1" />
      </g>
    </g>
  </g>
</svg>
