<svg xmlns="http://www.w3.org/2000/svg" viewBox="0 0 751.12 744.89"><defs><style>.a{fill:#21e6c1;}.b{fill:#278ea5;}.c{fill:#1f4287;}.d{fill:#fff;}.e{fill:#071e3d;}</style></defs><path class="a" d="M640.58,260.48c-14.53-58.23-43.27-86.6-87.88-86.73l-45.37-.13.19-65.29c.13-44.45-36.17-82.88-86.34-91.39-28.88-4.64-56.34-6.8-81.54-6.41a467,467,0,0,0-75.35,6C229.5,22.67,207.17,32.81,194,48.4c-11.4,13.54-16.29,31.17-16.38,59l-.19,65.28L133,172.51c-53.36-.15-94.52,32.92-107.42,86.32-15,62.35-15.15,99.91-.49,160.74,13,55.92,45.83,86.8,92.56,86.93l40.28.12-.19,65.29c-.12,41,30.79,73.49,84.79,89.17,27.3,8.23,53.11,12.27,78.92,12.34h0c25.81.07,52.06-3.8,80.28-11.84,55.75-15.94,85.28-46.62,85.4-88.7l.2-65.29,64.36.19c54.28.16,72.66-40.28,88.14-85.38,16.39-49.15,16.6-97.58.72-161.92"/><path class="b" d="M672.92,279.9c-14.53-58.23-43.28-86.6-87.88-86.73L539.66,193l.2-65.29c.13-44.45-36.17-82.88-86.35-91.39C424.64,31.72,397.18,29.56,372,30a466.83,466.83,0,0,0-75.34,6c-34.8,6.16-57.12,16.29-70.25,31.88C215,81.36,210.08,99,210,126.78l-.19,65.29-44.44-.14C112,191.78,70.84,224.85,58,278.25c-15,62.35-15.16,99.91-.49,160.74,12.95,55.92,45.83,86.8,92.56,86.94l40.28.11-.19,65.3c-.13,41,30.79,73.48,84.78,89.16,27.31,8.23,53.13,12.27,78.92,12.34h0c25.8.07,52.05-3.8,80.27-11.84,55.75-15.94,85.29-46.62,85.41-88.7l.19-65.28,64.37.18c54.27.16,72.66-40.28,88.14-85.38,16.38-49.15,16.6-97.57.72-161.92"/><path class="c" d="M704.79,303.34c-14.53-58.23-43.28-86.6-87.89-86.73l-45.36-.13.18-65.29c.14-44.44-36.16-82.88-86.34-91.38C456.5,55.16,429,53,403.84,53.4a465.9,465.9,0,0,0-75.35,6c-34.79,6.16-57.11,16.29-70.25,31.89-11.4,13.53-16.29,31.17-16.37,59l-.19,65.29-44.45-.13c-53.36-.16-94.51,32.92-107.42,86.31-15,62.35-15.15,99.91-.48,160.74,13,55.93,45.82,86.8,92.55,86.94l40.28.12L222,614.77c-.12,41,30.8,73.49,84.79,89.17,27.31,8.23,53.12,12.27,78.92,12.34s52.06-3.8,80.28-11.83c55.76-16,85.29-46.62,85.41-88.71l.19-65.28,64.36.18c54.28.16,72.67-40.28,88.15-85.38,16.38-49.15,16.6-97.57.72-161.92"/><path class="d" d="M726.54,317c-14.79-58.16-43.66-86.41-88.27-86.33l-45.37.06-.09-65.29c-.07-44.44-36.55-82.72-86.76-91-28.89-4.51-56.37-6.55-81.56-6a466.77,466.77,0,0,0-75.33,6.31c-34.76,6.32-57,16.55-70.1,32.2-11.34,13.59-16.16,31.24-16.12,59l.1,65.29-44.45.07c-53.36.08-94.37,33.33-107,86.8-14.77,62.41-14.71,100,.23,160.72,13.21,55.87,46.21,86.6,92.94,86.54l40.28-.07.1,65.29c.06,41,31.12,73.35,85.18,88.8,27.34,8.1,53.17,12,79,12s52-4,80.22-12.19c55.68-16.21,85.08-47,85-89.09l-.1-65.29,64.37-.09c54.28-.08,72.48-40.61,87.77-85.78,16.16-49.22,16.16-97.64,0-161.92"/><path class="e" d="M726.5,316.72c-14.78-58.17-43.66-86.41-88.26-86.35l-45.38.08-.09-65.3c-.06-44.44-36.54-82.71-86.75-91-28.9-4.51-56.37-6.55-81.57-6a465.61,465.61,0,0,0-75.32,6.32c-34.76,6.3-57,16.54-70.11,32.19-11.33,13.59-16.16,31.24-16.11,59l.09,65.29-44.44.07c-53.35.08-94.36,33.34-107,86.79-14.77,62.42-14.71,100,.23,160.73,13.2,55.87,46.21,86.6,92.94,86.54L245,565l.09,65.3c.07,41,31.12,73.34,85.19,88.79,27.34,8.11,53.17,12,79,12s52-4,80.23-12.19c55.68-16.2,85.08-47,85-89.09l-.09-65.29,64.36-.09c54.27-.09,72.48-40.61,87.76-85.77,16.16-49.22,16.17-97.65,0-161.92M287.14,230.89l-.1-65.28c-.05-39.05,9.14-57.05,66.25-67.41a441.68,441.68,0,0,1,71.41-6A449.32,449.32,0,0,1,502.19,98c33,5.44,66.39,30.28,66.44,67.21l.13,84.58h0l.09,60.41c.06,45.15-38.83,84.8-83.24,84.87l-152.4.22c-48,.08-88.43,41.09-88.36,89.56l.08,56-40.28.06c-44.09.06-62.09-37-69.44-68-13.89-56.52-13.94-91.45-.21-149.52,10-42,42-68.15,83.59-68.21l212.89-.32,0-24.14ZM638.7,540.27l-231.88.35,0,24.13,143.39-.21.1,65.29c0,30.65-22.71,52.81-67.61,65.86-51.92,15-95.5,15.11-145.72.22-25.3-7.23-67.74-25.37-67.8-65.66L269,484.8c-.05-35.4,29.38-65.34,64.27-65.39l152.4-.22c58.26-.09,107.42-50,107.33-109l-.09-55.57,45.38-.07c32.84,0,52.84,21,64.82,68.13,15,59.48,15.11,103.86.5,148.36-16.19,47.86-29.4,69.22-64.9,69.27"/><path class="e" d="M342.08,125c-16.24,0-29.84,13.84-30.33,30.89a30.79,30.79,0,0,0,30.43,30.34,30.06,30.06,0,0,0,30.33-30.43A30.65,30.65,0,0,0,342.08,125"/><path class="e" d="M468.87,657.09c16.76,0,30.37-13.88,30.34-30.89a30.79,30.79,0,0,0-30.43-30.34,30.07,30.07,0,0,0-30.34,30.43c0,17,13.68,30.83,30.43,30.8"/></svg>