<?xml version="1.0" encoding="utf-8"?>
<!-- Generator: Adobe Illustrator 16.0.4, SVG Export Plug-In . SVG Version: 6.00 Build 0)  -->
<!DOCTYPE svg PUBLIC "-//W3C//DTD SVG 1.1//EN" "http://www.w3.org/Graphics/SVG/1.1/DTD/svg11.dtd">
<svg version="1.1" id="Layer_1" xmlns="http://www.w3.org/2000/svg" xmlns:xlink="http://www.w3.org/1999/xlink" x="0px" y="0px"
	 width="269.542px" height="420.945px" viewBox="0 0 269.542 420.945" enable-background="new 0 0 269.542 420.945"
	 xml:space="preserve">
<path fill-rule="evenodd" clip-rule="evenodd" fill="#0D3D60" d="M12.778,209.468c0.072-0.735,0.154-1.481,0.218-2.216
	c0.21-2.402,0.367-4.813,0.631-7.211c0.651-5.925,1.894-11.729,3.93-17.343c2.42-6.663,5.855-12.69,11.117-17.537
	c5.115-4.724,11.123-7.6,18.037-8.58c1.977-0.28,3.965-0.451,5.968-0.252c0.245,0.023,0.487,0.003,0.734,0.003
	c17.281,0,34.554,0,51.83,0c0.264,0,0.528,0.02,0.791,0.027c-0.149,0.249-0.254,0.544-0.457,0.743
	c-5.086,5.062-10.188,10.107-15.271,15.169c-12.485,12.425-24.962,24.857-37.426,37.302c-11.56,11.543-23.098,23.1-34.658,34.643
	c-0.519,0.521-1.096,0.987-1.646,1.478c-0.492-1.925-1.052-3.841-1.456-5.788c-0.48-2.337-0.895-4.705-1.215-7.061
	c-0.327-2.48-0.539-4.992-0.752-7.488c-0.136-1.574-0.173-3.156-0.266-4.734c-0.006-0.133-0.07-0.257-0.109-0.381
	C12.778,216.646,12.778,213.057,12.778,209.468z"/>
<path fill-rule="evenodd" clip-rule="evenodd" fill="#0D3D60" d="M114.971,147.889c0.124-0.175,0.227-0.381,0.375-0.537
	c3.806-3.81,7.61-7.628,11.42-11.426c12.233-12.191,24.465-24.387,36.706-36.575c0.818-0.816,1.684-1.598,2.509-2.402
	c0.167-0.163,0.276-0.397,0.397-0.591c2.352,0.743,4.729,1.392,7.027,2.247c4.588,1.707,8.863,4.024,12.587,7.247
	c4.554,3.95,7.713,8.755,8.696,14.796c0.227,1.419,0.188,2.881,0.194,4.323c0.023,3.406-0.006,6.807-0.006,10.209
	c-0.224,0.124-0.489,0.213-0.656,0.377c-5.175,5.116-10.349,10.236-15.511,15.371c-12.263,12.223-24.522,24.434-36.778,36.66
	c-7.684,7.67-15.349,15.341-23.013,23.023c-0.19,0.19-0.27,0.509-0.396,0.77c-0.344,0.004-0.69,0.027-1.04,0.027
	c-5.404,0.008-10.812-0.058-16.211,0.027c-5.381,0.097-10.592,1.069-15.473,3.464c-6.261,3.055-10.699,7.888-13.636,14.15
	c-1.415,3.025-2.346,6.197-3.003,9.459c-0.539,2.679-0.745,5.377-0.743,8.098c0.012,9.381,0.008,18.762,0.008,28.139
	c0,0.206,0,0.4,0,0.658c-0.214,0.012-0.389,0.038-0.564,0.038c-7.382-0.004-14.765,0.062-22.146-0.046
	c-2.16-0.035-4.29-0.678-6.347-1.424c-6.176-2.212-11.006-6.178-14.86-11.395c-3.744-5.065-6.174-10.754-7.929-16.764
	c-0.008-0.039-1.458-5.862-1.458-5.908c0.55-0.49,0.031,0.031,0.55-0.49c11.56-11.543,23.104-21.871,34.664-33.414
	c12.464-12.444,25.381-24.908,37.867-37.333c5.083-5.062,7.093-7.274,12.179-12.335c0.203-0.199,5.505,0.276,5.654,0.027
	c0.247-0.007,0.488-0.022,0.737-0.022c9.416-0.004,18.837-0.004,28.261-0.004c0.239,0,0.484,0,0.787,0c0-2.811,0-5.583,0-8.424
	c-0.252,0-0.482,0-0.721,0c-6.465,0-12.928,0-19.392,0C115.46,147.908,115.215,147.892,114.971,147.889z"/>
<path fill-rule="evenodd" clip-rule="evenodd" fill="#0D3D60" d="M118.522,211.381c0.126-0.261-1.23,0.217-1.04,0.027
	c2.604-10.44,13.45-17.831,21.134-25.501c12.256-12.226,26.339-25.776,38.602-37.999c5.162-5.135,11.827-7.235,17.002-12.351
	c0,0,0.438-3.161,0.662-3.285c0,0.167,0.01,3.23,0.01,3.39c0,14.746,0.038,29.503-0.024,44.253
	c-0.018,5.606-1.045,11.025-3.811,16.006c-3.248,5.831-8.146,9.769-14.234,12.331c-3.164,1.329-6.45,2.251-9.854,2.683
	c-1.903,0.241-3.823,0.447-5.738,0.451c-13.991,0.039-27.987,0.023-41.984,0.023C119.009,211.408,118.759,211.385,118.522,211.381z"
	/>
<path fill-rule="evenodd" clip-rule="evenodd" fill="#0D3D60" d="M114.971,147.889c-0.222,0.003-0.447,0.02-0.668,0.02
	c-12.4,0-24.795,0-37.195,0c-0.243,0-0.484,0-0.789,0c0-0.308,0-0.537,0-0.782c-0.014-8.763,0.175-17.542-0.102-26.296
	c-0.223-7.041,2.91-12.169,8.081-16.383c4.152-3.378,8.992-5.462,14.046-7.079c4.681-1.505,9.48-2.527,14.351-3.137
	c3.726-0.459,7.486-0.708,11.231-1.026c1.491-0.125,2.99-0.171,4.49-0.265c0.091-0.007,0.175-0.069,0.26-0.108
	c3.96,0,7.916,0,11.873,0c0.811,0.085,1.625,0.187,2.439,0.245c2.662,0.214,5.324,0.396,7.986,0.61
	c1.211,0.104,2.426,0.206,3.626,0.361c3.894,0.525,7.763,1.198,11.565,2.212c0.068,0.015,0.141,0.062,0.211,0.097
	c-0.121,0.194,7.194,2.084,7.027,2.247c-0.825,0.804-3.933,3.342-4.751,4.158c-12.24,12.188-26.331,24.814-39.569,35.905
	c-4.124,3.455-6.745,5.147-10.551,8.957C118.386,147.78,115.095,147.713,114.971,147.889z"/>
<path fill="#0D3D60" d="M62.258,139.339c-0.161-0.295-0.323-0.587-0.49-0.894c-0.023-0.035,0.014-0.101,0.059-0.074
	c0.853,0.513,1.576,1.135,2.231,1.82c0.462,0.151,0.944,0.288,1.47,0.412c1.811,0.377,3.345,0.937,4.994,1.874
	c1.02,0.595,0.25,2.542-0.769,1.94c-1.173-0.708-2.327-1.158-3.44-1.524c0.387,0.494,0.77,0.988,1.189,1.481
	c3.072,3.635,7.125,3.934,11.25,2.309c2.768-1.088,5.264-2.492,7.343-4.347c0.029-0.151,0.091-0.311,0.216-0.427
	c0.597-0.568,1.213-1.139,1.827-1.714c0.269-0.331,0.52-0.649,0.762-1.003c-3.324,2.03-7.595,0.891-10.677-2.558
	c-2.233-2.488-3.716-5.33-4.241-8.798c-1.676,3.118-4.516,5.754-7.532,3.706c-4.003-2.729-1.868-7.834,2.018-9.396
	c0.763-0.299,1.146,0.972,0.412,1.361c-1.465,0.583-2.441,1.78-2.933,3.588c0.41,2.484,1.673,3.363,3.778,2.647
	c1.157-0.603,2.175-1.629,2.762-2.99c0.612-1.427,2.152-6.395,0.103-7.308c-2.288-1.015-5.118-0.521-7.538-0.797
	c-1.516-0.167-3.26-0.739-4.455-1.727c-0.869,4.853-2.576,9.72-2.168,14.498c0.064,0.727,0.164,1.384,0.279,1.998
	c0.373-0.35,1.006,0.042,0.746,0.61c-0.13,0.284-0.284,0.513-0.426,0.766C59.64,136.898,60.674,138.368,62.258,139.339z"/>
<g>
	<path fill="#0D3D60" d="M151.608,84.998c0.752,2.398,1.189,4.917,0.511,7.834c-1.145,4.94-3.915,10.66-9.263,12.207
		c-0.228,0.07-0.433,0.085-0.654,0.14c0.723,0.451,1.668,1.178,2.566,2.072c7.022,0.121,14.252-4.14,16.504-11.154
		c1.695-5.275,1.474-10.792,2.113-16.219c-1.578,1.524-3.334,2.647-5.465,3.305C156.112,84.399,153.956,85.103,151.608,84.998z"/>
	<path fill="#0D3D60" d="M145.872,100.619c5.796-5.361,6-12.717,3.631-19.722c-0.646-1.913-1.073-3.631-1.064-5.466
		c-1.987,3.032-6.268,3.744-9.711,4.583c-4.732,1.139-9.085,3.079-9.579,8.657c-0.371,4.188,0.878,7.037,3.617,9.37
		c-0.213-2.764,0.762-5.731,3.223-7.873c4.146-3.612,12.35-0.105,8.009,5.407c-3.034,3.861-7.079,3.386-8.353-0.295
		c-0.214,0.459-0.329,0.933-0.323,1.388C135.409,102.734,141.466,104.693,145.872,100.619z"/>
	<path fill="#0D3D60" d="M140.977,95.713c0.859-0.762,2.02-1.956,2.023-3.208c0.01-2.52-3.77-1.275-6.03,0.959
		C137.686,95.335,138.895,97.578,140.977,95.713z"/>
</g>
<path fill="#0D3D60" d="M94.475,100.759c0.039-0.016,0.065-0.054,0.103-0.07c1.685-0.307,3.221-0.494,4.819-1.174
	c1.53-0.653,3.198-1.124,4.689-1.823c-3.832-5.532-3.252-15.745,4.402-17.075c5.907-1.022,14.041,5.824,6.844,10.158
	c-0.886,0.533-1.851-0.976-0.978-1.535c4.057-2.625-0.661-6.081-3.497-6.551c-5.151-0.871-7.087,5.668-6.79,9.393
	c0.694,8.689,11.138,10.127,16.773,5.583c4.488-3.624,7.073-10.216,6.739-15.881c-0.2-3.386-0.56-6.574-1.708-9.809
	c-0.414-1.034-0.989-1.994-1.648-2.9c-0.286-0.163-0.49-0.404-0.537-0.731c-0.093-0.112-0.163-0.237-0.261-0.354
	c-4.374-5.535-5.114,7.367-4.955,7.752c0.635,1.548-1.714,2.66-2.358,1.116c-1.703-4.113-0.62-7.682,2.004-10.57
	c-3.252-12.238-21.798-20.888-33.574-15.55c5.68,0.042,10.703,3.141,13.72,8.7c4.857,8.961-5.88,15.776-7.177,23.838
	c-0.05,0.307-0.188,0.541-0.361,0.72C92.57,89.504,94.265,95.191,94.475,100.759z"/>
<g>
	<path fill="#0D3D60" d="M87.306,68.72c-5.301-6.636-14.06-10.24-22.188-11.756c-0.729-0.14-0.96,0.801-0.299,1.084
		c8.604,3.6,9.167,13.778,9.495,21.852c0.276,6.742,0.658,13.44,3.462,19.723c2.92,6.508,7.548,13.84,14.19,17.113
		c1.188,0.595,2.41,1.089,3.647,1.543c-4.387-0.618-8.787-1.139-13.088-1.843c-9.187-1.492-27.346-3.238-30.849-13.673
		c0.016-0.066,0.016-0.136,0.023-0.213c0.061-0.385-0.097-0.692-0.327-0.914c-0.014-0.043-0.017-0.097-0.029-0.152
		c2.854,1.8,6.621,2.585,9.504,1.24c0.727-0.334,0.214-1.59-0.537-1.298c-3.983,1.528-7.49-1.283-10.563-3.414
		c-0.053-0.035-0.107-0.051-0.157-0.07c-1.188-4.949-1.864-9.983-2.35-15.426c-0.4-4.494-1.199-8.685-4.626-11.359
		c3.755-0.202,7.338,0.622,9.869,3.779c0.247,0.315,0.865,0.233,1.019-0.125c2.234-5.042,0.091-8.63-4.726-11.006
		c-3.845-1.893-8.028-3.164-10.481-7.009c-2.134-3.358-3.493-7.142-4.027-11.095c-0.69-5.019-0.546-9.848,0.278-14.847
		c0.297-1.792,0.747-3.62,0.181-5.396c-0.696-2.177-3.837-3.638-5.334-5.131c-3.788-3.779-3.034-7.111-2.072-11.123
		c2.123,3.616,8.639,5.455,11.69,7.126c7.122,3.875,5.031,9.396,5.151,16.246c0.056,3.169,1.899,5.645,4.099,7.725
		c0.411,1.703,1.408,3.273,3.192,4.599c0.545,0.396,1.207-0.482,0.721-0.937c-0.44-0.4-0.793-0.824-1.12-1.251
		c0.012,0.004,0.02,0.016,0.025,0.016c0.264,0.214,0.628-0.125,0.377-0.386c-0.48-0.489-0.96-0.979-1.434-1.488
		c-1.627-4.27,1.079-9.203,4.263-12.736c-0.2,7.176,7.083,10.846,13.21,13.649c4.066,1.862,8.714,4.541,12.831,7.884
		c0.035,0.081,0.078,0.155,0.118,0.241c0.961,2.127,1.375,3.962,1.149,6.29c-0.045,0.498,0.63,0.498,0.792,0.113
		c0.71-1.671,0.129-3.732-0.534-5.346c5.726,5.081,10.026,11.531,9.483,18.944c-0.107,1.446-0.41,2.741-0.826,3.946
		C89.534,71.687,87.895,69.463,87.306,68.72z"/>
	<path fill="#0D3D60" d="M98.425,106.349c1.93,4.961,4.925,10.081,9.285,12.868c-4.158-0.439-8.378-0.828-12.256-2.434
		c-6.531-2.721-11.645-8.133-14.831-14.412c-4.943-9.746-4.104-19.387-5.691-29.771c-0.544-3.546-1.23-7.561-3.388-10.543
		c-0.806-1.124-1.617-2.255-2.758-3.071c-0.031-0.031-0.062-0.051-0.093-0.074c5.39,1.465,10.827,3.79,14.935,7.562
		c1.051,0.976,5.16,5.388,6.418,8.604c-1.53,3.619-3.991,6.574-5.287,10.551c-0.861,2.651-0.572,5.24,1.51,7.305
		c1.268,1.256,8.564,7.546,10.541,5.069C96.858,100.825,97.376,103.639,98.425,106.349z"/>
</g>
<g>
	<path fill-rule="evenodd" clip-rule="evenodd" fill="#FFFFFF" d="M108.709,124.831c0,4.599-3.73,8.335-8.33,8.335
		c-4.598,0-8.329-3.736-8.329-8.335c0-4.599,3.73-8.327,8.329-8.327C104.979,116.504,108.709,120.232,108.709,124.831z"/>
</g>
<g>
	<path fill-rule="evenodd" clip-rule="evenodd" fill="none" stroke="#FFFFFF" stroke-miterlimit="10" d="M109.767,123.113
		c0,6.387-5.176,11.558-11.559,11.558c-6.384,0-11.561-5.17-11.561-11.558c0-6.384,5.177-11.562,11.561-11.562
		C104.59,111.551,109.767,116.729,109.767,123.113z"/>
</g>
<path fill-rule="evenodd" clip-rule="evenodd" fill="#A81D41" d="M166.683,222.991c3.643-0.059-2.805,4.885-4.139,3.894
	c-1.606,1.676,0,0-1.61,1.668c-1.883,1.955,0,0-1.873,1.947c-1.888,1.973-3.676,3.781-5.561,5.75c-1.858,1.939-6.9,7.125-8.75,9.066
	c-1.86,1.943-2.892,3.248-4.75,5.184c-1.859,1.938-3.372,3.315-5.229,5.25c-1.888,1.973-3.388,3.536-5.271,5.5
	c-1.825,1.913-4.665,4.711-6.492,6.624c-1.842,1.928,0,0-1.842,1.933c-1.869,1.949,0,0-1.873,1.943
	c-1.884,1.968-11.373,11.037-13.258,13c-1.813,1.902-4.97,4.352-6.785,6.25c-1.899,1.986-4.597,4.355-6.5,6.33
	c-1.841,1.932-9.405,6.864-11.25,8.789c-1.912,1.998,1.901-2.011,0,0c-1.124,1.196-5.155,3.285-6.257,4.504
	c-0.042,0.043-0.093-0.809-0.15-0.781c0.15,0.781-0.419-1.815-0.325-5.774c0.029-0.25-0.008-0.278-0.008-0.539
	c0.002-18.09-0.011-36.183,0.015-54.271c0.008-4.922,0.978-9.674,3.129-14.145c2.352-4.875,5.921-8.639,10.542-11.42
	c4.72-2.842,9.874-4.409,15.315-5.049c1.753-0.203,3.538-0.318,5.302-0.318c17.504-0.023,42.094-0.059,59.591-0.063
	C168.936,218.262,169.619,226.631,166.683,222.991z"/>
<path fill-rule="evenodd" clip-rule="evenodd" fill="#A81D41" d="M121.903,336.394c-8.077-0.613-16.028-1.891-23.715-4.545
	c-5.537-1.915-10.704-4.504-15.09-8.465c-3.858-3.479-6.617-7.66-7.855-12.761c-0.065-0.261-0.1-0.521-0.15-0.781
	c0.058-0.027,2.313-2.489,2.355-2.532c1.102-1.219,0,0,1.124-1.196c1.901-2.011,3.831-3.997,5.743-5.995
	c1.845-1.925,3.688-3.852,5.529-5.783c1.903-1.975,3.804-3.959,5.703-5.945c1.814-1.898,3.629-3.787,5.443-5.689
	c1.885-1.963,3.774-3.938,5.658-5.906c1.873-1.943,3.747-3.906,5.616-5.855c1.842-1.933,3.688-3.854,5.531-5.781
	c1.827-1.913,3.658-3.818,5.483-5.731c1.883-1.964,3.773-3.935,5.661-5.907c1.857-1.935-2.994-6.265-1.134-8.203
	c1.858-1.937,10.419-1.495,12.28-3.438c1.85-1.94,3.712-3.877,5.57-5.816c1.885-1.969,3.77-3.936,5.657-5.908
	c1.873-1.947,3.734-3.912,5.617-5.867c1.61-1.668-2.351-4.308-0.745-5.983c0.253-0.269,6.022,0.368,6.23,0.058
	c0.282-0.02,0.567-0.051,0.843-0.051c3.367-0.02,6.73,0.061,10.08-0.406c7.418-1.043,13.943-3.869,19.054-9.517
	c3.325-3.674,5.591-7.975,6.933-12.718c0.689-2.444,1.164-4.952,1.582-7.449c0.246-1.531,0.283-3.119,0.283-4.672
	c0.023-9.482,0.016-18.968,0.014-28.458c0-0.237,0-0.482,0-0.832c0.236,0,0.449,0,0.665-0.001c6.874,0,13.744-0.048,20.62,0.009
	c4.367,0.042,8.415,1.359,12.211,3.483c5.518,3.098,9.618,7.611,12.803,13.006c3.331,5.628,5.414,11.747,6.793,18.119
	c0.535,2.419,0.948,4.876,1.321,7.324c0.208,1.299,0.274,2.628,0.273,3.938c0.022,8.883-0.023,17.751,0.054,26.629
	c0.014,3.13-0.297,6.209-0.9,9.279c-0.937,4.787-2.22,9.465-4.146,13.959c-2.768,6.41-6.57,12.064-12.128,16.396
	c-4.871,3.818-10.402,6.137-16.563,6.795c-1.985,0.217-3.989,0.164-5.979,0.164c-23.358,0.016-46.713,0.014-70.064,0.018
	c-3.875,0.001-7.748-0.002-11.629-0.002c-0.218,0-0.439,0-0.711,0c0,2.807,0,5.57,0.002,8.425c0.247,0,0.505,0,0.755-0.001
	c12.771-0.002,25.536-0.004,38.301-0.006c0.268-0.001,0.53,0.019,0.798,0.029c-0.133,0.266-0.219,0.58-0.407,0.773
	c-1.821,1.935-3.648,3.83-5.48,5.744c-1.887,1.972-3.771,3.938-5.656,5.91c-1.872,1.953-3.744,3.9-5.613,5.855
	c-1.846,1.93-3.689,3.85-5.531,5.774c-1.871,1.952-3.746,3.911-5.613,5.868c-1.875,1.955-3.746,3.906-5.611,5.859
	c-1.887,1.969-3.775,3.928-5.663,5.906c-1.827,1.905-3.648,3.822-5.487,5.721c-1.636,1.71-3.304,3.371-4.936,5.086
	C123.052,334.974,122.495,335.7,121.903,336.394z"/>
<path fill-rule="evenodd" clip-rule="evenodd" fill="#A81D41" d="M120.085,336.152c0.585-0.7,1.142-1.427,1.771-2.084
	c1.629-1.706,3.293-3.38,4.938-5.075c1.837-1.899,3.657-3.822,5.486-5.727c1.882-1.976,3.769-3.938,5.656-5.906
	c1.873-1.957,3.74-3.912,5.619-5.859c1.865-1.961,3.741-3.913,5.611-5.861c1.846-1.924,3.686-3.857,5.527-5.781
	c1.869-1.947,3.744-3.908,5.617-5.855c1.886-1.977,3.767-3.938,5.65-5.902c1.834-1.913,0.509-5.259-2.029-6.002
	c-2.785-0.815-0.416,0.785,0,0c0.388-0.007,8.561-0.304,8.947-0.305c5.875-0.009,11.883-0.251,17.751-0.253
	c0.241,0.001,0.832,0.681,0.795,0.001c0.015,0.252,0.036,0.461,0.037,0.68c0.038,8.891-0.079,17.785,0.135,26.669
	c0.163,6.488-2.603,11.415-7.31,15.5c-4.277,3.699-9.35,5.958-14.678,7.671c-4.301,1.377-8.688,2.367-13.157,2.977
	c-2.771,0.373-5.554,0.686-8.337,0.969c-1.693,0.184-3.394,0.319-5.092,0.354c-5.272,0.118-10.542,0.197-15.806,0.237
	c-1.705,0.015-3.408-0.136-5.108-0.236C121.435,336.327,120.761,336.224,120.085,336.152z"/>
<path fill="#A81D41" d="M172.696,329.4c-0.047,0.015-0.066,0.062-0.113,0.069c-1.676,0.328-3.211,0.524-4.805,1.225
	c-1.522,0.662-3.186,1.133-4.673,1.857c3.874,5.494,3.382,15.717-4.265,17.104c-5.895,1.078-14.086-5.707-6.924-10.091
	c0.883-0.554,1.855,0.945,0.988,1.521c-4.035,2.65,0.711,6.066,3.55,6.523c5.159,0.823,7.04-5.73,6.715-9.447
	c-0.767-8.686-11.22-10.039-16.819-5.451c-4.459,3.657-6.987,10.272-6.607,15.936c0.226,3.383,0.611,6.565,1.787,9.786
	c0.42,1.039,1.004,1.995,1.668,2.896c0.291,0.151,0.494,0.407,0.545,0.72c0.095,0.123,0.16,0.24,0.26,0.352
	c4.424,5.5,5.059-7.402,4.896-7.783c-0.646-1.544,1.691-2.682,2.345-1.133c1.738,4.095,0.688,7.665-1.916,10.587
	c3.354,12.213,21.966,20.705,33.702,15.274c-5.684,0.001-10.728-3.051-13.79-8.59c-4.932-8.911,5.75-15.826,6.979-23.898
	c0.048-0.316,0.185-0.536,0.36-0.721C174.686,340.643,172.946,334.979,172.696,329.4z"/>
<g>
	<path fill="#A81D41" d="M115.93,344.274c-0.672-2.426-1.027-4.959-0.25-7.859c1.304-4.894,4.258-10.518,9.655-11.893
		c0.226-0.057,0.437-0.068,0.663-0.117c-0.707-0.467-1.639-1.232-2.505-2.151c-7.016-0.35-14.37,3.671-16.864,10.607
		c-1.859,5.222-1.819,10.729-2.635,16.142c1.628-1.474,3.415-2.542,5.567-3.125C111.41,344.718,113.585,344.091,115.93,344.274z"/>
	<path fill="#A81D41" d="M122.174,328.849c-5.969,5.17-6.417,12.516-4.273,19.587c0.583,1.931,0.956,3.673,0.885,5.501
		c2.087-2.965,6.385-3.539,9.854-4.262c4.765-0.984,9.185-2.784,9.861-8.346c0.506-4.169-0.656-7.061-3.311-9.471
		c0.125,2.762-0.949,5.698-3.482,7.756c-4.264,3.473-12.341-0.295-7.826-5.677c3.163-3.755,7.187-3.149,8.338,0.579
		c0.228-0.447,0.36-0.916,0.369-1.374C132.696,327.069,126.709,324.917,122.174,328.849z"/>
	<path fill="#A81D41" d="M126.906,333.907c-0.882,0.739-2.084,1.886-2.129,3.143c-0.097,2.521,3.727,1.392,6.056-0.765
		C130.183,334.389,129.047,332.118,126.906,333.907z"/>
</g>
<path fill="#A81D41" d="M205.624,290.174c0.166,0.294,0.334,0.581,0.506,0.886c0.025,0.033-0.012,0.102-0.057,0.075
	c-0.861-0.499-1.596-1.107-2.264-1.78c-0.465-0.143-0.949-0.271-1.477-0.387c-1.816-0.345-3.361-0.877-5.025-1.785
	c-1.031-0.577-0.295-2.537,0.734-1.953c1.186,0.688,2.347,1.117,3.467,1.463c-0.396-0.487-0.787-0.974-1.216-1.461
	c-3.135-3.58-7.192-3.807-11.288-2.109c-2.748,1.137-5.219,2.584-7.266,4.475c-0.027,0.152-0.086,0.312-0.209,0.432
	c-0.586,0.578-1.191,1.16-1.796,1.746c-0.263,0.336-0.508,0.658-0.745,1.018c3.288-2.089,7.578-1.025,10.721,2.368
	c2.277,2.448,3.811,5.264,4.396,8.722c1.621-3.146,4.413-5.831,7.465-3.836c4.051,2.658,2.006,7.799-1.852,9.43
	c-0.759,0.312-1.163-0.952-0.435-1.354c1.454-0.608,2.409-1.822,2.868-3.64c-0.453-2.477-1.732-3.332-3.824-2.579
	c-1.146,0.622-2.146,1.666-2.709,3.037c-0.587,1.438-2.039,6.432,0.025,7.309c2.305,0.975,5.126,0.432,7.551,0.665
	c1.52,0.141,3.273,0.682,4.485,1.647c0.784-4.867,2.403-9.764,1.913-14.533c-0.078-0.726-0.189-1.381-0.314-1.993
	c-0.367,0.358-1.008-0.024-0.758-0.597c0.125-0.285,0.275-0.518,0.412-0.773C208.286,292.568,207.225,291.118,205.624,290.174z"/>
<g>
	<path fill="#A81D41" d="M180.889,360.296c5.156,6.751,13.836,10.541,21.93,12.234c0.727,0.154,0.977-0.78,0.322-1.079
		c-8.523-3.786-8.866-13.972-9.02-22.052c-0.129-6.746-0.366-13.451-3.034-19.793c-2.778-6.57-7.247-14-13.815-17.416
		c-1.175-0.621-2.387-1.142-3.613-1.622c4.373,0.713,8.76,1.328,13.045,2.126c9.152,1.689,27.27,3.83,30.545,14.336
		c-0.017,0.066-0.019,0.137-0.026,0.214c-0.069,0.384,0.082,0.695,0.306,0.92c0.014,0.045,0.015,0.099,0.027,0.153
		c-2.815-1.861-6.564-2.729-9.476-1.445c-0.734,0.318-0.247,1.584,0.509,1.31c4.014-1.441,7.46,1.444,10.486,3.64
		c0.053,0.037,0.106,0.055,0.156,0.076c1.08,4.973,1.646,10.02,2.014,15.473c0.304,4.501,1.013,8.707,4.379,11.456
		c-3.758,0.122-7.322-0.78-9.783-3.99c-0.24-0.321-0.861-0.253-1.021,0.103c-2.343,4.991-0.278,8.624,4.485,11.104
		c3.803,1.976,7.957,3.338,10.326,7.235c2.062,3.402,3.338,7.215,3.787,11.18c0.582,5.033,0.332,9.857-0.6,14.838
		c-0.337,1.784-0.825,3.603-0.298,5.391c0.649,2.191,3.758,3.72,5.222,5.244c3.705,3.862,2.879,7.175,1.83,11.166
		c-2.043-3.66-8.518-5.642-11.533-7.378c-7.036-4.028-4.826-9.503-4.797-16.354c0.012-3.17-1.777-5.685-3.932-7.813
		c-0.374-1.708-1.336-3.302-3.093-4.665c-0.535-0.409-1.217,0.454-0.739,0.921c0.43,0.41,0.773,0.84,1.09,1.275
		c-0.01-0.004-0.018-0.017-0.023-0.016c-0.258-0.221-0.631,0.111-0.386,0.378c0.471,0.499,0.94,0.997,1.402,1.519
		c1.534,4.304-1.278,9.174-4.538,12.641c0.355-7.171-6.846-10.998-12.91-13.931c-4.025-1.952-8.614-4.73-12.658-8.163
		c-0.033-0.082-0.074-0.157-0.112-0.241c-0.915-2.148-1.29-3.993-1.014-6.317c0.056-0.494-0.618-0.51-0.79-0.129
		c-0.746,1.656-0.209,3.729,0.419,5.356c-5.616-5.203-9.776-11.745-9.071-19.146c0.139-1.441,0.47-2.73,0.911-3.926
		C178.727,357.28,180.317,359.539,180.889,360.296z"/>
	<path fill="#A81D41" d="M170.588,322.436c-1.821-5.003-4.705-10.186-9.004-13.067c4.146,0.529,8.357,1.01,12.201,2.699
		c6.47,2.862,11.465,8.384,14.515,14.73c4.731,9.852,3.683,19.471,5.045,29.887c0.468,3.556,1.065,7.587,3.159,10.613
		c0.781,1.142,1.567,2.291,2.691,3.131c0.03,0.033,0.062,0.053,0.092,0.075c-5.357-1.58-10.743-4.024-14.769-7.881
		c-1.028-1.001-5.041-5.5-6.229-8.741c1.607-3.586,4.133-6.486,5.516-10.434c0.918-2.633,0.684-5.228-1.354-7.338
		c-1.24-1.283-8.398-7.729-10.429-5.295C172.036,327.992,171.579,325.167,170.588,322.436z"/>
</g>
<g>
	<g>
		<path fill-rule="evenodd" clip-rule="evenodd" fill="#FFFFFF" d="M177.218,303.231c0.001,4.725-3.83,8.563-8.557,8.564
			c-4.733,0-8.571-3.836-8.573-8.561c0.001-4.736,3.836-8.57,8.57-8.57C173.385,294.663,177.217,298.495,177.218,303.231z"/>
	</g>
	<g>
		<path fill-rule="evenodd" clip-rule="evenodd" fill="none" stroke="#FFFFFF" stroke-miterlimit="10" d="M182.833,306.125
			c0.001,6.554-5.32,11.88-11.888,11.882c-6.562,0.001-11.882-5.322-11.884-11.878c0-6.571,5.316-11.896,11.879-11.897
			C177.508,294.23,182.831,299.553,182.833,306.125z"/>
	</g>
</g>
</svg>
