<?xml version="1.0" encoding="UTF-8" standalone="no"?>
<!-- Created with Inkscape (http://www.inkscape.org/) -->

<svg
   version="1.0"
   id="svg2"
   width="88.113998pt"
   height="89.039001pt"
   viewBox="-3 -3 119.56869 120.8239"
   xmlns="http://www.w3.org/2000/svg"
   xmlns:svg="http://www.w3.org/2000/svg"
   xmlns:rdf="http://www.w3.org/1999/02/22-rdf-syntax-ns#"
   xmlns:cc="http://creativecommons.org/ns#"
   xmlns:dc="http://purl.org/dc/elements/1.1/">
  <metadata
     id="metadata371">
    <rdf:RDF>
      <cc:Work
         rdf:about="">
        <dc:format>image/svg+xml</dc:format>
        <dc:type
           rdf:resource="http://purl.org/dc/dcmitype/StillImage" />
      </cc:Work>
    </rdf:RDF>
  </metadata>
  <defs
     id="defs4">
    <clipPath
       clipPathUnits="userSpaceOnUse"
       id="clipPath7">
      <path
         style="fill:#4d4d4d;fill-opacity:1;stroke:#000000;stroke-opacity:1"
         d="M 54.918785,9.1927421e-4 C 50.335132,0.02221727 45.957846,0.41313697 42.106285,1.0946693 30.760069,3.0991731 28.700036,7.2947714 28.700035,15.032169 v 10.21875 h 26.8125 v 3.40625 h -26.8125 -10.0625 c -7.792459,0 -14.6157588,4.683717 -16.7499998,13.59375 -2.46181998,10.212966 -2.57101508,16.586023 0,27.25 1.9059283,7.937852 6.4575432,13.593748 14.2499998,13.59375 h 9.21875 v -12.25 c 0,-8.849902 7.657144,-16.656248 16.75,-16.65625 h 26.78125 c 7.454951,0 13.406253,-6.138164 13.40625,-13.625 v -25.53125 c 0,-7.2663386 -6.12998,-12.7247771 -13.40625,-13.9374997 C 64.281548,0.32794397 59.502438,-0.02037903 54.918785,9.1927421e-4 Z m -14.5,8.21875012579 c 2.769547,0 5.03125,2.2986456 5.03125,5.1249996 -2e-6,2.816336 -2.261703,5.09375 -5.03125,5.09375 -2.779476,-1e-6 -5.03125,-2.277415 -5.03125,-5.09375 -10e-7,-2.826353 2.251774,-5.1249996 5.03125,-5.1249996 z"
         id="path8" />
    </clipPath>
    <clipPath
       clipPathUnits="userSpaceOnUse"
       id="clipPath10">
      <path
         style="display:inline;fill:#4d4d4d;fill-opacity:1;stroke:#000000;stroke-opacity:1"
         d="m 85.637535,28.657169 v 11.90625 c 0,9.230755 -7.825895,16.999999 -16.75,17 h -26.78125 c -7.335833,0 -13.406249,6.278483 -13.40625,13.625 v 25.531247 c 0,7.266344 6.318588,11.540324 13.40625,13.625004 8.487331,2.49561 16.626237,2.94663 26.78125,0 6.750155,-1.95439 13.406253,-5.88761 13.40625,-13.625004 V 86.500919 h -26.78125 v -3.40625 h 26.78125 13.406254 c 7.792461,0 10.696251,-5.435408 13.406241,-13.59375 2.79933,-8.398886 2.68022,-16.475776 0,-27.25 -1.92578,-7.757441 -5.60387,-13.59375 -13.406241,-13.59375 z m -15.0625,64.65625 c 2.779478,3e-6 5.03125,2.277417 5.03125,5.093747 -2e-6,2.826354 -2.251775,5.125004 -5.03125,5.125004 -2.76955,0 -5.03125,-2.29865 -5.03125,-5.125004 2e-6,-2.81633 2.261697,-5.093747 5.03125,-5.093747 z"
         id="path10" />
    </clipPath>
  </defs>
  <path
     style="display:inline;fill:#ffffff;fill-opacity:1;stroke:#002f6c;stroke-opacity:1"
     d="m 86.131753,29.15717 v 11.90625 c 0,9.230755 -7.825895,16.999999 -16.75,17 h -26.78125 c -7.335833,0 -13.406249,6.278483 -13.40625,13.625 v 25.531247 c 0,7.266343 6.318588,11.540323 13.40625,13.625003 8.487331,2.49561 16.626237,2.94663 26.78125,0 6.750155,-1.95439 13.406253,-5.88761 13.40625,-13.625003 V 87.00092 h -26.78125 v -3.40625 h 26.78125 13.406254 c 7.792463,0 10.696253,-5.435408 13.406243,-13.59375 2.79933,-8.398886 2.68022,-16.475776 0,-27.25 -1.92578,-7.757441 -5.60387,-13.59375 -13.406243,-13.59375 z m -15.0625,64.65625 c 2.779478,3e-6 5.03125,2.277417 5.03125,5.093747 -2e-6,2.826353 -2.251775,5.125003 -5.03125,5.125003 -2.76955,0 -5.03125,-2.29865 -5.03125,-5.125003 2e-6,-2.81633 2.261697,-5.093747 5.03125,-5.093747 z"
     id="path9" />
  <path
     style="display:inline;fill:#ffffff;fill-opacity:1;stroke:#002f6c;stroke-opacity:1;stroke-width:1.00009222;stroke-dasharray:none"
     d="M 55.413003,0.50092002 C 50.82935,0.52221802 46.452064,0.91313772 42.600503,1.59467 31.254287,3.5991738 29.194254,7.7947721 29.194253,15.53217 v 10.21875 h 26.8125 v 3.40625 h -26.8125 -10.0625 c -7.792459,0 -14.615759,4.683717 -16.75,13.59375 -2.46182001,10.212966 -2.57101511,16.586023 0,27.25 1.9059283,7.937852 6.4575432,13.593748 14.25,13.59375 h 9.21875 v -12.25 c 0,-8.849902 7.657144,-16.656248 16.75,-16.65625 h 26.78125 c 7.454951,0 13.406253,-6.138164 13.40625,-13.625 V 15.53217 c 0,-7.2663389 -6.12998,-12.7247774 -13.40625,-13.9375 C 64.775766,0.82794472 59.996656,0.47962172 55.413003,0.50092002 Z m -14.5,8.21875008 c 2.769547,0 5.03125,2.2986459 5.03125,5.1249999 -2e-6,2.816336 -2.261703,5.09375 -5.03125,5.09375 -2.779476,-1e-6 -5.03125,-2.277415 -5.03125,-5.09375 -1e-6,-2.826353 2.251774,-5.1249999 5.03125,-5.1249999 z"
     id="path7" />
  <g
     id="layer1"
     clip-path="url(#clipPath7)"
     style="display:inline"
     transform="translate(0.49421777,0.50000075)">
    <rect
       style="fill:#002f6c;fill-opacity:1;stroke-width:0.990061"
       id="rect3"
       width="111.67227"
       height="25.5394"
       x="-1.0015448"
       y="57.588833" />
    <rect
       style="fill:#002f6c;fill-opacity:1;stroke-width:1.07084"
       id="rect3-4"
       width="113.92575"
       height="29.285706"
       x="-0.96132886"
       y="-56.018417"
       transform="rotate(90)" />
  </g>
  <g
     id="g7"
     style="display:inline"
     clip-path="url(#clipPath10)"
     transform="translate(0.49421777,0.50000075)">
    <rect
       style="fill:#002f6c;fill-opacity:1;stroke-width:0.990061"
       id="rect6"
       width="111.67227"
       height="25.5394"
       x="-1.0015448"
       y="57.588833" />
    <rect
       style="fill:#002f6c;fill-opacity:1;stroke-width:1.06042"
       id="rect7"
       width="117.82303"
       height="27.768919"
       x="-4.8586059"
       y="-55.97578"
       transform="rotate(90)" />
  </g>
</svg>
