<?xml version="1.0" encoding="utf-8"?>
<!-- Generator: Adobe Illustrator 19.0.0, SVG Export Plug-In . SVG Version: 6.00 Build 0)  -->
<svg version="1.1" id="Layer_1" xmlns="http://www.w3.org/2000/svg" xmlns:xlink="http://www.w3.org/1999/xlink" x="0px" y="0px"
	 viewBox="0 0 147.6 147.6" style="enable-background:new 0 0 147.6 147.6;" xml:space="preserve">
<style type="text/css">
	.st0{fill:#2D2647;}
</style>
<g id="XMLID_1_">
	<g id="XMLID_13_">
		<g id="XMLID_211_">
			<path id="XMLID_217_" class="st0" d="M67,52.2c-1.3,0-2.3,1-2.3,2.3c0,1.3,1,2.3,2.3,2.3c1.2,0,2.3-1,2.3-2.3
				C69.2,53.3,68.2,52.2,67,52.2z"/>
			<path id="XMLID_216_" class="st0" d="M80.5,95.1c1.3,0,2.3-1,2.3-2.3c0-1.3-1-2.3-2.3-2.3c-1.2,0-2.3,1-2.3,2.3
				C78.3,94.1,79.3,95.1,80.5,95.1z"/>
			<path id="XMLID_212_" class="st0" d="M90.9,32.7l-34.1-0.1L32.7,56.7l-0.1,34.1l24.1,24.2l34.1,0.1l24.2-24.1l0.1-34.1L90.9,32.7
				z M60.2,85.9h-4.1c-3.5,0-5.6-2.5-6.4-6.1c-1.2-4.8-1.1-7.7,0-12.3c1-4,4-6.1,7.5-6.1h4.5h12.1v-1.5H61.7v-4.6
				c0-3.5,0.9-5.4,6-6.3c1.7-0.3,3.7-0.5,5.8-0.5c2.1,0,4.2,0.1,6.3,0.5c3.3,0.5,6,3,6,6.3v11.5c0,3.4-2.7,6.1-6,6.1h-12
				c-4.1,0-7.5,3.5-7.5,7.5V85.9z M97.9,79.8c-1.2,3.7-2.5,6.1-6,6.1h-6h-12v1.5h12V92c0,3.5-3,5.2-6,6.1c-4.6,1.3-8.2,1.1-12,0
				c-3.2-0.9-6-2.9-6-6.1V80.5c0-3.3,2.7-6.1,6-6.1h12c4,0,7.5-3.5,7.5-7.6v-5.4h4.5c3.5,0,5.2,2.6,6,6.1
				C99.1,72.4,99.1,76,97.9,79.8z"/>
		</g>
		<path id="XMLID_208_" class="st0" d="M73.8,12.9l4.4,7.7h-8.9L73.8,12.9 M73.8,1.8L59.7,26.2h28.2L73.8,1.8L73.8,1.8z"/>
		<path id="XMLID_202_" class="st0" d="M127,69.3l7.7,4.4l-7.7,4.4V69.3 M121.4,59.7v28.2l24.4-14.1L121.4,59.7L121.4,59.7z"/>
		<path id="XMLID_196_" class="st0" d="M78.2,127l-4.4,7.7l-4.4-7.7H78.2 M87.9,121.4H59.7l14.1,24.4L87.9,121.4L87.9,121.4z"/>
		<path id="XMLID_190_" class="st0" d="M20.6,69.3v8.9l-7.7-4.4L20.6,69.3 M26.2,59.7L1.8,73.8l24.4,14.1V59.7L26.2,59.7z"/>
		<path id="XMLID_184_" class="st0" d="M51.9,8.8l-1.2,8.8l-7-5.4L51.9,8.8 M58.7,0L32.6,10.7l22.3,17.2L58.7,0L58.7,0z"/>
		<path id="XMLID_181_" class="st0" d="M96,8.9l8.2,3.4l-7.1,5.4L96,8.9 M89.3,0l3.6,28l22.4-17.1L89.3,0L89.3,0z"/>
		<path id="XMLID_178_" class="st0" d="M135.4,43.6l3.4,8.2l-8.8-1.2L135.4,43.6 M136.9,32.6l-17.2,22.3l27.9,3.8L136.9,32.6
			L136.9,32.6z"/>
		<path id="XMLID_175_" class="st0" d="M138.7,96l-3.4,8.2l-5.4-7.1L138.7,96 M147.5,89.3l-28,3.6l17.1,22.4L147.5,89.3L147.5,89.3z
			"/>
		<path id="XMLID_172_" class="st0" d="M96.9,130l7,5.4l-8.2,3.4L96.9,130 M92.7,119.6l-3.8,27.9l26.1-10.7L92.7,119.6L92.7,119.6z"
			/>
		<path id="XMLID_169_" class="st0" d="M50.4,129.9l1.1,8.8l-8.2-3.4L50.4,129.9 M54.7,119.6l-22.4,17.1l26,10.9L54.7,119.6
			L54.7,119.6z"/>
		<path id="XMLID_166_" class="st0" d="M8.8,95.7l8.8,1.2l-5.4,7L8.8,95.7 M0,88.9L10.7,115l17.2-22.3L0,88.9L0,88.9z"/>
		<path id="XMLID_163_" class="st0" d="M12.3,43.4l5.4,7.1l-8.8,1.1L12.3,43.4 M10.9,32.3L0,58.3l28-3.6L10.9,32.3L10.9,32.3z"/>
	</g>
	<g id="XMLID_3_">
		<g id="XMLID_10_">
			<path id="XMLID_205_" class="st0" d="M39.1,37.1L28.5,26.5v-8.4c0-1.8-1.4-3.4-3.2-3.7l-13.5-1.9l1.9,13.5
				c0.3,1.8,1.8,3.2,3.7,3.2h8.4l10.6,10.6c0.4,0.4,0.9,0.6,1.4,0.6c0.5,0,1-0.2,1.4-0.6C39.9,39.1,39.9,37.9,39.1,37.1z M24.6,25
				c0,0.1,0,0.2,0,0.2l-0.2,0.2c0,0-0.5-0.4-1.3-1.1c-0.8-0.7-1.7-1.6-2.7-2.6c-0.5-0.6-1.1-1.1-1.6-1.6c-0.1-0.1-0.1-0.1-0.2-0.2
				c-0.3-0.3-0.6-0.6-0.9-0.9c-0.7-0.8-1.1-1.3-1.1-1.3l0.2-0.2c0,0,0.1,0,0.2,0c0.1,0,0.3,0,0.5,0c0.4,0,1,0,1.6,0.2
				c0.6,0.1,1.2,0.3,1.8,0.6c0.3,0.2,0.6,0.3,0.9,0.5c0.3,0.2,0.5,0.4,0.8,0.7c0.2,0.3,0.5,0.5,0.7,0.8c0.2,0.3,0.4,0.6,0.5,0.9
				c0.1,0.2,0.2,0.5,0.3,0.7c0.1,0.4,0.3,0.7,0.3,1.1c0.1,0.6,0.2,1.2,0.1,1.6C24.6,24.6,24.6,24.8,24.6,25z"/>
			<path id="XMLID_71_" class="st0" d="M109.8,39.9c0.4,0.4,0.9,0.6,1.4,0.6c0.5,0,1-0.2,1.4-0.6l10.6-10.6h8.4
				c1.8,0,3.4-1.4,3.7-3.2l1.9-13.5l-13.5,1.9c-1.8,0.3-3.2,1.8-3.2,3.7v8.4l-10.6,10.6C109,37.9,109,39.1,109.8,39.9z M124.3,24.4
				c0-0.4,0-1,0.1-1.6c0.1-0.4,0.2-0.7,0.3-1.1c0.1-0.2,0.2-0.5,0.3-0.7c0.2-0.3,0.3-0.6,0.5-0.9c0.2-0.3,0.4-0.5,0.7-0.8
				c0.2-0.2,0.5-0.5,0.8-0.7c0.3-0.2,0.6-0.4,0.9-0.5c0.6-0.3,1.2-0.5,1.8-0.6c0.6-0.1,1.2-0.2,1.6-0.2c0.2,0,0.4,0,0.5,0
				c0.1,0,0.2,0,0.2,0l0.2,0.2c0,0-0.5,0.5-1.1,1.3c-0.3,0.3-0.6,0.6-0.9,0.9c-0.1,0.1-0.1,0.1-0.2,0.2c-0.5,0.5-1,1.1-1.6,1.6
				c-1,0.9-1.9,1.9-2.7,2.6c-0.8,0.7-1.3,1.1-1.3,1.1l-0.2-0.2c0,0,0-0.1,0-0.2C124.3,24.8,124.3,24.6,124.3,24.4z"/>
		</g>
		<g id="XMLID_15_">
			<path id="XMLID_5_" class="st0" d="M135.6,136.8c-0.5,0-1-0.2-1.4-0.6l-24.3-24.3c-0.8-0.8-0.8-2,0-2.8c0.8-0.8,2-0.8,2.8,0
				l24.3,24.3c0.8,0.8,0.8,2,0,2.8C136.6,136.6,136.1,136.8,135.6,136.8z"/>
		</g>
		<g id="XMLID_16_">
			<path id="XMLID_6_" class="st0" d="M13.6,136.8c-0.5,0-1-0.2-1.4-0.6c-0.8-0.8-0.8-2,0-2.8l24.3-24.3c0.8-0.8,2-0.8,2.8,0
				c0.8,0.8,0.8,2,0,2.8l-24.3,24.3C14.7,136.6,14.2,136.8,13.6,136.8z"/>
		</g>
	</g>
</g>
</svg>
