<svg xmlns="http://www.w3.org/2000/svg" viewBox="0 0 126.7 110.9"><path fill="none" d="M58 15.4a.3.3 0 1 1-.2-.4.4.4 0 0 1 .3.4z"/><path fill="#010101" d="M64 0c-5 0-4.6 2.2-4.6 2.2v2.3h4.8v.7h-6.7s-3.2-.4-3.2 4.7 2.7 4 2.7 4h2v-2a2.7 2.7 0 0 1 3-3h5a2.6 2.6 0 0 0 2-2V2s.3-2-5-2zm-2.5 1.6a1 1 0 0 1 1 1 1 1 0 1 1-1.8 0 1 1 0 0 1 1-1zM64.3 20c5 0 4.7-2.2 4.7-2.2v-2.4h-5v-.6h7s3.2.4 3.2-4.8-2.7-5-2.7-5h-1.7v2.4a2.7 2.7 0 0 1-2.8 3h-5a2.6 2.6 0 0 0-2.6 2.5v4s-.4 3 4.8 3zm2.6-1.5a1 1 0 0 1-1-1 1 1 0 0 1 1 0 1 1 0 0 1-1 1zM31 50c-2 4-4 7.3-1.3 16.3 0 0-7.8-2.8-12 3s1 8.6 4.4 7.2c5-2 6-3 10 .7 1 4.5 0 8-6 11 0 0-12 6.8-18-11.2l8 4.3-3-15.5-6 4.5 4-9-10 2.5s3 6 2 7.6S1 75 2 77s2 3 3 4 2 7 2.3 8 2 6.4 0 14.4l9 7.8s16-7.5 48-7.6h.7c32 0 47.7 7.7 47.7 7.7l8.4-7.7c-2-8-1-12-1-13s3-8.4 4-9.3a9.2 9.2 0 0 0 3-4c.6-1.6 0-3.7-.5-5.4s3-7 3-7l-9-3 2 8-6-4-4 13 7.5-3c-3 9-7 11.6-10.5 13s-6.5.4-8-.5c-6-4-6.4-6.5-5.6-10 1-7 5-3.7 9.2-.8 2 1.4 5-1.6 5.6-3.7s.4-6.4-4-8.3S96 68 96 68c4.8-11-1-17.3-1-17.3-7.5 4.3-6 16-6 16s-3-4.7-7.5-4.4-6.5 3.7-5.5 7 2.6 5 5 4 6.8-1.8 6.3 5-6.8 7.3-10 7.3-7.2-3-14.3-3-8 2.8-13.8 3c-3.3 0-11-.7-11.5-7.8s6-8 7.7-4.8c4 1.6 5.8-1.2 6-3-.8-4.7-2.8-7-6.6-7.3a8.4 8.4 0 0 0-6.6 2.3 15 15 0 0 0-6.5-15.4zm48 14.2a1.2 1.2 0 1 1-1 1 1.2 1.2 0 0 1 1-1zm-33.7 1h.2a1 1 0 0 1 1.2 1 1.2 1.2 0 1 1-2.4 0A1.3 1.3 0 0 1 45 65zm60 3.3a1.2 1.2 0 1 1-1.2 1.2 1.2 1.2 0 0 1 2-1.2zm-85.3 1a1.2 1.2 0 1 1-1 1.5 1.2 1.2 0 0 1 1.3-1.2zM3.6 74.2l2 2-.8 2.4-2-1.8zm118.7 0l.7 2.6-2 1.8-.7-2.5zM62.8 88.5l3.3 5-3 5.2-3-5zm-13 1a1.6 1.6 0 0 1 1.8 1.6 1.6 1.6 0 0 1-1.6 2 1.6 1.6 0 0 1-2-1 1.7 1.7 0 0 1 1.6-1zm24.3 0a1.6 1.6 0 0 1 2 1.5 1.6 1.6 0 0 1-1 1.6 1.6 1.6 0 0 1-2-1.6 1.7 1.7 0 0 1 2-1.7zM38 90c3.3 0 6 2 6.4 4s-2.4 6-6.3 6.7-7-1.2-8-4 3-5.5 7-6h1zm49 0h1.4c4 .8 6.7 3.5 6.3 6s-4 4.8-8 4-6.6-3-6.2-6 3.2-4 6.5-4zm-65.4 4.5A1.6 1.6 0 0 1 23 96a1.6 1.6 0 0 1-1.6 1.5 1.7 1.7 0 0 1 0-3.4v1zm81.3 0a1.6 1.6 0 0 1 1 1.5 1.6 1.6 0 0 1-2 2 1.7 1.7 0 0 1 0-3.4v.4zm-52 2a1.6 1.6 0 0 1 1 1.7 1.6 1.6 0 0 1-1 1.8 1.6 1.6 0 0 1-2-1.8 1.7 1.7 0 0 1 1-1.7zm22 0a1.6 1.6 0 0 1 2 1.5 1.6 1.6 0 0 1-2 1.6 1.6 1.6 0 0 1-2-1.6 1.7 1.7 0 0 1 1-1.7zM10 98l3 2.6-1 4-3-2.8 1.2-4h-1zm105 0l1.3 3.8-3 2.7-1.2-4zm-92.4 2.8a1.6 1.6 0 0 1 1.7 1.6 1.6 1.6 0 0 1-1.7 1.6 1.7 1.7 0 0 1 0-3.4v.2zm79 0a1.6 1.6 0 0 1 1.7 1.6 1.6 1.6 0 0 1-1.7 1.6 1.7 1.7 0 0 1 0-3.4v.2z"/><path fill="#010101" d="M14.3 61.5l-2-2.2c22-19 41-20.4 41.8-20.4h2c4 6 5 15 5 15h-3a41 41 0 0 0-3-13c-4 1-21 4-39 20z"/><ellipse cx="51.3" cy="35.4" fill="#010101" rx="3.2" ry="3.1"/><ellipse cx="43" cy="37.4" fill="#010101" rx="3.1" ry="3"/><ellipse cx="35.3" cy="40.3" fill="#010101" rx="2.8" ry="2.7"/><ellipse cx="28.5" cy="43.6" fill="#010101" rx="2.6" ry="2.5"/><ellipse cx="21.8" cy="47.8" fill="#010101" rx="2.4" ry="2.3"/><ellipse cx="15.8" cy="52.3" fill="#010101" rx="2.2" ry="2.1"/><ellipse cx="11.1" cy="56.8" fill="#010101" rx="2" ry="1.9"/><path fill="#010101" d="M112.5 61.2l2-2.2c-22-19-41-20.3-42-20.4h-1l-.3.8c-3.7 6.7-4.5 14.8-4.5 15l3 .3a41 41 0 0 1 3.7-13c4 .5 20.5 3.6 39 19.5h.2z"/><ellipse cx="75.4" cy="35.4" fill="#010101" rx="3.2" ry="3.1"/><ellipse cx="83.7" cy="37.4" fill="#010101" rx="3.1" ry="3"/><ellipse cx="91.4" cy="40.3" fill="#010101" rx="2.8" ry="2.7"/><ellipse cx="63.5" cy="41.7" fill="#010101" rx="2.8" ry="2.7"/><ellipse cx="98.2" cy="43.6" fill="#010101" rx="2.6" ry="2.5"/><ellipse cx="104.9" cy="47.8" fill="#010101" rx="2.4" ry="2.3"/><ellipse cx="63.2" cy="47.9" fill="#010101" rx="2.4" ry="2.3"/><ellipse cx="110.9" cy="52.3" fill="#010101" rx="2.2" ry="2.1"/><ellipse cx="115.6" cy="56.8" fill="#010101" rx="2" ry="1.9"/><ellipse cx="63.2" cy="52.7" fill="#010101" rx="2" ry="1.9"/><path fill="none" d="M56.4 75.5a.4.4 0 1 1-.4-.5.4.4 0 0 1 .4.5z"/><path fill="#010101" d="M63.3 57.2c-5.8 0-5.4 2.6-5.4 2.6v2.7h5v.8h-8s-3-.3-3 5.7 3 6 3 6h2v-3s0-3.3 3-3.3h6a3 3 0 0 0 3-3v-5.3s0-3.2-6-3.2zm-3 1.8a1 1 0 0 1 1 1 1 1 0 1 1-2 0 1 1 0 0 1 1-1zm3.2 21.8c5.8 0 5.4-2.6 5.4-2.6v-2.6h-6v-.8h8s3 .4 3-5.7-3-5-3-5h-2v2s0 4-3 4h-5a3 3 0 0 0-3 3v5s-1 3 5 3zm3-1.8a1 1 0 0 1-1-1 1 1 0 1 1 2 0 1 1 0 0 1-1 1zm-3-58a8.5 8.5 0 1 0 8.4 8.6 8.5 8.5 0 0 0-9-8.6zM62 26.3a2.2 2.2 0 0 1 1.4.4 3.8 3.8 0 0 1 .7 1 5.3 5.3 0 0 1 1 1.3 1.8 1.8 0 0 1 0 .6 2 2 0 0 1 0 .7v.6h-2a1.4 1.4 0 0 1-1-1v3h-1v-7h1a2 2 0 0 1 1.7 0zm3.2 0h1.4l1.2 3.6 1.2-4h1.2l-2 6a3 3 0 0 1-.7 1 1.7 1.7 0 0 1-1.3 0h-1v-1h.5a1.5 1.5 0 0 0 1.5-2zm-3.7.8a1 1 0 0 0-.8 1 1.6 1.6 0 0 0-.3 1v1a1.6 1.6 0 0 0 .3 1 1 1 0 0 0 1 1 1.2 1.2 0 0 0 1 0 3 3 0 0 0 .3-2 3.2 3.2 0 0 0-.2-1 1.7 1.7 0 0 0-.4-.4 1.2 1.2 0 0 0-.8-.2zm-4.3 3l.7 1a.8.8 0 0 1 0 1 .5.5 0 0 1-1 0h-1a1 1 0 0 1-1 0 1 1 0 0 1 .2 0z"/></svg>
