<svg xmlns="http://www.w3.org/2000/svg" xmlns:svg="http://www.w3.org/2000/svg" id="svg8" width="500" height="500" version="1.1" viewBox="0 0 132.292 132.292"><metadata id="metadata5"/><g id="layer1" transform="translate(0,-164.70832)"><g id="g68316" transform="matrix(0.49777376,0,0,0.49777376,204.39161,268.89605)"><g id="g68036" transform="translate(-121.07826,-21.850469)"><path style="opacity:1;fill:#2c5aa0;fill-opacity:1;stroke:none;stroke-width:9.09999943;stroke-linecap:round;stroke-linejoin:round;stroke-miterlimit:4;stroke-dasharray:none;stroke-dashoffset:0;stroke-opacity:1" id="path68004" d="m -157.58676,-182.89881 a 38.931545,38.931545 0 0 0 -39.33403,38.31859 38.931545,38.931545 0 0 0 38.1124,39.53402 l 0.81442,0.008 v 0.0269 a 89.580351,89.580351 0 0 1 0.93689,-0.0212 89.580351,89.580351 0 0 1 88.642136,90.04361 89.580351,89.580351 0 0 1 -82.182576,88.74238 128.5119,128.5119 0 0 0 121.113531,-127.47077 128.5119,128.5119 0 0 0 -127.165881,-129.17661 128.5119,128.5119 0 0 0 -0.62115,0.0139 38.931545,38.931545 0 0 0 -0.31574,-0.0191 z m 8.02897,0.93741 a 38.931545,38.931545 0 0 1 0.0579,0.0155 38.931545,38.931545 0 0 0 -0.0579,-0.0155 z m 3.74499,1.03043 a 38.931545,38.931545 0 0 1 0.13487,0.0506 38.931545,38.931545 0 0 0 -0.13487,-0.0506 z m 3.62613,1.39888 a 38.931545,38.931545 0 0 1 0.18139,0.0904 38.931545,38.931545 0 0 0 -0.18139,-0.0904 z m 3.46801,1.7539 a 38.931545,38.931545 0 0 1 0.23099,0.14469 38.931545,38.931545 0 0 0 -0.23099,-0.14469 z m 3.27318,2.08876 a 38.931545,38.931545 0 0 1 0.30334,0.23565 38.931545,38.931545 0 0 0 -0.30334,-0.23565 z m 3.04323,2.39934 a 38.931545,38.931545 0 0 1 0.41186,0.3917 38.931545,38.931545 0 0 0 -0.41186,-0.3917 z m 2.79672,2.69854 a 38.931545,38.931545 0 0 1 0.41807,0.48576 38.931545,38.931545 0 0 0 -0.41807,-0.48576 z m 2.50786,2.95538 a 38.931545,38.931545 0 0 1 0.48008,0.68574 38.931545,38.931545 0 0 0 -0.48008,-0.68574 z m 2.2009,3.18947 a 38.931545,38.931545 0 0 1 0.493,0.88056 38.931545,38.931545 0 0 0 -0.493,-0.88056 z m 1.87586,3.39875 a 38.931545,38.931545 0 0 1 0.45372,1.04232 38.931545,38.931545 0 0 0 -0.45372,-1.04232 z m 1.526,3.56309 a 38.931545,38.931545 0 0 1 0.40825,1.27383 38.931545,38.931545 0 0 0 -0.40825,-1.27383 z m 1.16272,3.6928 a 38.931545,38.931545 0 0 1 0.3204,1.50069 38.931545,38.931545 0 0 0 -0.3204,-1.50069 z m 0.79168,3.80029 a 38.931545,38.931545 0 0 1 0.18552,1.67535 38.931545,38.931545 0 0 0 -0.18552,-1.67535 z m 0.41342,3.89072 a 38.931545,38.931545 0 0 1 0.0641,2.33525 38.931545,38.931545 0 0 0 -0.0641,-2.33525 z"/><path id="path68007" d="m -155.71296,73.75159 a 38.931545,38.931545 0 0 0 39.33403,-38.31859 38.931545,38.931545 0 0 0 -38.1124,-39.5340205 l -0.81442,-0.008 v -0.0269 a 89.580351,89.580351 0 0 1 -0.93689,0.0212 89.580351,89.580351 0 0 1 -88.64214,-90.0436015 89.580351,89.580351 0 0 1 82.18258,-88.742388 128.5119,128.5119 0 0 0 -121.11353,127.47077 128.5119,128.5119 0 0 0 127.16588,129.17661 128.5119,128.5119 0 0 0 0.62115,-0.014 38.931545,38.931545 0 0 0 0.31574,0.0191 z m -8.02897,-0.93741 a 38.931545,38.931545 0 0 1 -0.0579,-0.0155 38.931545,38.931545 0 0 0 0.0579,0.0155 z m -3.74499,-1.03043 a 38.931545,38.931545 0 0 1 -0.13487,-0.0506 38.931545,38.931545 0 0 0 0.13487,0.0506 z m -3.62613,-1.39888 a 38.931545,38.931545 0 0 1 -0.18139,-0.0904 38.931545,38.931545 0 0 0 0.18139,0.0904 z m -3.46801,-1.75389 a 38.931545,38.931545 0 0 1 -0.23099,-0.1447 38.931545,38.931545 0 0 0 0.23099,0.1447 z m -3.27318,-2.08877 a 38.931545,38.931545 0 0 1 -0.30334,-0.23564 38.931545,38.931545 0 0 0 0.30334,0.23564 z m -3.04323,-2.39933 a 38.931545,38.931545 0 0 1 -0.41186,-0.39171 38.931545,38.931545 0 0 0 0.41186,0.39171 z m -2.79673,-2.69855 a 38.931545,38.931545 0 0 1 -0.41806,-0.48575 38.931545,38.931545 0 0 0 0.41806,0.48575 z m -2.50785,-2.95537 a 38.931545,38.931545 0 0 1 -0.48008,-0.68575 38.931545,38.931545 0 0 0 0.48008,0.68575 z m -2.2009,-3.18947 a 38.931545,38.931545 0 0 1 -0.493,-0.88057 38.931545,38.931545 0 0 0 0.493,0.88057 z m -1.87586,-3.39876 a 38.931545,38.931545 0 0 1 -0.45372,-1.04231 38.931545,38.931545 0 0 0 0.45372,1.04231 z m -1.526,-3.56309 a 38.931545,38.931545 0 0 1 -0.40825,-1.27382 38.931545,38.931545 0 0 0 0.40825,1.27382 z m -1.16272,-3.6928 a 38.931545,38.931545 0 0 1 -0.3204,-1.50068 38.931545,38.931545 0 0 0 0.3204,1.50068 z m -0.79169,-3.80028 a 38.931545,38.931545 0 0 1 -0.18551,-1.67535 38.931545,38.931545 0 0 0 0.18551,1.67535 z m -0.41341,-3.89072 a 38.931545,38.931545 0 0 1 -0.0641,-2.33526 38.931545,38.931545 0 0 0 0.0641,2.33526 z" style="opacity:1;fill:#ffd42a;fill-opacity:1;stroke:none;stroke-width:9.09999943;stroke-linecap:round;stroke-linejoin:round;stroke-miterlimit:4;stroke-dasharray:none;stroke-dashoffset:0;stroke-opacity:1"/></g><g id="g68295" transform="translate(-71.732834,-102.96514)"><path style="opacity:1;fill:#484d6e;fill-opacity:1;stroke:none;stroke-width:3.91974974;stroke-linecap:round;stroke-linejoin:round;stroke-miterlimit:4;stroke-dasharray:none;stroke-dashoffset:0;stroke-opacity:1" id="path68134" d="m -205.99079,-7.3115192 a 33.858186,33.858186 0 0 0 -33.85967,33.3173962 33.858186,33.858186 0 0 0 0.008,0.537126 h 33.85013 z"/><path style="opacity:1;fill:#f7b718;fill-opacity:1;stroke:none;stroke-width:3.91974974;stroke-linecap:round;stroke-linejoin:round;stroke-miterlimit:4;stroke-dasharray:none;stroke-dashoffset:0;stroke-opacity:1" id="path68166" d="m -205.64254,-7.3195888 a 33.858186,33.858186 0 0 0 -0.35398,0.00847 V 26.549276 h 33.85306 a 33.858186,33.858186 0 0 0 -33.49892,-33.8684853 z"/><path style="opacity:1;fill:#008658;fill-opacity:1;stroke:none;stroke-width:3.91974974;stroke-linecap:round;stroke-linejoin:round;stroke-miterlimit:4;stroke-dasharray:none;stroke-dashoffset:0;stroke-opacity:1" id="path68220" d="m -206.00258,26.543003 v 33.852303 h 0.005 a 33.858186,33.858186 0 0 0 33.85746,-33.681112 33.858186,33.858186 0 0 0 -0.005,-0.17118 z"/><path style="opacity:1;fill:#f7b718;fill-opacity:1;stroke:none;stroke-width:14.61565208;stroke-linecap:round;stroke-linejoin:round;stroke-miterlimit:4;stroke-dasharray:none;stroke-dashoffset:0;stroke-opacity:1" id="path68260" d="m -189.50533,43.646981 a 16.837622,17.017481 0 0 1 -16.48337,-17.280723 16.837622,17.017481 0 0 1 17.01165,-16.7495855 16.837622,17.017481 0 0 1 16.66129,17.1055415 16.837622,17.017481 0 0 1 -16.83739,16.928489"/><path id="path68258" d="m -206.34296,26.6295 a 16.837622,17.017481 0 0 1 -16.48337,-17.2807231 16.837622,17.017481 0 0 1 17.01165,-16.7495853 16.837622,17.017481 0 0 1 16.66129,17.1055413 16.837622,17.017481 0 0 1 -16.83739,16.9284901" style="opacity:1;fill:#484d6e;fill-opacity:1;stroke:none;stroke-width:14.61565208;stroke-linecap:round;stroke-linejoin:round;stroke-miterlimit:4;stroke-dasharray:none;stroke-dashoffset:0;stroke-opacity:1"/><path style="opacity:1;fill:#d01c1f;fill-opacity:1;stroke:none;stroke-width:14.61565113;stroke-linecap:round;stroke-linejoin:round;stroke-miterlimit:4;stroke-dasharray:none;stroke-dashoffset:0;stroke-opacity:1" id="path68284" d="m -222.65249,9.5265255 a 16.837621,17.01748 0 0 0 -17.01144,16.7497725 16.837621,17.01748 0 0 0 0.004,0.260838 h -0.18169 a 33.858185,33.858185 0 0 0 30.1202,33.610981 16.837622,17.01748 0 0 1 -13.11124,-16.860383 16.837622,17.01748 0 0 1 16.83727,-16.745645 16.837621,17.01748 0 0 0 -16.65732,-17.0155635 z"/><path id="path68286" d="m -223.09748,43.294938 a 17.017481,16.837621 0 0 0 16.74977,17.011438 17.017481,16.837621 0 0 0 0.26084,-0.0042 v 0.181695 a 33.858184,33.858184 0 0 0 33.61099,-30.120203 17.017481,16.837623 0 0 1 -16.86039,13.111246 17.017481,16.837623 0 0 1 -16.74565,-16.837273 17.017481,16.837621 0 0 0 -17.01556,16.657324 z" style="opacity:1;fill:#008658;fill-opacity:1;stroke:none;stroke-width:14.61565208;stroke-linecap:round;stroke-linejoin:round;stroke-miterlimit:4;stroke-dasharray:none;stroke-dashoffset:0;stroke-opacity:1"/></g></g></g></svg>