<svg width="600" height="600" viewBox="0 0 600 600" fill="none" xmlns="http://www.w3.org/2000/svg">
<path d="M288.662 552.903C253.258 551.618 231.345 541.126 225.77 522.791L225.122 520.66L225.031 484.715C224.927 443.576 224.963 442.743 227.155 436.192C231.153 424.239 240.608 416.532 255.396 413.173L258.665 412.43L299.324 412.25C328.454 412.122 340.532 411.976 341.921 411.736C350.063 410.333 355.404 408.233 360.418 404.461C366.408 399.956 371.352 392.244 373.561 383.961C375.221 377.74 375.176 378.419 375.356 356.565L375.522 336.249H390.165H404.808L407.651 337.042C422.885 341.294 433.945 355.718 438.654 377.475C440.465 385.844 440.484 386.153 440.487 407.502C440.49 428.277 440.481 428.459 439.029 435.274C437.601 441.972 435.732 447.422 432.94 453.033C427.308 464.348 419.004 472.006 408.504 475.568C402.505 477.603 407.527 477.433 348.512 477.602L295.343 477.754V482.584V487.415L330.599 487.557L365.855 487.699L365.998 505.032C366.076 514.565 366.042 523.183 365.922 524.183C365.632 526.601 364.605 529.471 363.136 531.971C361.623 534.544 357.031 539.148 353.914 541.215C344.445 547.495 330.008 551.323 310.981 552.599C304.579 553.029 295.513 553.152 288.662 552.903ZM337.565 530.443C344.361 529.342 349.225 522.696 348.105 516.043C347.181 510.555 342.941 506.31 337.481 505.406C329.146 504.025 321.565 511.675 323.049 519.969C324.127 526.003 328.969 530.251 335.291 530.712C335.525 530.729 336.549 530.608 337.565 530.443Z" fill="white"/>
<path fill-rule="evenodd" clip-rule="evenodd" d="M218.124 521.709L218.031 484.733C217.979 464.269 217.96 453.554 218.239 447.177C218.539 440.326 219.224 437.836 220.516 433.972L227.155 436.192C224.963 442.743 224.927 443.576 225.031 484.715L225.122 520.66L225.77 522.791C231.345 541.126 253.258 551.618 288.662 552.903C295.513 553.152 304.579 553.029 310.981 552.599C330.008 551.323 344.445 547.495 353.914 541.215C357.031 539.148 361.623 534.544 363.136 531.971C364.605 529.471 365.632 526.601 365.922 524.183C366.042 523.183 366.076 514.565 365.998 505.032L365.855 487.699L295.343 487.415V477.754L348.512 477.602C398.403 477.459 402.527 477.559 406.235 476.364C406.913 476.145 407.577 475.883 408.504 475.568C419.005 472.006 427.308 464.348 432.94 453.033C435.732 447.422 437.601 441.972 439.029 435.274C440.481 428.459 440.49 428.277 440.487 407.502C440.484 386.153 440.465 385.844 438.654 377.475C433.945 355.718 422.885 341.294 407.651 337.042L404.808 336.249H375.522L375.356 356.565C375.22 373.107 375.212 376.739 374.497 380.225C374.267 381.344 373.965 382.449 373.561 383.961C371.352 392.244 366.408 399.956 360.418 404.461C355.404 408.233 350.063 410.333 341.921 411.736C340.532 411.976 328.454 412.122 299.324 412.25L258.665 412.43L255.396 413.173C240.608 416.532 231.153 424.239 227.155 436.192L220.516 433.972C225.458 419.199 237.24 410.119 253.845 406.347L257.865 405.434L299.293 405.251C313.856 405.186 324.135 405.117 330.941 405.035C334.347 404.994 336.855 404.95 338.582 404.902C339.634 404.873 340.246 404.844 340.554 404.83C340.841 404.816 340.864 404.815 340.733 404.838C348.112 403.566 352.32 401.793 356.21 398.867C360.771 395.437 364.931 389.155 366.798 382.157C366.835 382.018 366.871 381.883 366.906 381.753C367.634 379.027 367.865 378.161 368.029 375.668C368.223 372.692 368.262 367.92 368.347 357.622L368.58 329.249H405.766L409.533 330.3C428.244 335.522 440.491 352.873 445.496 375.995C446.411 380.222 446.969 382.834 447.236 387.194C447.484 391.256 447.486 396.947 447.487 407.501V407.55C447.489 417.794 447.49 423.267 447.294 426.99C447.081 431.05 446.621 433.234 445.875 436.733C444.336 443.954 442.284 449.969 439.207 456.152C432.877 468.87 423.252 477.957 410.753 482.197C410.567 482.26 410.345 482.341 410.092 482.432C409.151 482.773 407.792 483.265 406.342 483.571C404.411 483.977 402.114 484.163 398.626 484.281C393.926 484.44 386.236 484.492 372.83 484.535L372.997 504.974C373.037 509.763 373.048 514.33 373.034 517.835C373.027 519.585 373.014 521.088 372.994 522.229C372.978 523.154 372.955 524.321 372.872 525.016C372.447 528.557 371.037 532.342 369.171 535.518C367.956 537.585 365.922 539.883 364.082 541.726C362.177 543.637 359.879 545.658 357.783 547.049C346.829 554.314 330.963 558.275 311.449 559.584C304.791 560.03 295.483 560.156 288.408 559.899C270.168 559.236 254.788 556.195 243.007 550.554C231.105 544.856 222.567 536.318 219.073 524.827L218.124 521.709ZM336.446 523.533C339.542 523.032 341.656 519.897 341.202 517.205C340.771 514.642 338.826 512.724 336.337 512.311C332.742 511.716 329.312 515.232 329.939 518.737C330.406 521.349 332.331 523.309 335.367 523.688C335.663 523.652 336.05 523.597 336.446 523.533ZM337.565 530.443L336.446 523.533ZM337.565 530.443L336.446 523.533C336.446 523.533 336.446 523.533 336.446 523.533M337.565 530.443C344.361 529.342 349.225 522.696 348.105 516.043C347.181 510.555 342.941 506.31 337.481 505.406C329.146 504.025 321.565 511.675 323.049 519.969C324.128 526.003 328.969 530.251 335.291 530.712C335.525 530.729 336.549 530.608 337.565 530.443Z" fill="#3E3E3E"/>
<path d="M187.688 479.174C179.691 477.721 171.815 472.877 166.25 465.988C155.709 452.94 150.388 431.188 151.056 403.876C151.472 386.856 154.018 374.222 159.198 363.474C165.874 349.62 175.849 341.404 189.315 338.668C192.265 338.069 192.413 338.067 244.362 338.088C273.012 338.099 296.662 338.028 296.919 337.93C297.327 337.773 297.386 337.14 297.386 332.951C297.386 330.311 297.354 328.12 297.315 328.082C297.276 328.045 281.379 327.949 261.988 327.869L226.732 327.724L226.658 309.412C226.578 289.355 226.562 289.588 228.28 285.904C234.237 273.135 251.783 265.377 279.9 263.08C281.933 262.914 287.435 262.703 292.126 262.611C323.255 262.001 346.089 267.69 358.092 279.045C359.422 280.302 361.154 282.18 361.943 283.217C363.735 285.575 365.966 290.076 366.821 293.058L367.472 295.332V333.123C367.472 368.399 367.438 371.094 366.957 373.614C366.338 376.865 364.85 381.434 363.61 383.892C359.316 392.402 351.405 398.533 340.919 401.478C334.109 403.39 337.202 403.264 292.126 403.46C247.362 403.654 250.067 403.55 243.791 405.322C231.602 408.765 222.647 418.253 219.009 431.58C217.374 437.571 217.41 437.011 217.231 459L217.065 479.459L203.417 479.505C193.114 479.541 189.259 479.459 187.688 479.174ZM262.212 309.186C267.386 306.757 270.502 301.062 269.565 295.748C268.701 290.845 265.333 286.933 260.761 285.522C253.456 283.267 245.833 287.92 244.485 295.458C243.389 301.588 246.936 307.557 252.937 309.676C254.278 310.149 255.14 310.245 257.438 310.177C259.943 310.102 260.512 309.984 262.212 309.186Z" fill="#009ACD"/>
<path fill-rule="evenodd" clip-rule="evenodd" d="M366.957 373.614C366.338 376.865 364.85 381.434 363.61 383.892C359.316 392.402 351.405 398.533 340.919 401.478C339.711 401.817 338.814 402.092 337.905 402.316C333.691 403.356 329.206 403.299 292.126 403.46C254.783 403.622 250.474 403.576 246.429 404.586C245.625 404.786 244.831 405.028 243.791 405.322C231.602 408.765 222.647 418.253 219.009 431.58C218.627 432.982 218.335 434.025 218.112 435.083C217.379 438.544 217.368 442.158 217.231 459L217.065 479.459L203.417 479.505C193.114 479.541 189.259 479.459 187.688 479.174C179.691 477.721 171.815 472.877 166.25 465.988C155.709 452.94 150.388 431.188 151.056 403.876C151.472 386.856 154.018 374.222 159.198 363.474C165.874 349.62 175.849 341.404 189.315 338.668C192.265 338.069 192.413 338.067 244.362 338.088C273.012 338.099 296.662 338.028 296.919 337.93C297.327 337.773 297.386 337.14 297.386 332.951C297.386 330.311 297.354 328.12 297.315 328.082C297.276 328.045 281.379 327.949 261.988 327.869L226.732 327.724L226.658 309.412C226.593 293.039 226.57 290.187 227.499 287.688C227.708 287.125 227.965 286.581 228.28 285.904C234.237 273.135 251.783 265.377 279.9 263.08C281.933 262.914 287.435 262.703 292.126 262.611C323.255 262.001 346.089 267.69 358.092 279.045C359.422 280.302 361.154 282.18 361.943 283.217C363.735 285.575 365.966 290.076 366.821 293.058L367.472 295.332V333.123C367.472 368.399 367.438 371.094 366.957 373.614ZM221.937 282.945C225.849 274.557 233.304 268.428 242.949 264.163C252.567 259.91 264.83 257.288 279.33 256.103C281.598 255.918 287.29 255.705 291.989 255.613C323.506 254.995 348.792 260.611 362.902 273.959C364.407 275.383 366.425 277.547 367.515 278.981C369.858 282.062 372.468 287.354 373.55 291.131L374.472 294.349V333.123C374.472 350.737 374.463 360.287 374.394 365.741C374.326 371.096 374.204 372.98 373.834 374.924C373.116 378.691 371.446 383.901 369.86 387.045C364.551 397.567 354.892 404.825 342.811 408.217C342.53 408.296 342.243 408.379 341.949 408.464C340.767 408.805 339.479 409.176 338.065 409.444C336.201 409.798 334.149 409.985 331.156 410.107C325.952 410.318 316.971 410.356 299.423 410.429C297.148 410.439 294.729 410.449 292.156 410.46C289.939 410.469 287.84 410.478 285.853 410.487C267.679 410.564 258.795 410.601 253.795 410.794C251.06 410.899 249.796 411.043 248.953 411.197C248.261 411.323 247.792 411.458 246.784 411.747C246.478 411.836 246.121 411.938 245.694 412.059C236.115 414.764 228.824 422.206 225.762 433.423C225.73 433.54 225.699 433.654 225.669 433.765C224.951 436.391 224.723 437.227 224.559 439.744C224.363 442.767 224.324 447.664 224.238 458.22L224.008 486.435L203.441 486.505C198.288 486.523 194.673 486.512 192.131 486.458C189.739 486.408 187.848 486.318 186.436 486.061C176.635 484.28 167.323 478.455 160.805 470.387C148.739 455.452 143.373 431.702 144.058 403.704C144.489 386.084 147.137 372.376 152.892 360.435C160.388 344.879 172.034 335.036 187.921 331.808C190.109 331.364 191.472 331.219 198.39 331.146C202.665 331.101 209.261 331.085 219.745 331.083L219.658 309.44C219.657 309.059 219.655 308.686 219.654 308.319C219.617 299.187 219.597 294.15 219.812 291.036C219.931 289.3 220.141 287.806 220.577 286.33C220.961 285.027 221.477 283.926 221.849 283.133C221.879 283.068 221.908 283.006 221.937 282.945ZM269.565 295.748C268.701 290.845 265.333 286.933 260.761 285.522C253.456 283.267 245.833 287.92 244.485 295.458C243.389 301.588 246.936 307.557 252.937 309.676C254.278 310.149 255.14 310.245 257.438 310.177C259.943 310.102 260.512 309.984 262.212 309.186C267.386 306.757 270.502 301.062 269.565 295.748ZM258.666 303.104C258.626 303.109 258.557 303.116 258.452 303.124C258.197 303.145 257.831 303.162 257.231 303.18C256.139 303.212 255.758 303.19 255.603 303.172C255.558 303.167 255.549 303.165 255.542 303.163C255.525 303.159 255.451 303.14 255.268 303.075C252.394 302.06 250.903 299.336 251.376 296.69C251.985 293.28 255.421 291.199 258.697 292.21C260.634 292.808 262.24 294.514 262.671 296.963C263.015 298.913 261.787 301.653 259.237 302.85C258.917 303 258.745 303.072 258.666 303.104ZM258.612 303.124C258.612 303.124 258.617 303.122 258.625 303.12C258.615 303.123 258.611 303.125 258.612 303.124Z" fill="#3E3E3E"/>
<path d="M254.494 76.8104C255.311 51.6444 255.918 49.2504 263.076 42.9654C269.406 37.4074 274.285 39.4894 279.531 49.9884C281.779 54.4864 282.6 57.5254 282.6 61.3454C282.6 67.8664 283.554 72.8104 284.812 72.8104C285.34 72.8104 288.613 70.0834 292.084 66.7504L298.394 60.6914L309.85 72.0414C316.15 78.2834 321.821 84.3554 322.453 85.5354C323.084 86.7144 323.6 91.3084 323.6 95.7444C323.6 100.18 324.018 103.81 324.529 103.81C325.04 103.81 327.065 105.326 329.029 107.178L332.6 110.546L332.615 122.928C332.624 129.738 332.963 135.832 333.368 136.469C333.774 137.107 336.023 138.395 338.366 139.333C343.682 141.46 346.16 144.889 349.033 154.09L350.288 169.721C349.426 170.582 349.1 178.783 349.1 199.595V228.283L355.6 229.39C359.175 229.999 366.375 231.047 371.6 231.718C383.248 233.213 387.6 234.505 387.6 236.464C387.6 238.084 384.142 241.662 378.284 246.103L374.6 248.895V260.056V271.216L370.6 267.31L366.6 263.404V255.384V247.365L370.85 243.689C373.187 241.667 374.771 239.676 374.37 239.265C373.968 238.853 366.589 237.466 357.972 236.182C349.355 234.898 342.203 233.727 342.078 233.579C341.953 233.431 342.209 216.435 342.647 195.81C343.48 156.552 343.141 151.536 339.419 148.122C338.333 147.125 335.117 145.185 332.272 143.81L327.1 141.31L326.6 126.81L326.1 112.31L321.978 110.446L317.856 108.582L317.376 98.6004L316.895 88.6194L307.818 79.5424L298.741 70.4654L295.421 73.0324C293.594 74.4444 289.316 78.2344 285.914 81.4554C279.798 87.2444 279.719 87.3894 278.9 94.3104C278.139 100.735 277.967 99.5384 276.809 79.7564C275.404 55.7634 274.747 52.2374 271.035 48.7494L268.466 46.3364L266.487 48.8234C261.292 55.3494 261.572 53.0274 260.494 98.4524L259.477 141.31L256.641 143.81C255.081 145.185 252.539 148.275 250.992 150.678L248.178 155.046L248.475 195.681L248.773 236.316L240.436 240.491C235.851 242.787 229.625 245.451 226.6 246.411C223.575 247.371 220.853 248.522 220.55 248.968C220.248 249.415 220.372 253.646 220.825 258.371C221.602 266.462 221.517 267.125 219.375 269.752C218.124 271.287 216.564 273.39 215.909 274.426C214.928 275.977 214.677 274.718 214.488 267.31C214.175 255.053 214.205 255.31 212.719 252.532C211.54 250.33 211.686 249.637 214.091 246.003C216.38 242.544 217.551 241.772 221.932 240.832C229.752 239.155 241.534 232.923 242.245 230.087C242.935 227.342 242.381 179.012 241.669 169.079C241.617 169.757 241.545 169.404 241.435 167.311C241.514 167.39 241.592 168.014 241.669 169.079C241.825 167.028 241.799 155.55 242.07 154.31C242.768 151.118 246.263 145.414 250.821 140.025L253.6 136.74L253.682 118.025C253.726 107.732 254.092 89.1854 254.494 76.8104Z" fill="#3E3E3E"/>
<path fill-rule="evenodd" clip-rule="evenodd" d="M241.951 163.529C145.821 189.126 75 276.777 75 380.969C75 445.537 102.197 503.752 145.76 544.784C167.746 539.816 190.686 535.81 214.392 532.864C213.598 531.108 212.909 529.279 212.33 527.375L211.652 525.145C189.816 527.911 168.62 531.568 148.207 536.043C107.96 496.643 83 441.727 83 380.969C83 281.218 150.306 197.187 241.981 171.812C241.966 168.986 241.954 166.112 241.951 163.529ZM349.082 169.543C445.287 191.788 517 278.004 517 380.969C517 439.827 493.578 493.199 455.527 532.298C431.872 527.778 407.264 524.338 381.912 522.085C381.909 522.259 381.907 522.426 381.904 522.587L381.902 522.701C381.889 523.5 381.863 525.05 381.726 526.19C381.572 527.477 381.327 528.765 381.007 530.036C407.662 532.398 433.474 536.085 458.196 540.966C499.443 500.18 525 443.559 525 380.969C525 273.554 449.729 183.719 349.056 161.333L349.082 169.543Z" fill="#3E3E3E"/>
</svg>
