<?xml version="1.0" encoding="UTF-8" standalone="no"?>
<svg width="255px" height="255px" viewBox="0 0 255 255" version="1.1" xmlns="http://www.w3.org/2000/svg" xmlns:xlink="http://www.w3.org/1999/xlink" xmlns:sketch="http://www.bohemiancoding.com/sketch/ns">
    <!-- Generator: Sketch 3.3.3 (12072) - http://www.bohemiancoding.com/sketch -->
    <title>Swiss Python Summit</title>
    <desc>Created with Sketch.</desc>
    <defs>
        <linearGradient x1="49.9999998%" y1="82.2756107%" x2="23.4426562%" y2="44.914431%" id="linearGradient-1">
            <stop stop-color="#FFD43B" offset="0%"></stop>
            <stop stop-color="#FFE873" offset="100%"></stop>
        </linearGradient>
        <linearGradient x1="1.06341024e-07%" y1="9.14856261e-08%" x2="74.5209927%" y2="64.1103734%" id="linearGradient-2">
            <stop stop-color="#5A9FD4" offset="0%"></stop>
            <stop stop-color="#306998" offset="100%"></stop>
        </linearGradient>
        <linearGradient x1="50%" y1="0%" x2="50%" y2="100%" id="linearGradient-3">
            <stop stop-color="#FBB161" offset="0%"></stop>
            <stop stop-color="#F76B1C" offset="100%"></stop>
        </linearGradient>
        <linearGradient x1="50%" y1="0%" x2="50%" y2="100%" id="linearGradient-4">
            <stop stop-color="#131D24" offset="0%"></stop>
            <stop stop-color="#3F7CAE" offset="100%"></stop>
        </linearGradient>
    </defs>
    <g id="Page-1" stroke="none" stroke-width="1" fill="none" fill-rule="evenodd" sketch:type="MSPage">
        <g id="Swiss-Python-Summit" sketch:type="MSArtboardGroup">
            <g id="Logo" sketch:type="MSLayerGroup" transform="translate(27.000000, 25.000000)">
                <g id="snake" transform="translate(0.003534, 0.399994)" sketch:type="MSShapeGroup">
                    <path d="M153.037836,52.251329 L153.037836,73.7036527 C153.037836,90.3353498 138.937374,104.33374 122.85819,104.333742 L74.6045376,104.333742 C61.3870541,104.333742 50.4495608,115.646124 50.449559,128.882858 L50.449559,174.884292 C50.449559,187.976565 61.8342011,195.677294 74.6045376,199.433408 C89.8967557,203.929923 104.561192,204.742557 122.85819,199.433408 C135.020416,195.912046 147.013174,188.825289 147.013168,174.884292 L147.013168,156.47246 L98.7595162,156.47246 L98.7595162,150.335181 L147.013168,150.335181 L171.168154,150.335181 C185.208374,150.335181 190.440336,140.541827 195.323115,125.842371 C200.366863,110.70951 200.152254,96.1568127 195.323115,76.7441395 C191.853302,62.7670153 185.22623,52.251329 171.168154,52.251329 L153.037836,52.251329 L153.037836,52.251329 Z M125.898676,168.747018 C130.906656,168.747024 134.963831,172.8504 134.963831,177.924779 C134.963828,183.017211 130.906651,187.15885 125.898676,187.15885 C120.908584,187.15885 116.833521,183.017211 116.833521,177.924779 C116.833525,172.8504 120.908579,168.747018 125.898676,168.747018 L125.898676,168.747018 Z" id="snake-bottom" fill="url(#linearGradient-1)"></path>
                    <path d="M98.9510181,0.00165632008 C90.6923298,0.0400309573 82.8054674,0.744377791 75.8658404,1.97234222 C55.4225692,5.58399696 51.7108636,13.1435 51.7108618,27.0845113 L51.7108618,45.4963481 L100.020819,45.4963481 L100.020819,51.6336271 L51.7108618,51.6336271 L33.5805515,51.6336271 C19.540333,51.6336271 7.2463156,60.0726077 3.40090427,76.1264375 C-1.03472907,94.5278529 -1.23147352,106.010636 3.40090427,125.224669 C6.83494863,139.526852 15.0359117,149.717476 29.0761266,149.71748 L45.6861935,149.71748 L45.6861935,127.645797 C45.6861935,111.70031 59.4826056,97.6350701 75.8658404,97.6350665 L124.119492,97.6350665 C137.551599,97.6350665 148.274476,86.575507 148.274471,73.0859507 L148.274471,27.0845113 C148.274471,13.9922399 137.229657,4.15738938 124.119492,1.97234222 C115.820563,0.590879603 107.209706,-0.0367183172 98.9510181,0.00165632008 L98.9510181,0.00165632008 Z M72.8253536,14.8099534 C77.8154402,14.8099534 81.8905087,18.9515847 81.8905087,24.0440245 C81.8905051,29.1184141 77.8154402,33.2217902 72.8253536,33.2217902 C67.8173772,33.2217884 63.7601985,29.1184123 63.7601985,24.0440245 C63.7601967,18.9515865 67.8173772,14.8099534 72.8253536,14.8099534 L72.8253536,14.8099534 Z" id="snake-top" fill="url(#linearGradient-2)"></path>
                </g>
                <g id="mountain" transform="translate(0.000000, 32.000000)" sketch:type="MSShapeGroup">
                    <path d="M50.4530929,105.992429 L72.3158743,72.8477651 C73.0710014,72.7723703 73.8356431,72.733736 74.6080715,72.733736 L122.861723,72.733736 C138.346428,72.7337342 151.996022,59.7513052 152.98416,43.9369937 L193.72515,98.8180341 C189.213795,110.939043 183.698708,118.735175 171.171688,118.735175 L147.016702,118.735175 L98.7630501,118.735175 L98.7630501,124.872454 L147.016702,124.872454 L147.016702,143.284286 C147.016707,157.225283 135.02395,164.31204 122.861723,167.833402 C104.564726,173.142551 89.9002895,172.329917 74.6080715,167.833402 C61.8377349,164.077288 50.4530929,156.376559 50.4530929,143.284286 L50.4530929,105.992429 L50.4530929,105.992429 Z M125.90221,137.147012 C130.91019,137.147018 134.967365,141.250394 134.967365,146.324773 C134.967362,151.417205 130.910185,155.558844 125.90221,155.558844 C120.912118,155.558844 116.837055,151.417205 116.837055,146.324773 C116.837059,141.250394 120.912113,137.147012 125.90221,137.147012 Z" id="bottom" fill="url(#linearGradient-3)"></path>
                    <path d="M45.6897273,100.074893 L14.3401039,54.8953344 L0.791233283,80.1787623 C1.35420307,84.3194279 2.22199924,88.7201796 3.40443809,93.624663 C6.83848246,107.926846 15.0394455,118.11747 29.0796605,118.117473 L45.6897273,118.117473 L45.6897273,100.074893 Z M76.8096496,66.0350604 L120.367493,0 L148.278005,37.5974644 L148.278005,41.4859446 C148.27801,54.9755009 137.555133,66.0350604 124.123026,66.0350604 L76.8096496,66.0350604 Z" id="top" fill="url(#linearGradient-4)"></path>
                </g>
                <g id="rays" transform="translate(1.000000, 42.000000)" stroke="#FFFCEA" sketch:type="MSShapeGroup">
                    <path d="M81.7015924,62.733736 L49.4530929,121.249579 L49.4530929,133.284286 C49.4530929,146.376559 60.8377349,154.077288 73.6080715,157.833402 C73.6555114,157.847351 73.7029452,157.861265 73.7503732,157.875143 L99.9669277,62.733736 L81.7015924,62.733736 L81.7015924,62.733736 Z" id="bottom" fill="#FFFCEA"></path>
                    <path d="M85.597709,56.0350604 L116.232263,0.447769165 L100.914986,56.0350604 L85.597709,56.0350604 Z" id="top-right" fill="#FFFDEB"></path>
                    <path d="M0.829851905,76.4316563 L10.8808667,55.7124674 L3.28191139,86.8490659 C2.96089462,85.8004324 2.66856616,84.7247094 2.40443809,83.624663 C1.7969781,81.1050592 1.27255969,78.718402 0.829851905,76.4316563 Z" id="left" fill="#FFFCEA"></path>
                </g>
            </g>
        </g>
    </g>
</svg>